<svg width="284" height="256" viewBox="0 0 284 256" fill="none" xmlns="http://www.w3.org/2000/svg">
<g opacity="0.8" clip-path="url(#clip0_15402_4271)">
<path d="M170.528 128.441C167.783 126.409 164.479 124.719 160.614 123.364C156.746 122.012 152.46 120.743 147.755 119.556C144.139 118.711 140.949 117.907 138.186 117.146C135.421 116.382 133.123 115.539 131.289 114.606C129.452 113.677 128.035 112.598 127.03 111.37C126.027 110.144 125.476 108.6 125.376 106.738C125.203 103.524 126.316 101.027 128.72 99.2489C131.122 97.4727 134.869 96.5846 139.957 96.5846C142.813 96.5846 145.644 96.9223 148.448 97.5996C151.25 98.2769 153.862 99.1025 156.278 100.075C158.695 101.049 160.758 102.042 162.466 103.057C164.17 104.072 165.352 104.878 166.01 105.468L173.41 91.254C169.068 88.5468 164.035 86.1987 158.304 84.2097C154.787 82.9898 151.087 82.1485 147.207 81.6762L146.339 65.5557H130.525L131.405 81.8889C129.629 82.1837 127.906 82.5741 126.242 83.0679C122.112 84.2956 118.527 86.0933 115.488 88.4609C112.444 90.8305 110.127 93.7915 108.535 97.3458C106.939 100.9 106.266 104.962 106.512 109.529C106.699 113 107.418 115.982 108.669 118.479C109.919 120.975 111.71 123.175 114.044 125.078C116.379 126.981 119.258 128.632 122.679 130.028C126.103 131.424 130.121 132.714 134.738 133.899C138.54 134.914 141.984 135.847 145.065 136.692C148.143 137.537 150.784 138.468 152.98 139.483C155.176 140.498 156.891 141.685 158.126 143.037C159.358 144.392 160.027 146.041 160.132 147.987C160.465 154.163 155.543 157.251 145.367 157.251C141.708 157.251 138.115 156.829 134.589 155.982C131.062 155.139 127.837 154.1 124.915 152.873C121.991 151.647 119.448 150.419 117.285 149.192C115.121 147.966 113.618 146.972 112.774 146.209L105.419 161.313C111.155 165.037 117.559 167.912 124.63 169.944C128.501 171.054 132.385 171.853 136.279 172.354L137.238 190.154H153.052L152.11 172.684C154.538 172.444 156.899 172.062 159.193 171.531C163.379 170.559 167.045 169.013 170.191 166.897C173.334 164.783 175.771 162.011 177.508 158.584C179.242 155.158 179.979 151.032 179.719 146.209C179.496 142.065 178.594 138.575 177.014 135.739C175.43 132.905 173.269 130.471 170.528 128.441Z" fill="url(#paint0_linear_15402_4271)" fill-opacity="0.08"/>
<path d="M232.386 37.466C205.596 13.3057 170.991 -0.000244141 134.946 -0.000244141C98.9013 -0.000244141 65.7294 13.3057 41.5435 37.466C17.3575 61.6263 5.05138 93.7502 6.89228 127.918C8.73318 162.085 24.5009 194.209 51.2903 218.37C78.0797 242.53 112.685 255.836 148.73 255.836C184.775 255.836 217.947 242.53 242.133 218.37C266.319 194.209 278.625 162.085 276.784 127.918C274.943 93.7502 259.175 61.6263 232.386 37.466ZM147.922 240.845C82.2327 240.845 26.0612 190.187 22.7062 127.918C19.3513 65.6491 70.064 14.9902 135.754 14.9902C201.443 14.9902 257.615 65.6491 260.97 127.918C264.325 190.187 213.612 240.845 147.922 240.845Z" fill="url(#paint1_linear_15402_4271)" fill-opacity="0.08"/>
<path d="M136.597 30.6458C80.0144 30.6458 36.332 74.2819 39.2218 127.917C42.1116 181.553 90.4961 225.189 147.078 225.189C203.661 225.189 247.343 181.553 244.453 127.917C241.563 74.2819 193.179 30.6458 136.597 30.6458ZM146.271 210.199C98.4088 210.199 57.4802 173.287 55.0358 127.917C52.5913 82.5481 89.5424 45.6361 137.404 45.6361C185.266 45.6361 226.195 82.5481 228.639 127.917C231.084 173.287 194.133 210.199 146.271 210.199Z" fill="url(#paint2_linear_15402_4271)" fill-opacity="0.08"/>
</g>
<defs>
<linearGradient id="paint0_linear_15402_4271" x1="137.817" y1="65.5557" x2="137.817" y2="190.154" gradientUnits="userSpaceOnUse">
<stop stop-color="#2B6400"/>
<stop offset="1" stop-color="#2B6400" stop-opacity="0"/>
</linearGradient>
<linearGradient id="paint1_linear_15402_4271" x1="134.946" y1="-0.000244141" x2="134.946" y2="255.836" gradientUnits="userSpaceOnUse">
<stop stop-color="#2B6400"/>
<stop offset="1" stop-color="#2B6400" stop-opacity="0"/>
</linearGradient>
<linearGradient id="paint2_linear_15402_4271" x1="136.597" y1="30.6458" x2="136.597" y2="225.189" gradientUnits="userSpaceOnUse">
<stop stop-color="#2B6400"/>
<stop offset="1" stop-color="#2B6400" stop-opacity="0"/>
</linearGradient>
<clipPath id="clip0_15402_4271">
<rect width="269.891" height="256.207" fill="white" transform="matrix(1 0 0.0538005 0.998552 0 0)"/>
</clipPath>
</defs>
</svg>
