<svg width="8" height="13" viewBox="0 0 8 13" fill="none" xmlns="http://www.w3.org/2000/svg">
<path d="M7.93462 6.83504C7.84281 6.67904 7.66823 6.58179 7.47835 6.58179H4.52166V1.23025C4.52166 0.960032 4.28797 0.740723 4.00002 0.740723C3.71207 0.740723 3.47837 0.960032 3.47837 1.23025V6.58179H0.521683C0.331108 6.58179 0.156531 6.67904 0.0654168 6.83504C-0.0270885 6.99104 -0.0208287 7.18163 0.0800228 7.3324L3.55836 12.5123C3.65434 12.6546 3.82057 12.7407 4.00002 12.7407C4.17947 12.7407 4.3457 12.6546 4.44168 12.5123L7.92001 7.3324C7.97287 7.25277 8 7.16204 8 7.07132C8 6.99038 7.97774 6.90879 7.93462 6.83504Z" fill="#FF7066"/>
</svg>
