<svg width="1440" height="612" viewBox="0 0 1440 612" fill="none" xmlns="http://www.w3.org/2000/svg">
<g clip-path="url(#clip0_3_5235)">
<path d="M889.036 612L1931.07 9.00004" stroke="#00BAEE" stroke-opacity="0.16"/>
<path d="M878.779 612L1754.94 9.00003" stroke="#00BAEE" stroke-opacity="0.16"/>
<path d="M868.522 612L1618.38 9.00005" stroke="#00BAEE" stroke-opacity="0.16"/>
<path d="M858.266 612L1508.07 9.00008" stroke="#00BAEE" stroke-opacity="0.16"/>
<path d="M848.01 612L1416.02 9" stroke="#00BAEE" stroke-opacity="0.16"/>
<path d="M837.753 612L1337.17 9.00011" stroke="#00BAEE" stroke-opacity="0.16"/>
<path d="M827.497 612L1268.16 9.0001" stroke="#00BAEE" stroke-opacity="0.16"/>
<path d="M817.241 612L1206.64 9.00007" stroke="#00BAEE" stroke-opacity="0.16"/>
<path d="M806.984 612L1150.95 9.00007" stroke="#00BAEE" stroke-opacity="0.16"/>
<path d="M796.728 612L1099.84 9.00008" stroke="#00BAEE" stroke-opacity="0.16"/>
<path d="M786.471 612L1052.39 9.00007" stroke="#00BAEE" stroke-opacity="0.16"/>
<path d="M776.215 612L1007.87 9.00009" stroke="#00BAEE" stroke-opacity="0.16"/>
<path d="M765.958 612L965.727 9" stroke="#00BAEE" stroke-opacity="0.16"/>
<path d="M755.702 612L925.492 9.00003" stroke="#00BAEE" stroke-opacity="0.16"/>
<path d="M745.446 612L886.791 9.00002" stroke="#00BAEE" stroke-opacity="0.16"/>
<path d="M735.189 612L849.307 9.00009" stroke="#00BAEE" stroke-opacity="0.16"/>
<path d="M724.933 612L812.766 9.00007" stroke="#00BAEE" stroke-opacity="0.16"/>
<path d="M714.676 612L776.93 9.00005" stroke="#00BAEE" stroke-opacity="0.16"/>
<path d="M704.42 612L741.581 8.99999" stroke="#00BAEE" stroke-opacity="0.16"/>
<path d="M694.164 612L706.56 9.0009" stroke="#00BAEE" stroke-opacity="0.16"/>
<path d="M683.907 612L671.511 9.0009" stroke="#00BAEE" stroke-opacity="0.16"/>
<path d="M673.651 612L636.49 8.99999" stroke="#00BAEE" stroke-opacity="0.16"/>
<path d="M663.395 612L601.141 9.00005" stroke="#00BAEE" stroke-opacity="0.16"/>
<path d="M653.138 612L565.305 9.00007" stroke="#00BAEE" stroke-opacity="0.16"/>
<path d="M642.882 612L528.765 9.00009" stroke="#00BAEE" stroke-opacity="0.16"/>
<path d="M632.625 612L491.28 9.00002" stroke="#00BAEE" stroke-opacity="0.16"/>
<path d="M622.369 612L452.579 9.00003" stroke="#00BAEE" stroke-opacity="0.16"/>
<path d="M612.112 612L412.344 9" stroke="#00BAEE" stroke-opacity="0.16"/>
<path d="M601.856 612L370.199 9.00009" stroke="#00BAEE" stroke-opacity="0.16"/>
<path d="M591.6 612L325.685 9.00007" stroke="#00BAEE" stroke-opacity="0.16"/>
<path d="M581.343 612L278.234 9.00008" stroke="#00BAEE" stroke-opacity="0.16"/>
<path d="M571.087 612L227.126 9.00007" stroke="#00BAEE" stroke-opacity="0.16"/>
<path d="M560.831 612L171.429 9.00007" stroke="#00BAEE" stroke-opacity="0.16"/>
<path d="M550.574 612L109.911 9.0001" stroke="#00BAEE" stroke-opacity="0.16"/>
<path d="M540.317 612L40.8984 9.00011" stroke="#00BAEE" stroke-opacity="0.16"/>
<path d="M530.061 612L-37.946 9" stroke="#00BAEE" stroke-opacity="0.16"/>
<path d="M519.805 612L-129.995 9.00008" stroke="#00BAEE" stroke-opacity="0.16"/>
<path d="M509.548 612L-240.312 9.00005" stroke="#00BAEE" stroke-opacity="0.16"/>
<path d="M499.292 612L-376.869 9.00003" stroke="#00BAEE" stroke-opacity="0.16"/>
<path d="M489.036 612L-553 9.00004" stroke="#00BAEE" stroke-opacity="0.16"/>
<path d="M889.036 612H489.036" stroke="#00BAEE" stroke-opacity="0.16"/>
<path d="M889.036 612H489.036" stroke="#00BAEE" stroke-opacity="0.16"/>
<path d="M889.036 612H489.036" stroke="#00BAEE" stroke-opacity="0.16"/>
<path d="M889.036 612H489.036" stroke="#00BAEE" stroke-opacity="0.16"/>
<path d="M889.036 612H489.036" stroke="#00BAEE" stroke-opacity="0.16"/>
<path d="M889.036 612H489.035" stroke="#00BAEE" stroke-opacity="0.16"/>
<path d="M889.036 612H489.035" stroke="#00BAEE" stroke-opacity="0.16"/>
<path d="M889.037 612H489.034" stroke="#00BAEE" stroke-opacity="0.16"/>
<path d="M889.04 611.998H489.032" stroke="#00BAEE" stroke-opacity="0.16"/>
<path d="M889.045 611.996H489.026" stroke="#00BAEE" stroke-opacity="0.16"/>
<path d="M889.058 611.988H489.013" stroke="#00BAEE" stroke-opacity="0.16"/>
<path d="M889.083 611.973H488.988" stroke="#00BAEE" stroke-opacity="0.16"/>
<path d="M889.13 611.945H488.941" stroke="#00BAEE" stroke-opacity="0.16"/>
<path d="M889.213 611.896H488.858" stroke="#00BAEE" stroke-opacity="0.16"/>
<path d="M889.354 611.818H488.717" stroke="#00BAEE" stroke-opacity="0.16"/>
<path d="M889.584 611.684H488.486" stroke="#00BAEE" stroke-opacity="0.16"/>
<path d="M889.95 611.469H488.121" stroke="#00BAEE" stroke-opacity="0.16"/>
<path d="M890.511 611.146H487.56" stroke="#00BAEE" stroke-opacity="0.16"/>
<path d="M891.354 610.66H486.717" stroke="#00BAEE" stroke-opacity="0.16"/>
<path d="M892.589 609.945H485.482" stroke="#00BAEE" stroke-opacity="0.16"/>
<path d="M894.364 608.916H483.707" stroke="#00BAEE" stroke-opacity="0.16"/>
<path d="M896.87 607.467H481.201" stroke="#00BAEE" stroke-opacity="0.16"/>
<path d="M900.349 605.455H477.721" stroke="#00BAEE" stroke-opacity="0.16"/>
<path d="M905.109 602.699H472.962" stroke="#00BAEE" stroke-opacity="0.16"/>
<path d="M911.533 598.98H466.538" stroke="#00BAEE" stroke-opacity="0.16"/>
<path d="M920.095 594.027H457.976" stroke="#00BAEE" stroke-opacity="0.16"/>
<path d="M931.376 587.502H446.694" stroke="#00BAEE" stroke-opacity="0.16"/>
<path d="M946.084 578.988H431.987" stroke="#00BAEE" stroke-opacity="0.16"/>
<path d="M965.072 568H412.999" stroke="#00BAEE" stroke-opacity="0.16"/>
<path d="M989.362 553.945H388.709" stroke="#00BAEE" stroke-opacity="0.16"/>
<path d="M1020.17 536.113H357.897" stroke="#00BAEE" stroke-opacity="0.16"/>
<path d="M1058.95 513.678H319.121" stroke="#00BAEE" stroke-opacity="0.16"/>
<path d="M1107.39 485.646H270.683" stroke="#00BAEE" stroke-opacity="0.16"/>
<path d="M1167.48 450.875H210.595" stroke="#00BAEE" stroke-opacity="0.16"/>
<path d="M1241.53 408.018H136.538" stroke="#00BAEE" stroke-opacity="0.16"/>
<path d="M1332.25 355.523H45.8252" stroke="#00BAEE" stroke-opacity="0.16"/>
<path d="M1442.72 291.598H-64.6487" stroke="#00BAEE" stroke-opacity="0.16"/>
<path d="M1576.52 214.166H-198.454" stroke="#00BAEE" stroke-opacity="0.16"/>
<path d="M1737.75 120.869H-359.681" stroke="#00BAEE" stroke-opacity="0.16"/>
<path d="M1931.07 9H-553" stroke="#00BAEE" stroke-opacity="0.16"/>
<rect x="-0.280762" y="286" width="1443" height="326" fill="url(#paint0_linear_3_5235)"/>
</g>
<defs>
<linearGradient id="paint0_linear_3_5235" x1="721.219" y1="286" x2="721.219" y2="612" gradientUnits="userSpaceOnUse">
<stop stop-color="white" stop-opacity="0"/>
<stop offset="1" stop-color="white"/>
</linearGradient>
<clipPath id="clip0_3_5235">
<rect width="1440" height="612" fill="white" transform="matrix(-1 0 0 -1 1440 612)"/>
</clipPath>
</defs>
</svg>
