<svg width="382" height="476" viewBox="0 0 382 476" fill="none" xmlns="http://www.w3.org/2000/svg">
<g clip-path="url(#clip0_15415_6432)">
<g filter="url(#filter0_f_15415_6432)">
<path d="M308.215 -0.5L164.194 157.049H233.225L368.758 -0.5H308.215Z" fill="url(#paint0_linear_15415_6432)" fill-opacity="0.25"/>
</g>
<path d="M61.0693 108.787C59.4179 117.757 58.079 119.096 49.1084 120.748C58.0791 122.399 59.4179 123.738 61.0693 132.708C62.7208 123.738 64.0596 122.399 73.0303 120.748C64.0596 119.096 62.7207 117.757 61.0693 108.787Z" fill="white"/>
<path d="M314.415 139.939C312.923 148.045 311.713 149.255 303.607 150.747C311.713 152.24 312.923 153.449 314.415 161.555C315.908 153.449 317.117 152.24 325.223 150.747C317.117 149.255 315.907 148.045 314.415 139.939Z" fill="white"/>
<g filter="url(#filter1_f_15415_6432)">
<path d="M74.7091 -0.5L-0.28125 81.3705V157.049L135.252 -0.5H74.7091Z" fill="white" fill-opacity="0.25"/>
</g>
</g>
<defs>
<filter id="filter0_f_15415_6432" x="161.194" y="-3.5" width="210.563" height="163.549" filterUnits="userSpaceOnUse" color-interpolation-filters="sRGB">
<feFlood flood-opacity="0" result="BackgroundImageFix"/>
<feBlend mode="normal" in="SourceGraphic" in2="BackgroundImageFix" result="shape"/>
<feGaussianBlur stdDeviation="1.5" result="effect1_foregroundBlur_15415_6432"/>
</filter>
<filter id="filter1_f_15415_6432" x="-3.28125" y="-3.5" width="141.533" height="163.549" filterUnits="userSpaceOnUse" color-interpolation-filters="sRGB">
<feFlood flood-opacity="0" result="BackgroundImageFix"/>
<feBlend mode="normal" in="SourceGraphic" in2="BackgroundImageFix" result="shape"/>
<feGaussianBlur stdDeviation="1.5" result="effect1_foregroundBlur_15415_6432"/>
</filter>
<linearGradient id="paint0_linear_15415_6432" x1="334.19" y1="-0.500003" x2="63.3563" y2="311.623" gradientUnits="userSpaceOnUse">
<stop stop-color="white"/>
<stop offset="1" stop-color="white" stop-opacity="0"/>
</linearGradient>
<clipPath id="clip0_15415_6432">
<path d="M0 24C0 10.7452 10.7452 0 24 0H358C371.255 0 382 10.7452 382 24V452C382 465.255 371.255 476 358 476H24C10.7452 476 0 465.255 0 452V24Z" fill="white"/>
</clipPath>
</defs>
</svg>
