<svg width="24" height="24" viewBox="0 0 24 24" fill="none" xmlns="http://www.w3.org/2000/svg">
    <path
        d="M24 12.0005C24 18.6267 18.627 23.999 11.9971 24C5.37206 24 -0.000959639 18.6267 5.14575e-07 11.9995C-0.00191979 5.37238 5.3711 0 11.999 0C18.627 0 24 5.37334 24 12.0005Z"
        fill="#EAB300" />
    <path
        d="M16.7207 9.05894C16.5661 7.4519 15.1787 6.91334 13.4254 6.75974V4.52966H12.0687V6.70022C11.7125 6.70022 11.3477 6.70694 10.9857 6.71462V4.52966H9.629L9.62804 6.75782C9.33423 6.76358 9.04523 6.76934 8.7639 6.76934V6.76262L6.89256 6.76166V8.21126C6.89256 8.21126 7.89496 8.19206 7.87768 8.2103C8.42785 8.2103 8.60644 8.52902 8.65828 8.80454V11.3447C8.69669 11.3447 8.74566 11.3466 8.80135 11.3543H8.65828L8.65732 14.913C8.63332 15.0858 8.53154 15.3613 8.14748 15.3623C8.16477 15.3777 7.16141 15.3623 7.16141 15.3623L6.8916 16.9828H8.65828C8.98666 16.9828 9.31023 16.9885 9.62708 16.9905L9.62804 19.2455H10.9838V17.0145C11.3554 17.0221 11.7154 17.025 12.0678 17.025L12.0668 19.2455H13.4235V16.9953C15.7049 16.8647 17.3035 16.2897 17.5013 14.1469C17.6616 12.4218 16.8503 11.6509 15.5551 11.3399C16.3434 10.9405 16.8359 10.2349 16.7207 9.05894ZM14.8215 13.8801C14.8215 15.5649 11.9362 15.3738 11.0155 15.3738V12.3853C11.9362 12.3873 14.8215 12.1233 14.8215 13.8801ZM14.1897 9.6647C14.1897 11.1978 11.7817 11.0183 11.0155 11.0193V8.31014C11.7826 8.31014 14.1907 8.0663 14.1897 9.6647Z"
        fill="white" />
    <path d="M8.66016 11.2852H8.86179V11.434H8.66016V11.2852Z" fill="white" />
</svg>
    