<svg width="56" height="56" viewBox="0 0 56 56" fill="none" xmlns="http://www.w3.org/2000/svg">
    <rect width="56" height="56" rx="28" fill="#9EE2FF" />
    <path
        d="M34 13H22C17.86 13 14.5 16.36 14.5 20.5V35.5C14.5 39.64 17.86 43 22 43H34C38.14 43 41.5 39.64 41.5 35.5V20.5C41.5 16.36 38.14 13 34 13ZM23.29 37.945C23.005 38.23 22.63 38.38 22.24 38.38C21.835 38.38 21.46 38.23 21.175 37.945C20.89 37.66 20.725 37.285 20.725 36.88C20.725 36.49 20.89 36.1 21.175 35.815C21.31 35.68 21.475 35.575 21.655 35.5C22.03 35.35 22.435 35.35 22.81 35.5C22.9 35.53 22.99 35.575 23.065 35.635C23.155 35.68 23.23 35.755 23.29 35.815C23.575 36.1 23.74 36.49 23.74 36.88C23.74 37.285 23.575 37.66 23.29 37.945ZM20.725 30.88C20.725 30.685 20.77 30.49 20.845 30.31C20.92 30.115 21.025 29.965 21.175 29.815C21.52 29.47 22.045 29.305 22.525 29.41C22.615 29.425 22.72 29.455 22.81 29.5C22.9 29.53 22.99 29.575 23.065 29.635C23.155 29.68 23.23 29.755 23.29 29.815C23.425 29.965 23.545 30.115 23.62 30.31C23.695 30.49 23.725 30.685 23.725 30.88C23.725 31.285 23.575 31.66 23.29 31.945C23.005 32.23 22.63 32.38 22.24 32.38C22.03 32.38 21.835 32.335 21.655 32.26C21.475 32.185 21.31 32.08 21.175 31.945C20.89 31.66 20.725 31.285 20.725 30.88ZM29.29 37.945C29.155 38.08 28.99 38.185 28.81 38.26C28.63 38.335 28.435 38.38 28.225 38.38C27.835 38.38 27.46 38.23 27.175 37.945C26.89 37.66 26.725 37.285 26.725 36.88C26.725 36.775 26.74 36.685 26.755 36.58C26.785 36.49 26.815 36.4 26.845 36.31C26.89 36.22 26.935 36.13 26.98 36.04C27.04 35.965 27.1 35.89 27.175 35.815C27.31 35.68 27.475 35.575 27.655 35.5C28.21 35.275 28.87 35.395 29.29 35.815C29.575 36.1 29.725 36.49 29.725 36.88C29.725 37.285 29.575 37.66 29.29 37.945ZM29.29 31.945C29.005 32.23 28.63 32.38 28.225 32.38C27.835 32.38 27.46 32.23 27.175 31.945C26.89 31.66 26.725 31.285 26.725 30.88C26.725 30.49 26.89 30.1 27.175 29.815C27.73 29.26 28.735 29.26 29.29 29.815C29.425 29.965 29.545 30.115 29.62 30.31C29.695 30.49 29.725 30.685 29.725 30.88C29.725 31.285 29.575 31.66 29.29 31.945ZM23.5 25.69C21.955 25.69 20.68 24.43 20.68 22.87V21.37C20.68 19.825 21.94 18.55 23.5 18.55H32.5C34.045 18.55 35.32 19.81 35.32 21.37V22.87C35.32 24.415 34.06 25.69 32.5 25.69H23.5ZM35.29 37.945C35.005 38.23 34.63 38.38 34.225 38.38C34.03 38.38 33.835 38.335 33.655 38.26C33.475 38.185 33.31 38.08 33.175 37.945C32.89 37.66 32.74 37.285 32.74 36.88C32.74 36.49 32.89 36.1 33.175 35.815C33.58 35.395 34.255 35.275 34.81 35.5C34.99 35.575 35.155 35.68 35.29 35.815C35.575 36.1 35.725 36.49 35.725 36.88C35.725 37.285 35.575 37.66 35.29 37.945ZM35.62 31.45C35.545 31.63 35.44 31.795 35.29 31.945C35.005 32.23 34.63 32.38 34.225 32.38C33.835 32.38 33.46 32.23 33.175 31.945C32.89 31.66 32.725 31.285 32.725 30.88C32.725 30.49 32.89 30.1 33.175 29.815C33.73 29.26 34.735 29.26 35.29 29.815C35.575 30.1 35.74 30.49 35.74 30.88C35.74 31.075 35.695 31.27 35.62 31.45Z"
        fill="black" />
</svg>
    