<svg width="24" height="24" viewBox="0 0 24 24" fill="none" xmlns="http://www.w3.org/2000/svg">
<path d="M7.75997 12.085C11.095 12.085 13.8 9.38 13.8 6.045C13.8 2.71 11.095 0 7.75997 0C4.42497 0 1.71997 2.705 1.71997 6.04C1.71997 9.375 4.42497 12.085 7.75997 12.085ZM5.64997 8.43C5.70497 8.23 5.75997 8.035 5.81997 7.835C5.88997 7.605 5.95497 7.58 6.16497 7.69C6.52497 7.875 6.90497 7.98 7.30497 8.03C7.55997 8.06 7.81497 8.035 8.04997 7.93C8.49497 7.735 8.56497 7.22 8.18997 6.91C8.05997 6.805 7.91497 6.725 7.76497 6.66C7.37497 6.49 6.96997 6.36 6.59997 6.14C6.00497 5.785 5.62497 5.29 5.66997 4.565C5.71997 3.745 6.18497 3.23 6.93497 2.96C7.24497 2.845 7.24497 2.85 7.24997 2.525C7.24997 2.415 7.24997 2.305 7.24997 2.195C7.25497 1.95 7.29997 1.91 7.53997 1.9C7.61497 1.9 7.68997 1.9 7.76497 1.9C8.28497 1.9 8.28497 1.9 8.28497 2.42C8.28497 2.785 8.28497 2.79 8.64997 2.845C8.92997 2.89 9.19497 2.97 9.45497 3.085C9.59997 3.15 9.64997 3.25 9.60997 3.4C9.54497 3.625 9.48497 3.85 9.40997 4.07C9.33997 4.28 9.27497 4.31 9.07497 4.215C8.66997 4.02 8.24497 3.935 7.79497 3.96C7.67497 3.965 7.56497 3.98 7.45497 4.03C7.06997 4.2 7.00497 4.625 7.33497 4.89C7.49997 5.025 7.68997 5.12 7.88997 5.2C8.22997 5.34 8.57497 5.48 8.90497 5.66C9.93997 6.235 10.22 7.535 9.48997 8.42C9.22497 8.74 8.88497 8.955 8.47997 9.065C8.30497 9.115 8.22497 9.205 8.23497 9.385C8.24497 9.565 8.23497 9.74 8.23497 9.92C8.23497 10.08 8.15497 10.165 7.99497 10.17C7.80497 10.175 7.60997 10.175 7.41997 10.17C7.24997 10.165 7.16997 10.07 7.16997 9.905C7.16997 9.775 7.16997 9.645 7.16497 9.515C7.15997 9.23 7.15497 9.215 6.87497 9.17C6.51997 9.115 6.17497 9.035 5.84997 8.875C5.60497 8.76 5.57997 8.695 5.64997 8.43Z" fill="#9FE870"/>
<path d="M21.31 12.59H20.605C20.14 11.165 19.23 9.9 18.015 8.92C18.015 8.875 18.005 8.825 17.995 8.78C17.74 7.885 18.055 7.07 18.42 6.485C18.675 6.075 18.345 5.55 17.865 5.61C16.79 5.745 16.05 6.14 15.54 6.585C15.19 6.89 14.94 7.3 14.83 7.755C14.06 10.945 11.185 13.32 7.76 13.32C6.095 13.32 4.565 12.76 3.34 11.82C2.915 12.74 2.685 13.745 2.685 14.8C2.685 15.37 2.755 15.925 2.885 16.46C2.885 16.46 2.885 16.47 2.89 16.485C3.025 17.04 3.23 17.575 3.49 18.08C3.835 18.825 4.335 19.695 5.025 20.4C6.02 21.425 6.19 22.695 6.215 23.245V23.48C6.215 23.49 6.215 23.5 6.215 23.51C6.215 23.515 6.215 23.515 6.215 23.515C6.235 23.785 6.46 24 6.735 24H9.895C10.18 24 10.415 23.77 10.415 23.48V22.7C10.875 22.76 11.345 22.795 11.82 22.795C12.195 22.795 12.56 22.775 12.925 22.735V23.48C12.925 23.765 13.155 24 13.445 24H16.615C16.9 24 17.135 23.77 17.135 23.48V22.7C17.14 22.44 17.23 21.405 18.21 20.52C18.245 20.49 18.28 20.46 18.315 20.43C18.325 20.42 18.335 20.415 18.345 20.405C19.435 19.435 20.24 18.225 20.655 16.875H21.32C21.85 16.875 22.28 16.445 22.28 15.915V13.55C22.27 13.02 21.84 12.59 21.31 12.59ZM17.355 12.76C16.92 12.76 16.57 12.41 16.57 11.975C16.57 11.54 16.92 11.19 17.355 11.19C17.79 11.19 18.14 11.54 18.14 11.975C18.14 12.41 17.79 12.76 17.355 12.76Z" fill="#9FE870"/>
</svg>
