<svg width="21" height="20" viewBox="0 0 21 20" fill="none" xmlns="http://www.w3.org/2000/svg">
<path d="M12.1049 2.29175C13.6939 2.29175 14.8228 2.29308 15.6792 2.40821C16.5176 2.52094 17.0006 2.73233 17.3533 3.085C17.7059 3.43768 17.9173 3.92072 18.0301 4.75912C18.1452 5.61551 18.1465 6.7444 18.1465 8.33342C18.1465 8.67859 18.4263 8.95842 18.7715 8.95842C19.1167 8.95842 19.3965 8.67859 19.3965 8.33342V8.28641C19.3965 6.75494 19.3966 5.54191 19.2689 4.59256C19.1376 3.61554 18.8608 2.82475 18.2372 2.20112C17.6135 1.57748 16.8227 1.30072 15.8457 1.16936C14.8964 1.04173 13.6833 1.04174 12.1519 1.04175H12.1049C11.7597 1.04175 11.4799 1.32157 11.4799 1.66675C11.4799 2.01193 11.7597 2.29175 12.1049 2.29175Z" fill="#9FE870"/>
<path d="M8.72451 1.04175H8.77153C9.1167 1.04175 9.39653 1.32157 9.39653 1.66675C9.39653 2.01193 9.1167 2.29175 8.77153 2.29175C7.18251 2.29175 6.05362 2.29308 5.19723 2.40821C4.35883 2.52094 3.87579 2.73233 3.52311 3.085C3.17044 3.43768 2.95905 3.92071 2.84632 4.75912C2.73119 5.61551 2.72986 6.7444 2.72986 8.33341C2.72986 8.67859 2.45004 8.95842 2.10486 8.95842C1.75968 8.95842 1.47986 8.67859 1.47986 8.33341V8.2864C1.47985 6.75494 1.47984 5.54191 1.60747 4.59256C1.73883 3.61554 2.01559 2.82475 2.63923 2.20112C3.26286 1.57748 4.05366 1.30072 5.03067 1.16936C5.98002 1.04173 7.19305 1.04174 8.72451 1.04175Z" fill="#9FE870"/>
<path d="M5.0442 4.60609C4.60486 5.04543 4.60486 5.75254 4.60486 7.16675C4.60486 8.10956 4.60486 8.58096 4.89775 8.87386C5.19065 9.16675 5.66205 9.16675 6.60486 9.16675H7.60486C8.54767 9.16675 9.01907 9.16675 9.31197 8.87386C9.60486 8.58096 9.60486 8.10956 9.60486 7.16675V6.16675C9.60486 5.22394 9.60486 4.75254 9.31197 4.45964C9.01907 4.16675 8.54767 4.16675 7.60486 4.16675C6.19065 4.16675 5.48354 4.16675 5.0442 4.60609Z" fill="#9FE870"/>
<path d="M5.0442 15.3941C4.60486 14.9547 4.60486 14.2476 4.60486 12.8334C4.60486 11.8906 4.60486 11.4192 4.89775 11.1263C5.19065 10.8334 5.66205 10.8334 6.60486 10.8334H7.60486C8.54767 10.8334 9.01907 10.8334 9.31197 11.1263C9.60486 11.4192 9.60486 11.8906 9.60486 12.8334V13.8334C9.60486 14.7762 9.60486 15.2476 9.31197 15.5405C9.01907 15.8334 8.54767 15.8334 7.60487 15.8334C6.19067 15.8334 5.48354 15.8334 5.0442 15.3941Z" fill="#9FE870"/>
<path d="M11.2715 6.16675C11.2715 5.22394 11.2715 4.75254 11.5644 4.45964C11.8573 4.16675 12.3287 4.16675 13.2715 4.16675C14.6857 4.16675 15.3928 4.16675 15.8322 4.60609C16.2715 5.04543 16.2715 5.75254 16.2715 7.16675C16.2715 8.10956 16.2715 8.58096 15.9786 8.87386C15.6857 9.16675 15.2143 9.16675 14.2715 9.16675H13.2715C12.3287 9.16675 11.8573 9.16675 11.5644 8.87386C11.2715 8.58096 11.2715 8.10956 11.2715 7.16675V6.16675Z" fill="#9FE870"/>
<path d="M11.5644 15.5405C11.2715 15.2476 11.2715 14.7762 11.2715 13.8334V12.8334C11.2715 11.8906 11.2715 11.4192 11.5644 11.1263C11.8573 10.8334 12.3287 10.8334 13.2715 10.8334H14.2715C15.2143 10.8334 15.6857 10.8334 15.9786 11.1263C16.2715 11.4192 16.2715 11.8906 16.2715 12.8334C16.2715 14.2476 16.2715 14.9547 15.8322 15.3941C15.3928 15.8334 14.6857 15.8334 13.2715 15.8334C12.3287 15.8334 11.8573 15.8334 11.5644 15.5405Z" fill="#9FE870"/>
<path d="M18.7715 11.0417C19.1167 11.0417 19.3965 11.3216 19.3965 11.6667V11.7138C19.3965 13.2452 19.3966 14.4583 19.2689 15.4076C19.1376 16.3846 18.8608 17.1754 18.2372 17.799C17.6135 18.4227 16.8227 18.6994 15.8457 18.8308C14.8964 18.9584 13.6833 18.9584 12.1519 18.9584H12.1049C11.7597 18.9584 11.4799 18.6786 11.4799 18.3334C11.4799 17.9882 11.7597 17.7084 12.1049 17.7084C13.6939 17.7084 14.8228 17.7071 15.6792 17.5919C16.5176 17.4792 17.0006 17.2678 17.3533 16.9152C17.7059 16.5625 17.9173 16.0794 18.0301 15.241C18.1452 14.3847 18.1465 13.2558 18.1465 11.6667C18.1465 11.3216 18.4263 11.0417 18.7715 11.0417Z" fill="#9FE870"/>
<path d="M2.72986 11.6667C2.72986 11.3216 2.45004 11.0417 2.10486 11.0417C1.75968 11.0417 1.47986 11.3216 1.47986 11.6667V11.7138C1.47985 13.2452 1.47984 14.4583 1.60747 15.4076C1.73883 16.3846 2.01559 17.1754 2.63923 17.799C3.26286 18.4227 4.05366 18.6994 5.03067 18.8308C5.98002 18.9584 7.19305 18.9584 8.72452 18.9584H8.77152C9.1167 18.9584 9.39653 18.6786 9.39653 18.3334C9.39653 17.9882 9.1167 17.7084 8.77152 17.7084C7.18251 17.7084 6.05362 17.7071 5.19723 17.5919C4.35883 17.4792 3.87579 17.2678 3.52311 16.9152C3.17044 16.5625 2.95905 16.0794 2.84632 15.241C2.73119 14.3847 2.72986 13.2558 2.72986 11.6667Z" fill="#9FE870"/>
</svg>
