<svg width="20" height="20" viewBox="0 0 20 20" fill="none" xmlns="http://www.w3.org/2000/svg">
<path d="M18.3336 6.80197L18.3336 6.86241C18.3336 7.5797 18.3336 7.93834 18.1609 8.23177C17.9883 8.52519 17.6748 8.69937 17.0477 9.04772L16.3866 9.41501C16.8422 7.87489 16.9942 6.22014 17.0504 4.805C17.0528 4.74432 17.0555 4.6829 17.0582 4.62082L17.0602 4.57734C17.6029 4.76582 17.9076 4.90633 18.0977 5.17009C18.3336 5.49746 18.3336 5.9323 18.3336 6.80197Z" fill="#7D52F4"/>
<path d="M1.66699 6.80197L1.66699 6.86241C1.66701 7.5797 1.66702 7.93834 1.83968 8.23177C2.01234 8.52519 2.32585 8.69937 2.95287 9.04772L3.61433 9.41521C3.15872 7.87503 3.00672 6.2202 2.95053 4.805C2.94813 4.74432 2.94541 4.6829 2.94267 4.62083L2.94075 4.57724C2.39783 4.76577 2.09304 4.90628 1.90291 5.17009C1.66696 5.49746 1.66697 5.9323 1.66699 6.80197Z" fill="#7D52F4"/>
<path fill-rule="evenodd" clip-rule="evenodd" d="M13.6479 1.95564C12.7112 1.79759 11.4867 1.66669 10.0005 1.66669C8.51417 1.66669 7.28969 1.79759 6.35297 1.95564C5.40403 2.11575 4.92956 2.1958 4.53313 2.68405C4.1367 3.17229 4.15765 3.7 4.19955 4.75541C4.3434 8.37866 5.12529 12.9042 9.37533 13.3047V16.25H8.1835C7.78626 16.25 7.44425 16.5304 7.36635 16.9199L7.20866 17.7084H5.00033C4.65515 17.7084 4.37533 17.9882 4.37533 18.3334C4.37533 18.6785 4.65515 18.9584 5.00033 18.9584H15.0003C15.3455 18.9584 15.6253 18.6785 15.6253 18.3334C15.6253 17.9882 15.3455 17.7084 15.0003 17.7084H12.792L12.6343 16.9199C12.5564 16.5304 12.2144 16.25 11.8172 16.25H10.6253V13.3048C14.8756 12.9044 15.6575 8.37874 15.8014 4.75541C15.8433 3.7 15.8642 3.17229 15.4678 2.68405C15.0713 2.1958 14.5969 2.11575 13.6479 1.95564Z" fill="#7D52F4"/>
</svg>
