<svg width="100" height="112" viewBox="0 0 100 112" fill="none" xmlns="http://www.w3.org/2000/svg">
<g clip-path="url(#clip0_2_1222)">
<path d="M81.21 47.4377V108.88L91.7764 103.761V41.2837L81.21 47.4377Z" fill="black"/>
<path d="M76.3862 50.2319L96.269 38.6663L36.9526 4.24299C31.3666 0.999935 24.726 0.00357479 18.476 1.66418C18.3002 1.72278 18.1049 1.76186 17.9096 1.82047C17.9096 1.82047 10.976 4.12577 11.2104 9.16618C11.2885 11.0026 12.3627 12.6437 13.9448 13.5619L76.3862 50.2319Z" fill="#00DC35"/>
<path d="M76.3867 50.3487C76.3671 50.3487 76.3476 50.3487 76.3281 50.3291L13.9062 13.6592C12.246 12.6823 11.1913 11.0022 11.1132 9.16578C10.8788 4.0863 17.832 1.74192 17.8906 1.70285C18.0859 1.64424 18.2617 1.58563 18.457 1.54656C24.6093 -0.0945066 31.3671 0.862781 37.0117 4.14491L96.3281 38.5877C96.3671 38.6073 96.3867 38.6463 96.3867 38.6854C96.3867 38.7245 96.3671 38.7635 96.3281 38.7831L76.4452 50.3487C76.4257 50.3487 76.4062 50.3487 76.3867 50.3487ZM24.5312 0.999536C22.4999 0.999536 20.4882 1.25351 18.5156 1.781C18.3398 1.8396 18.1445 1.87868 17.9687 1.93729C17.8906 1.93729 11.1132 4.24259 11.3281 9.14625C11.4062 10.9045 12.4218 12.5261 14.0038 13.4638L76.3671 50.1142L96.0546 38.6659L36.8945 4.34027C33.1054 2.13265 28.8085 0.999536 24.5312 0.999536Z" fill="black"/>
<path d="M91.7767 41.2832L30.9368 5.82449C30.9368 5.82449 25.8001 2.9331 20.2337 5.96125C19.4134 6.41059 18.7689 7.15298 18.515 8.05165C18.222 9.10662 18.3978 10.5328 20.4876 11.8027L81.1907 47.4372L91.7767 41.2832Z" fill="black"/>
<path d="M85.273 106.086L88.0464 104.719C88.0464 104.719 89.2183 103.918 89.2769 101.28V48.6879C89.2769 48.6879 89.2769 48.4925 89.2573 48.1409C88.9253 43.4521 86.269 39.2322 82.2065 36.8488L31.4839 7.17288C31.4839 7.17288 29.4136 6.11791 27.812 6.99705L25.4878 8.50136L85.273 106.086Z" fill="white"/>
<path d="M85.2733 106.204C85.2342 106.204 85.1951 106.184 85.1756 106.145L25.3904 8.57975C25.3514 8.52114 25.3709 8.46253 25.4295 8.42346L27.7537 6.91915C29.3943 6.00093 31.4451 7.03637 31.5428 7.07544L82.2459 36.7514C86.367 39.1543 89.0233 43.4133 89.3553 48.1411C89.3748 48.4928 89.3748 48.6881 89.3748 48.6881V101.28C89.3162 103.957 88.1443 104.777 88.1053 104.816L85.3123 106.184C85.3123 106.204 85.2928 106.204 85.2733 106.204ZM25.6443 8.54068L85.3123 105.93L87.9881 104.621C87.9881 104.621 89.1014 103.82 89.1404 101.28V48.6881C89.1404 48.6881 89.1404 48.4928 89.1209 48.1411C88.7889 43.4914 86.1717 39.3106 82.1287 36.9272L31.4256 7.27081C31.4061 7.27081 29.3943 6.25491 27.8709 7.11451L25.6443 8.54068Z" fill="black"/>
<path d="M31.2691 9.67378L81.6402 39.4669C81.6402 39.4669 86.0738 42.6123 86.523 47.5159V102.101C86.523 102.101 86.9722 105.754 84.4722 106.516C83.691 106.751 82.8316 106.594 82.1285 106.184L28.3785 74.9256C28.3785 74.9256 24.355 72.4836 24.355 65.5481V11.6079C24.355 11.6079 23.8472 8.59927 26.5621 8.14993C27.4605 7.99364 28.3785 8.189 29.1988 8.57973C29.7261 8.79464 30.4683 9.18536 31.2691 9.67378Z" fill="#9FE870"/>
<path d="M83.7105 106.731C83.1636 106.731 82.5972 106.575 82.0699 106.262L28.3199 75.004C28.2808 74.9845 27.2847 74.3593 26.2691 72.8746C25.3511 71.507 24.2378 69.1235 24.2378 65.5093V11.5886C24.2378 11.5691 23.7496 8.48232 26.5425 8.01345C27.4214 7.87669 28.3589 8.01345 29.2379 8.44325C29.941 8.77537 30.6441 9.1661 31.3277 9.57636L81.6793 39.3695C81.7379 39.4086 86.1714 42.6125 86.6207 47.4967V102.082C86.6207 102.101 87.0504 105.813 84.4918 106.614C84.2574 106.692 83.9839 106.731 83.7105 106.731ZM27.2066 8.16974C26.9918 8.16974 26.7964 8.18927 26.5816 8.22835C24.023 8.65815 24.4527 11.4519 24.4722 11.5691V65.5093C24.4722 69.0649 25.5464 71.3898 26.4644 72.7378C27.441 74.1835 28.4371 74.8087 28.4566 74.8087L82.2066 106.067C82.9293 106.497 83.7496 106.614 84.4722 106.399C86.855 105.676 86.4449 102.14 86.4449 102.101V47.5162C85.9957 42.7493 81.6402 39.6039 81.6011 39.5649L31.23 9.77173C30.566 9.381 29.8433 8.99027 29.1597 8.65815C28.4957 8.34557 27.8316 8.16974 27.2066 8.16974Z" fill="black"/>
<path d="M81.2114 108.159L83.9849 106.791C83.9849 106.791 85.1567 105.99 85.2153 103.353V50.7605C85.2153 50.7605 85.2153 50.5651 85.1958 50.2134C84.8638 45.5247 82.2075 41.3048 78.145 38.9214L27.4224 9.24545C27.4224 9.24545 25.3521 8.19048 23.7505 9.06962L21.4263 10.5739L81.2114 108.159Z" fill="white"/>
<path d="M81.2112 108.276C81.1722 108.276 81.1331 108.256 81.1136 108.217L21.3284 10.6326C21.2894 10.574 21.3089 10.5154 21.3675 10.4763L23.6917 8.97197C25.3323 8.05376 27.3831 9.08919 27.4808 9.12827L78.1839 38.8042C82.305 41.2072 84.9612 45.4661 85.2933 50.1939C85.3128 50.5456 85.3128 50.741 85.3128 50.741V103.333C85.2542 106.01 84.0823 106.83 84.0433 106.869L81.2503 108.237C81.2308 108.256 81.2308 108.276 81.2112 108.276ZM21.5823 10.613L81.2503 108.002L83.9261 106.693C83.9261 106.693 85.0394 105.892 85.0784 103.353V50.7605C85.0784 50.7605 85.0784 50.5651 85.0589 50.2135C84.7269 45.5638 82.1097 41.383 78.0667 38.9995L27.3636 9.34317C27.3441 9.34317 25.3323 8.32727 23.8089 9.18688L21.5823 10.613Z" fill="black"/>
<path d="M27.2071 11.7265L77.5586 41.5197C77.5586 41.5197 81.9922 44.6651 82.4415 49.5687V104.154C82.4415 104.154 82.8907 107.807 80.3907 108.569C79.6094 108.803 78.75 108.647 78.0469 108.237L24.2969 76.9588C24.2969 76.9588 20.2735 74.5168 20.2735 67.5813V13.6411C20.2735 13.6411 19.7657 10.6325 22.4805 10.1832C23.3789 10.0269 24.2969 10.2222 25.1172 10.613C25.6641 10.8669 26.3868 11.2381 27.2071 11.7265Z" fill="#9FE870"/>
<path d="M79.629 108.784C79.0821 108.784 78.5157 108.628 77.9883 108.315L24.2383 77.057C24.1993 77.0374 23.2032 76.4123 22.1876 74.9275C21.2696 73.5599 20.1563 71.1765 20.1563 67.5622V13.6416C20.1563 13.622 19.668 10.5353 22.461 10.0664C23.3399 9.92964 24.2774 10.0664 25.1563 10.4962C25.6446 10.7306 26.4063 11.1214 27.2462 11.6293L77.5977 41.4224C77.6563 41.4615 82.0899 44.6655 82.5391 49.5496V104.135C82.5391 104.154 82.9688 107.866 80.4102 108.667C80.1758 108.745 79.9024 108.784 79.629 108.784ZM23.1251 10.2422C22.9102 10.2422 22.7149 10.2618 22.5001 10.3008C19.9415 10.7306 20.3712 13.5244 20.3907 13.6416V67.5818C20.3907 71.1374 21.4649 73.4623 22.3829 74.8103C23.3594 76.256 24.3555 76.8811 24.3751 76.8811L78.1251 108.14C78.8477 108.569 79.668 108.687 80.3907 108.472C82.7735 107.749 82.3633 104.213 82.3633 104.174V49.5887C81.9141 44.8218 77.5587 41.6764 77.5196 41.6373L27.1485 11.8247C26.3087 11.3167 25.5665 10.9455 25.0782 10.7111C24.4337 10.3985 23.7696 10.2422 23.1251 10.2422Z" fill="black"/>
<path d="M11.3472 9.94733V71.2919C11.3472 71.2919 11.4839 75.0624 14.355 76.8402C17.2261 78.6181 72.9097 110.873 72.9097 110.873C72.9097 110.873 75.7808 111.967 76.4644 108.001C77.148 104.035 76.4644 52.0289 76.4644 52.0289C76.4644 52.0289 76.7378 47.9262 72.3628 45.4646C67.9878 43.0031 11.3472 9.94733 11.3472 9.94733Z" fill="#00DC35"/>
<path d="M73.7881 111.127C73.2803 111.127 72.9092 110.99 72.8896 110.971C72.3037 110.658 17.1475 78.7158 14.3154 76.9575C11.4248 75.1601 11.249 71.3701 11.249 71.331V9.96692C11.249 9.92785 11.2686 9.88877 11.3076 9.86924C11.3467 9.8497 11.3857 9.8497 11.4248 9.86924C11.9912 10.2014 68.1045 42.9445 72.4404 45.3866C74.7256 46.676 75.7412 48.4147 76.1904 49.6455C76.6787 50.9935 76.6006 52.0094 76.6006 52.0485C76.6006 52.5564 77.2842 104.094 76.6006 108.021C76.3662 109.408 75.8193 110.345 75.0186 110.814C74.5889 111.068 74.1396 111.127 73.7881 111.127ZM72.9678 110.775C72.9678 110.775 73.9639 111.146 74.8818 110.619C75.624 110.189 76.1318 109.31 76.3467 107.981C77.0303 104.074 76.3467 52.5564 76.3467 52.029C76.3467 51.9703 76.5615 47.9458 72.3037 45.5624C68.085 43.1985 14.8818 12.155 11.4639 10.1427V71.2919C11.4639 71.331 11.6396 75.0039 14.4131 76.7426C17.2646 78.5204 72.4209 110.463 72.9678 110.775Z" fill="black"/>
<path d="M2.18604 93.2881C2.18604 93.2881 2.96729 99.3834 21.0337 99.3053C22.0884 99.3053 23.1431 99.2467 24.1782 99.1099C28.0454 98.6606 37.147 97.1563 38.5923 93.0732L38.5142 88.8728C38.5142 88.8728 36.4048 95.7692 19.8813 95.8864C19.8813 95.8864 3.68994 96.0622 1.99072 89.3417L2.18604 93.2881Z" fill="#FFEB69"/>
<path d="M20.7412 99.4231C15.6045 99.4231 8.78809 98.8956 4.78418 96.4145C2.30371 94.8907 2.08887 93.3668 2.08887 93.2887L1.89355 89.3423C1.89355 89.2837 1.93262 89.2251 1.99121 89.2251C2.0498 89.2251 2.1084 89.2446 2.1084 89.3032C3.76855 95.8675 19.7256 95.7698 19.8818 95.7698C36.1318 95.6526 38.3975 88.9125 38.417 88.8343C38.4365 88.7757 38.4951 88.7562 38.5342 88.7562C38.5928 88.7562 38.6318 88.8148 38.6318 88.8734L38.71 93.0738C38.71 93.0933 38.71 93.0933 38.71 93.1128C37.2451 97.2546 28.085 98.7784 24.1982 99.2277C23.1631 99.345 22.0889 99.4231 21.0342 99.4231C20.9365 99.4231 20.8389 99.4231 20.7412 99.4231ZM2.30371 93.2691C2.32324 93.445 3.49512 99.2668 21.0342 99.1887C22.0889 99.1887 23.1436 99.1301 24.1787 98.9933C28.0068 98.544 37.0498 97.0592 38.4951 93.0542L38.417 89.3814C38.085 90.0261 37.2646 91.2178 35.4678 92.4291C31.1514 95.3205 24.6084 95.9652 19.8818 95.9847C19.8428 95.9847 15.7803 96.0238 11.5615 95.2228C6.38574 94.2459 3.22168 92.5267 2.14746 90.1042L2.30371 93.2691Z" fill="black"/>
<path d="M20.3371 95.9035C30.4218 95.7784 38.5593 92.6335 38.5127 88.879C38.4662 85.1246 30.2532 82.1824 20.1686 82.3075C10.0839 82.4325 1.94641 85.5775 1.99295 89.3319C2.03948 93.0863 10.2524 96.0285 20.3371 95.9035Z" fill="#FFEB69"/>
<path d="M19.7062 96.0239C15.0578 96.0239 10.6828 95.3792 7.36244 94.1874C3.84682 92.9371 1.91323 91.2179 1.87416 89.3424C1.8351 85.5328 10.0187 82.3288 20.1554 82.2116C25.0382 82.153 29.6476 82.7977 33.1242 84.048C36.6398 85.2983 38.5734 87.0175 38.6124 88.8931C38.6515 92.7027 30.4679 95.9066 20.3312 96.0239C20.1164 96.0239 19.921 96.0239 19.7062 96.0239ZM20.7804 82.4265C20.5656 82.4265 20.3703 82.4265 20.1554 82.4265C10.1554 82.5437 2.04994 85.65 2.08901 89.3228C2.10854 91.0811 4.00307 92.7222 7.42104 93.953C10.8781 95.1838 15.4484 95.8285 20.3117 95.7699C30.3117 95.6527 38.4171 92.5464 38.3781 88.8735C38.3585 87.1152 36.464 85.4742 33.046 84.2434C29.7453 83.0712 25.4093 82.4265 20.7804 82.4265Z" fill="black"/>
<path d="M20.3202 94.4968C28.334 94.3975 34.8005 91.903 34.7636 88.9254C34.7267 85.9477 28.2003 83.6144 20.1865 83.7138C12.1727 83.8132 5.70619 86.3076 5.74309 89.2853C5.78 92.2629 12.3064 94.5962 20.3202 94.4968Z" fill="#FFEB69"/>
<path d="M19.8239 94.6173C11.9919 94.6173 5.66375 92.2534 5.62469 89.2838C5.58562 86.2361 12.1091 83.6964 20.1755 83.5987C28.2419 83.501 34.8239 85.8845 34.863 88.9322C34.8825 90.417 33.3591 91.8431 30.5856 92.9176C27.8512 93.9726 24.1989 94.5782 20.3122 94.6368C20.1559 94.6173 19.9802 94.6173 19.8239 94.6173ZM20.1755 83.8332C12.2458 83.9308 5.80047 86.3924 5.83953 89.3034C5.87859 92.2143 12.363 94.5196 20.2927 94.4024C24.1598 94.3633 27.7731 93.7577 30.488 92.7027C33.1637 91.6673 34.6286 90.3388 34.6091 88.9322C34.6091 86.0212 28.1247 83.7355 20.1755 83.8332Z" fill="black"/>
<path d="M34.7451 88.9329C34.7451 88.9329 30.8389 84.4786 18.6709 85.0452C18.6709 85.0452 7.75291 85.6899 5.81932 89.8316C5.81932 89.8316 5.3701 88.4836 6.83494 87.1942C6.83494 87.1942 13.2607 81.6849 27.6943 84.4005C27.6943 84.4005 34.2763 85.3773 34.7451 88.9329Z" fill="black"/>
<path d="M1.50342 88.0736C1.50342 88.0736 2.28467 94.1689 20.3511 94.0908C21.4058 94.0908 22.4604 94.0322 23.4956 93.8954C27.3628 93.4461 36.4644 91.9418 37.9097 87.8587L37.8315 83.6583C37.8315 83.6583 35.7222 90.5547 19.1987 90.6719C19.1987 90.6719 3.00732 90.8477 1.30811 84.1272L1.50342 88.0736Z" fill="#FFEB69"/>
<path d="M20.0581 94.2072C14.9214 94.2072 8.10498 93.6797 4.10107 91.1986C1.62061 89.6747 1.40576 88.1509 1.40576 88.0727L1.21045 84.1264C1.21045 84.0678 1.24951 84.0092 1.30811 84.0092C1.3667 84.0092 1.42529 84.0287 1.42529 84.0873C3.08545 90.6516 19.0425 90.5539 19.1987 90.5539C35.4487 90.4367 37.7144 83.6966 37.7339 83.6184C37.7534 83.5598 37.812 83.5403 37.8511 83.5403C37.9097 83.5403 37.9487 83.5989 37.9487 83.6575L38.0269 87.8578C38.0269 87.8774 38.0269 87.8774 38.0269 87.8969C36.562 92.0387 27.4019 93.5625 23.5151 94.0118C22.48 94.1291 21.4058 94.2072 20.3511 94.2072C20.2534 94.2072 20.1558 94.2072 20.0581 94.2072ZM1.62061 88.0532C1.64014 88.229 2.79248 93.9728 20.0386 93.9728C20.1362 93.9728 20.2534 93.9728 20.3511 93.9728C21.4058 93.9728 22.4605 93.9142 23.4956 93.7774C27.3237 93.3281 36.3667 91.8433 37.812 87.8383L37.7339 84.1654C37.4019 84.8102 36.5815 86.0019 34.7847 87.2131C30.4683 90.1045 23.9253 90.7492 19.1987 90.7688C19.1597 90.7688 15.0972 90.8078 10.8784 90.0069C5.70264 89.03 2.53857 87.3108 1.46436 84.8883L1.62061 88.0532Z" fill="black"/>
<path d="M19.6535 90.6894C29.7382 90.5644 37.8757 87.4194 37.8291 83.665C37.7826 79.9105 29.5696 76.9683 19.485 77.0934C9.40033 77.2184 1.26282 80.3634 1.30935 84.1178C1.35589 87.8723 9.56884 90.8145 19.6535 90.6894Z" fill="#FFEB69"/>
<path d="M19.0226 90.8098C14.3742 90.8098 9.99916 90.1651 6.67885 88.9734C3.16323 87.723 1.22963 86.0038 1.19057 84.1283C1.15151 80.3187 9.3351 77.1147 19.4718 76.9975C24.3546 76.9389 28.964 77.5836 32.4406 78.8339C35.9562 80.0843 37.8898 81.8035 37.9289 83.679C37.9679 87.4886 29.7843 90.6926 19.6476 90.8098C19.4328 90.8098 19.2374 90.8098 19.0226 90.8098ZM20.0968 77.2124C19.882 77.2124 19.6867 77.2124 19.4718 77.2124C9.47182 77.3492 1.38588 80.4359 1.42494 84.1283C1.44448 85.8866 3.33901 87.5277 6.75698 88.7585C10.214 89.9893 14.7843 90.634 19.6476 90.5754C29.6476 90.4581 37.7531 87.3518 37.714 83.679C37.6945 81.9207 35.7999 80.2796 32.382 79.0488C29.0617 77.8571 24.7257 77.2124 20.0968 77.2124Z" fill="black"/>
<path d="M19.6356 89.2829C27.6494 89.1835 34.116 86.6891 34.0791 83.7114C34.0422 80.7337 27.5158 78.4004 19.502 78.4998C11.4882 78.5992 5.02162 81.0936 5.05852 84.0713C5.09543 87.0489 11.6218 89.3822 19.6356 89.2829Z" fill="#FFEB69"/>
<path d="M19.1398 89.4217C11.3078 89.4217 4.97967 87.0578 4.9406 84.0883C4.90154 81.0406 11.425 78.5008 19.4914 78.4032C23.3781 78.3445 27.05 78.872 29.8039 79.8684C32.5969 80.8647 34.1594 82.2518 34.1789 83.7366C34.1984 85.2214 32.675 86.6475 29.9015 87.7221C27.1672 88.777 23.5148 89.3827 19.6281 89.4413C19.4719 89.4217 19.2961 89.4217 19.1398 89.4217ZM19.9992 78.6181C19.8429 78.6181 19.6672 78.6181 19.5109 78.6181C11.5812 78.7157 5.13592 81.1773 5.17498 84.0883C5.21404 86.9992 11.6984 89.3045 19.6281 89.1873C23.4953 89.1482 27.1086 88.5426 29.8234 87.4876C32.4992 86.4522 33.964 85.1237 33.9445 83.7171C33.925 82.33 32.4211 81.021 29.7258 80.0638C27.1086 79.126 23.6711 78.6181 19.9992 78.6181Z" fill="black"/>
<path d="M34.062 83.7166C34.062 83.7166 30.1557 79.2623 17.9878 79.8288C17.9878 79.8288 7.06981 80.4736 5.13621 84.6153C5.13621 84.6153 4.68699 83.2673 6.15184 81.9779C6.15184 81.9779 12.5776 76.4686 27.0112 79.1841C27.0112 79.1841 33.5932 80.161 34.062 83.7166Z" fill="black"/>
<path d="M2.18604 82.8581C2.18604 82.8581 2.96729 88.9534 21.0337 88.8753C22.0884 88.8753 23.1431 88.8167 24.1782 88.6799C28.0454 88.2306 37.147 86.7263 38.5923 82.6432L38.5142 78.4428C38.5142 78.4428 36.4048 85.3392 19.8813 85.4564C19.8813 85.4564 3.68994 85.6322 1.99072 78.9117L2.18604 82.8581Z" fill="#FFEB69"/>
<path d="M20.7412 88.9917C15.6045 88.9917 8.78809 88.4642 4.78418 85.9831C2.30371 84.4592 2.08887 82.9354 2.08887 82.8572L1.89355 78.9109C1.89355 78.8523 1.93262 78.7936 1.99121 78.7936C2.0498 78.7936 2.1084 78.8132 2.1084 78.8718C3.76855 85.436 19.7256 85.3384 19.8818 85.3384C36.1318 85.2211 38.3975 78.4811 38.417 78.4029C38.4365 78.3443 38.4756 78.3248 38.5342 78.3248C38.5928 78.3248 38.6318 78.3834 38.6318 78.442L38.71 82.6423C38.71 82.6619 38.71 82.6619 38.71 82.6814C37.2451 86.8231 28.085 88.347 24.1982 88.7963C23.1631 88.9135 22.0889 88.9917 21.0342 88.9917C20.9365 88.9917 20.8389 88.9917 20.7412 88.9917ZM2.30371 82.8572C2.32324 83.0331 3.49512 88.8354 21.0342 88.7768C22.0889 88.7768 23.1436 88.7182 24.1787 88.5814C28.0068 88.1321 37.0498 86.6473 38.4951 82.6423L38.417 78.9695C38.085 79.6142 37.2646 80.8059 35.4678 82.0172C31.1514 84.9086 24.6084 85.5533 19.8818 85.5728C19.8428 85.5728 15.7803 85.6119 11.5615 84.8109C6.38574 83.8341 3.22168 82.1148 2.14746 79.6923L2.30371 82.8572Z" fill="black"/>
<path d="M20.3371 85.4918C30.4218 85.3667 38.5593 82.2217 38.5127 78.4673C38.4662 74.7129 30.2532 71.7707 20.1686 71.8957C10.0839 72.0208 1.94641 75.1657 1.99295 78.9202C2.03948 82.6746 10.2524 85.6168 20.3371 85.4918Z" fill="#FFEB69"/>
<path d="M19.7062 85.5925C15.0578 85.5925 10.6828 84.9477 7.36244 83.756C3.84682 82.5057 1.91323 80.7865 1.87416 78.911C1.8351 75.1014 10.0187 71.8974 20.1554 71.7802C25.0382 71.7216 29.6476 72.3663 33.1242 73.6166C36.6398 74.8669 38.5734 76.5861 38.6124 78.4616C38.6515 82.2713 30.4679 85.4752 20.3312 85.5925C20.1164 85.5925 19.921 85.5925 19.7062 85.5925ZM20.1554 71.8974V72.0146C10.1554 72.1318 2.06948 75.2381 2.10854 78.911C2.12807 80.6693 4.0226 82.3103 7.44057 83.5411C10.8976 84.7719 15.4679 85.4166 20.3312 85.358C30.3312 85.2408 38.4367 82.1345 38.3976 78.4616C38.3781 76.7034 36.4835 75.0623 33.0656 73.8315C29.6085 72.6007 25.0382 71.956 20.1749 72.0146L20.1554 71.8974Z" fill="black"/>
<path d="M20.3202 84.0852C28.334 83.9858 34.8005 81.4914 34.7636 78.5137C34.7267 75.5361 28.2003 73.2028 20.1865 73.3021C12.1727 73.4015 5.70619 75.896 5.74309 78.8736C5.78 81.8513 12.3064 84.1846 20.3202 84.0852Z" fill="#FFEB69"/>
<path d="M19.8239 84.2058C11.9919 84.2058 5.66375 81.8419 5.62469 78.8723C5.58562 75.8246 12.1091 73.2849 20.1755 73.1872C24.0622 73.1286 27.7341 73.6561 30.488 74.6524C33.2809 75.6488 34.8434 77.0359 34.863 78.5207C34.8825 80.0054 33.3591 81.4316 30.5856 82.5061C27.8512 83.5611 24.1989 84.1667 20.3122 84.2253C20.1559 84.2058 19.9802 84.2058 19.8239 84.2058ZM20.6833 73.4021C20.527 73.4021 20.3512 73.4021 20.195 73.4021C12.2653 73.4998 5.82 75.9614 5.85906 78.8723C5.89812 81.7833 12.3825 84.0886 20.3122 83.9713C24.1794 83.9323 27.7927 83.3266 30.5075 82.2717C33.1833 81.2362 34.6481 79.9078 34.6286 78.5011C34.6091 77.114 33.1052 75.8051 30.4098 74.8478C27.7927 73.9101 24.3552 73.4021 20.6833 73.4021Z" fill="black"/>
<path d="M34.7451 78.5001C34.7451 78.5001 30.8389 74.0458 18.6709 74.6124C18.6709 74.6124 7.75291 75.2571 5.81932 79.3988C5.81932 79.3988 5.3701 78.0508 6.83494 76.7614C6.83494 76.7614 13.2607 71.2521 27.6943 73.9677C27.6943 73.9677 34.2763 74.9445 34.7451 78.5001Z" fill="black"/>
<path d="M0.312012 77.6402C0.312012 77.6402 1.09326 83.7356 19.1597 83.6575C20.2144 83.6575 21.269 83.5988 22.3042 83.4621C26.1714 83.0127 35.2729 81.5084 36.7183 77.4253L36.6401 73.225C36.6401 73.225 34.5308 80.1214 18.0073 80.2386C18.0073 80.2386 1.81592 80.4144 0.116699 73.6938L0.312012 77.6402Z" fill="#FFEB69"/>
<path d="M18.8472 83.7935C13.7104 83.7935 6.89404 83.2661 2.89014 80.7849C0.429199 79.2611 0.214355 77.7372 0.194824 77.6591L-0.000488281 73.7127C-0.000488281 73.6541 0.0385742 73.5955 0.097168 73.5955C0.155762 73.5955 0.214355 73.615 0.214355 73.6736C1.87451 80.2379 17.8315 80.1402 17.9878 80.1402C34.2378 80.023 36.5034 73.2829 36.5229 73.2048C36.5425 73.1462 36.5815 73.1266 36.6401 73.1266C36.6987 73.1266 36.7378 73.1852 36.7378 73.2438L36.8159 77.4442C36.8159 77.4637 36.8159 77.4637 36.8159 77.4833C35.3511 81.625 26.1909 83.1488 22.3042 83.5982C21.269 83.7154 20.1948 83.7935 19.1401 83.7935C19.062 83.7935 18.9644 83.7935 18.8472 83.7935ZM0.429199 77.6395C0.44873 77.8154 1.6206 83.6372 19.1597 83.5591C20.2144 83.5591 21.269 83.5005 22.3042 83.3637C26.1323 82.9144 35.1753 81.4296 36.6206 77.4246L36.5425 73.7518C36.2104 74.3965 35.3901 75.5882 33.5933 76.7995C29.2769 79.6909 22.7339 80.3356 18.0073 80.3551C17.9683 80.3551 13.9058 80.3942 9.68701 79.5932C4.51123 78.6164 1.34717 76.8972 0.272949 74.4746L0.429199 77.6395Z" fill="black"/>
<path d="M18.4426 80.2738C28.5272 80.1487 36.6647 77.0038 36.6182 73.2494C36.5717 69.4949 28.3587 66.5527 18.2741 66.6778C8.18939 66.8028 0.0518824 69.9478 0.0984151 73.7022C0.144948 77.4567 8.3579 80.3989 18.4426 80.2738Z" fill="#FFEB69"/>
<path d="M17.8312 80.3745C13.1828 80.3745 8.80776 79.7298 5.48744 78.5381C1.97182 77.2877 0.0382252 75.5685 -0.000837301 73.693C-0.0398998 69.8834 8.14369 66.6794 18.2804 66.5622C23.1632 66.5036 27.7726 67.1483 31.2492 68.3986C34.7648 69.649 36.6984 71.3682 36.7374 73.2437C36.7765 77.0533 28.5929 80.2573 18.4562 80.3745C18.2414 80.3745 18.0265 80.3745 17.8312 80.3745ZM18.9054 66.7966C18.6906 66.7966 18.4953 66.7966 18.2804 66.7966C8.28041 66.9139 0.174944 70.0202 0.214006 73.693C0.233538 75.4513 2.12807 77.0924 5.54604 78.3232C9.00307 79.554 13.5734 80.1987 18.4367 80.1401C28.4367 80.0228 36.5421 76.9165 36.5031 73.2437C36.4835 71.4854 34.589 69.8443 31.171 68.6135C27.8703 67.4413 23.5343 66.7966 18.9054 66.7966Z" fill="black"/>
<path d="M18.4257 78.8692C26.4395 78.7698 32.906 76.2754 32.8691 73.2977C32.8322 70.3201 26.3058 67.9868 18.292 68.0861C10.2782 68.1855 3.81166 70.68 3.84856 73.6576C3.88547 76.6353 10.4119 78.9686 18.4257 78.8692Z" fill="#FFEB69"/>
<path d="M17.9294 78.9896C14.2184 78.9896 10.7614 78.4816 8.10517 77.5243C5.3122 76.528 3.7497 75.1409 3.73017 73.6561C3.71063 72.1713 5.23407 70.7452 8.00751 69.6707C10.7419 68.6157 14.3942 68.0101 18.2809 67.9514C26.3474 67.8538 32.9294 70.2372 32.9684 73.2849C33.0075 76.3326 26.4841 78.8723 18.4177 78.97C18.2614 78.9896 18.1052 78.9896 17.9294 78.9896ZM18.3005 68.1859C14.4333 68.225 10.82 68.8306 8.10517 69.8856C5.42938 70.921 3.96454 72.2495 3.98407 73.6561C4.0036 75.0627 5.50751 76.3521 8.20282 77.3094C10.9372 78.2862 14.5895 78.8137 18.4372 78.7551C26.3669 78.6574 32.8122 76.1958 32.7731 73.2849C32.7341 70.374 26.2302 68.0882 18.3005 68.1859Z" fill="black"/>
<path d="M32.8706 73.3028C32.8706 73.3028 28.9643 68.8485 16.7964 69.4151C16.7964 69.4151 5.8784 70.0598 3.94481 74.2015C3.94481 74.2015 3.49559 72.8535 4.96043 71.5641C4.96043 71.5641 11.3862 66.0548 25.8198 68.7704C25.8198 68.7704 32.3823 69.7276 32.8706 73.3028Z" fill="black"/>
<path d="M2.18652 72.4423C2.18652 72.4423 2.96777 78.5377 21.0342 78.4596C22.0889 78.4596 23.1436 78.401 24.1787 78.2642C28.0459 77.8149 37.1475 76.3106 38.5928 72.2274L38.5146 68.0271C38.5146 68.0271 36.4053 74.9235 19.8818 75.0407C19.8818 75.0407 3.69043 75.2165 1.99121 68.496L2.18652 72.4423Z" fill="#FFEB69"/>
<path d="M20.7417 78.5774C15.605 78.5774 8.78857 78.0499 4.78467 75.5688C2.3042 74.0449 2.08936 72.5211 2.08936 72.4429L1.89404 68.4966C1.89404 68.4379 1.93311 68.3793 1.9917 68.3793C2.05029 68.3793 2.10889 68.3989 2.10889 68.4575C3.76904 75.0217 19.7261 74.9241 19.8823 74.9241C36.1323 74.8068 38.3979 68.0668 38.4175 67.9886C38.437 67.93 38.4761 67.9105 38.5347 67.9105C38.5933 67.9105 38.6323 67.9691 38.6323 68.0277L38.7104 72.228C38.7104 72.2476 38.7104 72.2476 38.7104 72.2671C37.2456 76.4088 28.0854 77.9327 24.1987 78.382C23.1636 78.4992 22.0894 78.5774 21.0347 78.5774C20.937 78.5774 20.8394 78.5774 20.7417 78.5774ZM2.3042 72.4234C2.32373 72.5992 3.4956 78.4211 21.0347 78.3429C22.0894 78.3429 23.144 78.2843 24.1792 78.1476C28.0073 77.6982 37.0503 76.2135 38.4956 72.2085L38.4175 68.5356C38.0854 69.1803 37.2651 70.3721 35.4683 71.5833C31.1519 74.4747 24.6089 75.1194 19.8823 75.139C19.8433 75.139 15.7808 75.178 11.562 74.377C6.38623 73.4002 3.22217 71.681 2.14795 69.2585L2.3042 72.4234Z" fill="black"/>
<path d="M20.3371 75.0596C30.4218 74.9345 38.5593 71.7896 38.5127 68.0351C38.4662 64.2807 30.2532 61.3385 20.1686 61.4636C10.0839 61.5886 1.94641 64.7336 1.99295 68.488C2.03948 72.2425 10.2524 75.1846 20.3371 75.0596Z" fill="#FFEB69"/>
<path d="M19.7067 75.18C15.0582 75.18 10.6832 74.5353 7.36293 73.3435C3.84731 72.0932 1.91371 70.374 1.87465 68.4985C1.83559 64.6889 10.0192 61.4849 20.1559 61.3677C25.0387 61.3091 29.6481 61.9538 33.1247 63.2041C36.6403 64.4544 38.5739 66.1737 38.6129 68.0492C38.652 71.8588 30.4684 75.0628 20.3317 75.18C20.1168 75.18 19.9215 75.18 19.7067 75.18ZM20.7809 61.5826C20.5661 61.5826 20.3707 61.5826 20.1559 61.5826C10.1559 61.6998 2.05043 64.8061 2.08949 68.479C2.10903 70.2372 4.00356 71.8783 7.42153 73.1091C10.8786 74.3399 15.4489 74.9846 20.3122 74.926C30.3122 74.8088 38.4176 71.7025 38.3786 68.0296C38.359 66.2713 36.4645 64.6303 33.0465 63.3995C29.7457 62.2273 25.4098 61.5826 20.7809 61.5826Z" fill="black"/>
<path d="M20.3207 73.6531C28.3345 73.5537 34.801 71.0593 34.7641 68.0816C34.7272 65.104 28.2008 62.7706 20.187 62.87C12.1732 62.9694 5.70668 65.4638 5.74358 68.4415C5.78049 71.4191 12.3069 73.7525 20.3207 73.6531Z" fill="#FFEB69"/>
<path d="M19.8244 73.7722C11.9924 73.7722 5.66424 71.4083 5.62517 68.4388C5.58611 65.3911 12.1096 62.8513 20.176 62.7536C24.0627 62.695 27.7346 63.2225 30.4885 64.2189C33.2814 65.2152 34.8439 66.6023 34.8635 68.0871C34.883 69.5719 33.3595 70.998 30.5861 72.0725C27.8517 73.1275 24.1994 73.7331 20.3127 73.7918C20.1564 73.7722 19.9806 73.7722 19.8244 73.7722ZM20.6838 62.9685C20.5275 62.9685 20.3517 62.9685 20.1955 62.9685C12.2658 63.0662 5.82049 65.5278 5.85955 68.4388C5.89861 71.3497 12.383 73.655 20.3127 73.5378C24.1799 73.4987 27.7931 72.8931 30.508 71.8381C33.1838 70.8027 34.6486 69.4742 34.6291 68.0676C34.6095 66.6805 33.1056 65.3715 30.4103 64.4142C27.7931 63.4765 24.3556 62.9685 20.6838 62.9685Z" fill="black"/>
<path d="M34.7456 68.0871C34.7456 68.0871 30.8393 63.6328 18.6714 64.1993C18.6714 64.1993 7.7534 64.844 5.81981 68.9858C5.81981 68.9858 5.37059 67.6378 6.83543 66.3483C6.83543 66.3483 13.2612 60.8391 27.6948 63.5546C27.6948 63.5546 34.2768 64.5315 34.7456 68.0871Z" fill="black"/>
<path d="M2.18604 67.2065C2.18604 67.2065 2.96729 73.3019 21.0337 73.2238C22.0884 73.2238 23.1431 73.1652 24.1782 73.0284C28.0454 72.5791 37.147 71.0748 38.5923 66.9916L38.5142 62.7913C38.5142 62.7913 36.4048 69.6877 19.8813 69.8049C19.8813 69.8049 3.68994 69.9807 1.99072 63.2602L2.18604 67.2065Z" fill="#FFEB69"/>
<path d="M20.7412 73.3416C15.6045 73.3416 8.78809 72.8141 4.78418 70.333C2.30371 68.8092 2.08887 67.2853 2.08887 67.2072L1.89355 63.2608C1.89355 63.2022 1.93262 63.1436 1.99121 63.1436C2.0498 63.1436 2.1084 63.1631 2.1084 63.2217C3.76855 69.786 19.7256 69.6883 19.8818 69.6883C36.1318 69.5711 38.3975 62.831 38.417 62.7529C38.4365 62.6942 38.4951 62.6747 38.5342 62.6747C38.5928 62.6747 38.6318 62.7333 38.6318 62.7919L38.71 66.9923C38.71 67.0118 38.71 67.0118 38.71 67.0314C37.2451 71.1731 28.085 72.6969 24.1982 73.1463C23.1631 73.2635 22.0889 73.3416 21.0342 73.3416C20.9365 73.3416 20.8389 73.3416 20.7412 73.3416ZM2.30371 67.1876C2.32324 67.3635 3.49512 73.1853 21.0342 73.1072C22.0889 73.1072 23.1436 73.0486 24.1787 72.9118C28.0068 72.4625 37.0498 70.9777 38.4951 66.9727L38.417 63.2999C38.085 63.9446 37.2646 65.1363 35.4678 66.3476C31.1514 69.239 24.6084 69.8837 19.8818 69.9032C19.8428 69.9032 15.7803 69.9423 11.5615 69.1413C6.38574 68.1645 3.22168 66.4453 2.14746 64.0227L2.30371 67.1876Z" fill="black"/>
<path d="M20.3371 69.8218C30.4218 69.6968 38.5593 66.5518 38.5127 62.7974C38.4662 59.0429 30.2532 56.1007 20.1686 56.2258C10.0839 56.3509 1.94641 59.4958 1.99295 63.2503C2.03948 67.0047 10.2524 69.9469 20.3371 69.8218Z" fill="#FFEB69"/>
<path d="M19.7062 69.9422C15.0578 69.9422 10.6828 69.2975 7.36244 68.1058C3.84682 66.8555 1.91323 65.1362 1.87416 63.2607C1.8351 59.4511 10.0187 56.2471 20.1554 56.1299C25.0382 56.0713 29.6476 56.716 33.1242 57.9663C36.6398 59.2167 38.5734 60.9359 38.6124 62.8114C38.6515 66.621 30.4679 69.825 20.3312 69.9422C20.1164 69.9227 19.921 69.9422 19.7062 69.9422ZM20.7804 56.3448C20.5656 56.3448 20.3703 56.3448 20.1554 56.3448C10.1554 56.462 2.06948 59.5683 2.10854 63.2412C2.12807 64.9995 4.0226 66.6405 7.44057 67.8713C10.8976 69.1021 15.4679 69.7468 20.3312 69.6882C30.3312 69.571 38.4367 66.4647 38.3976 62.7919C38.3781 61.0336 36.4835 59.3925 33.0656 58.1617C29.7453 56.9895 25.4093 56.3448 20.7804 56.3448Z" fill="black"/>
<path d="M20.3202 68.4153C28.334 68.3159 34.8005 65.8215 34.7636 62.8438C34.7267 59.8662 28.2003 57.5329 20.1865 57.6322C12.1727 57.7316 5.70619 60.226 5.74309 63.2037C5.78 66.1814 12.3064 68.5147 20.3202 68.4153Z" fill="#FFEB69"/>
<path d="M19.8239 68.535C11.9919 68.535 5.66375 66.171 5.62469 63.2015C5.58562 60.1538 12.1091 57.6141 20.1755 57.5164C24.0622 57.4773 27.7341 57.9853 30.488 58.9816C33.2809 59.978 34.8434 61.3651 34.863 62.8498C34.8825 64.3346 33.3591 65.7608 30.5856 66.8353C27.8512 67.8903 24.1989 68.4959 20.3122 68.5545C20.1559 68.535 19.9802 68.535 19.8239 68.535ZM20.6833 57.7313C20.527 57.7313 20.3512 57.7313 20.195 57.7313C12.2653 57.829 5.82 60.2906 5.85906 63.2015C5.89812 66.1124 12.3825 68.3982 20.3122 68.3005C24.1794 68.2614 27.7927 67.6558 30.5075 66.6008C33.1833 65.5654 34.6481 64.2369 34.6286 62.8303C34.6091 61.4432 33.1052 60.1343 30.4098 59.177C27.7927 58.2392 24.3552 57.7313 20.6833 57.7313Z" fill="black"/>
<path d="M34.7456 62.8505C34.7456 62.8505 30.8393 58.3961 18.6714 58.9627C18.6714 58.9627 7.7534 59.6074 5.81981 63.7491C5.81981 63.7491 5.37059 62.4011 6.83543 61.1117C6.83543 61.1117 13.2612 55.6024 27.6948 58.318C27.6948 58.318 34.2768 59.2753 34.7456 62.8505Z" fill="black"/>
<path d="M1.48438 66.8752C1.48438 66.8752 3.78906 72.5799 21.25 67.9302C22.2656 67.6567 23.2813 67.3246 24.2578 66.9534C27.8906 65.5272 36.3086 61.7762 36.6797 57.4586L35.5469 53.4146C35.5469 53.4146 35.2539 60.6235 19.2969 64.9216C19.2969 64.9216 3.69141 69.2001 0.332031 63.1242L1.48438 66.8752Z" fill="#FFEB69"/>
<path d="M9.53059 69.8636C7.81184 69.8636 6.19074 69.6878 4.78449 69.258C1.99152 68.3984 1.38605 66.9722 1.36652 66.9136L0.175117 63.1431C0.155586 63.0845 0.194648 63.0259 0.233711 63.0063C0.292304 62.9868 0.350898 63.0063 0.370429 63.0649C3.65168 69.004 19.0618 64.8623 19.2181 64.8232C34.9017 60.6033 35.39 53.4921 35.39 53.4139C35.39 53.3553 35.429 53.3162 35.4876 53.3162C35.5462 53.3162 35.5853 53.3358 35.6048 53.3944L36.7376 57.4384C36.7376 57.458 36.7376 57.458 36.7376 57.4775C36.3665 61.8537 27.89 65.6437 24.2571 67.0699C23.2806 67.4606 22.265 67.7928 21.2493 68.0663C17.7923 68.9454 13.4173 69.8636 9.53059 69.8636ZM1.58137 66.8355C1.65949 66.9918 4.23762 72.3252 21.2103 67.8123C22.2259 67.5388 23.2415 67.2067 24.1986 66.8355C27.7923 65.4288 36.1517 61.6974 36.5423 57.458L35.5462 53.9219C35.39 54.6252 34.9017 55.9927 33.4564 57.6142C30.0189 61.502 23.847 63.7878 19.2962 65.0186C19.2571 65.0381 15.3314 66.0931 11.054 66.4057C5.80012 66.7769 2.30402 65.9172 0.643867 63.8268L1.58137 66.8355Z" fill="black"/>
<path d="M19.69 64.8116C29.4136 62.1342 36.4885 57.0291 35.4922 53.4091C34.496 49.789 25.8058 49.0249 16.0822 51.7024C6.3586 54.3798 -0.716297 59.485 0.279964 63.105C1.27623 66.725 9.96639 67.4891 19.69 64.8116Z" fill="#FFEB69"/>
<path d="M8.92547 66.5053C4.17937 66.5053 0.780936 65.3332 0.175467 63.1255C-0.840158 59.4527 6.28875 54.2755 16.0544 51.599C20.7614 50.3096 25.3903 49.7626 29.0622 50.0947C32.7731 50.4268 35.0973 51.599 35.5856 53.3964C36.0739 55.1937 34.6872 57.3818 31.6598 59.5699C28.6716 61.7384 24.4137 63.6335 19.7067 64.9424C15.82 65.9974 12.07 66.5053 8.92547 66.5053ZM16.113 51.8139C6.46453 54.4709 -0.586252 59.5308 0.390311 63.0865C1.36687 66.6421 9.99969 67.365 19.6481 64.708C24.3356 63.4186 28.5544 61.5235 31.5231 59.3745C34.4723 57.2451 35.82 55.1547 35.3513 53.455C34.8825 51.7553 32.6364 50.6417 29.0231 50.3291C25.3903 49.997 20.8005 50.5245 16.113 51.8139Z" fill="black"/>
<path d="M19.3169 63.4566C27.0438 61.3289 32.6671 57.2767 31.877 54.4056C31.0869 51.5346 24.1825 50.9319 16.4556 53.0596C8.72872 55.1872 3.10538 59.2395 3.89551 62.1105C4.68565 64.9816 11.5901 65.5842 19.3169 63.4566Z" fill="#FFEB69"/>
<path d="M10.7421 64.8455C10.1366 64.8455 9.55069 64.826 9.00382 64.7674C6.03507 64.5134 4.19913 63.5756 3.78898 62.13C3.39835 60.6843 4.51163 58.9455 6.91398 57.2068C9.29679 55.4875 12.6757 53.9637 16.4257 52.9478C20.1757 51.9124 23.8476 51.4826 26.7773 51.7365C29.746 51.9905 31.5819 52.9283 31.9921 54.374C32.3827 55.8197 31.2694 57.5584 28.8671 59.2972C26.4843 61.0164 23.1054 62.5402 19.3554 63.5561C16.3085 64.4157 13.3202 64.8455 10.7421 64.8455ZM25.0194 51.8928C22.4609 51.8928 19.4921 52.3226 16.4648 53.1627C12.7343 54.1786 9.39444 55.6829 7.03116 57.4021C4.70694 59.0823 3.61319 60.7429 3.98429 62.0909C4.35538 63.4389 6.13273 64.318 9.00382 64.5525C11.8944 64.8064 15.5468 64.3766 19.2773 63.3607C23.0077 62.3448 26.3476 60.8405 28.7109 59.1213C31.0351 57.4412 32.1288 55.7806 31.7577 54.4326C31.3866 53.0846 29.6093 52.2054 26.7382 51.971C26.2109 51.9319 25.6249 51.8928 25.0194 51.8928Z" fill="black"/>
<path d="M31.8743 54.4111C31.8743 54.4111 26.972 51.0899 15.3314 54.7236C15.3314 54.7236 4.92121 58.123 4.1009 62.6164C4.1009 62.6164 3.31965 61.4247 4.4134 59.8031C4.4134 59.8031 9.23761 52.8481 23.8861 51.8127C23.8861 51.8127 30.5071 51.0899 31.8743 54.4111Z" fill="black"/>
<path d="M76.3864 50.2304L81.2106 47.4171L22.0309 12.7008C22.0309 12.7008 15.5661 9.71173 20.234 5.96072L15.2145 3.1084C15.2145 3.1084 10.3903 5.70675 11.3473 9.94617C11.3473 9.94617 11.7575 12.1343 17.109 15.4164L76.3864 50.2304Z" fill="#00DC35"/>
<path d="M76.3864 50.3475C76.3668 50.3475 76.3473 50.3475 76.3278 50.328L17.0699 15.514C11.7184 12.2514 11.2692 10.0633 11.2496 9.98518C10.2926 5.70669 15.1168 3.04973 15.1754 3.01065C15.2145 2.99112 15.2535 2.99112 15.2926 3.01065L20.3121 5.86298C20.3512 5.88252 20.3707 5.92159 20.3707 5.96066C20.3707 5.99974 20.3512 6.03881 20.3317 6.05835C19.1207 7.03517 18.5738 8.03153 18.691 9.02789C18.9449 11.1183 22.0504 12.5835 22.0895 12.6031L81.2692 47.3389C81.3082 47.3585 81.3278 47.3975 81.3278 47.4366C81.3278 47.4757 81.3082 47.5148 81.2692 47.5343L76.4449 50.3475C76.4254 50.3475 76.4059 50.3475 76.3864 50.3475ZM15.2145 3.24509C14.6871 3.53814 10.5856 6.05835 11.4645 9.92657C11.4645 9.94611 11.9528 12.1147 17.1871 15.3186L76.3864 50.0936L80.9762 47.4171L21.9723 12.7984C21.8551 12.7398 18.7106 11.2746 18.4567 9.04743C18.3199 7.99246 18.8668 6.97656 20.0387 5.9802L15.2145 3.24509Z" fill="black"/>
<path d="M81.2104 47.4373V108.879L76.7964 111.029C76.7964 111.029 74.9995 112.083 72.9292 110.892C72.9292 110.892 75.9956 112.064 76.5425 107.551C76.5425 107.551 76.7378 102.745 76.7573 100.772L76.5034 51.8134C76.5034 51.8134 76.5034 51.0906 76.2886 50.1724L81.2104 47.4373Z" fill="#00DC35"/>
<path d="M74.9798 111.556C74.3548 111.556 73.6321 111.419 72.8704 110.97C72.8118 110.931 72.7923 110.872 72.8314 110.833C72.8509 110.774 72.9095 110.755 72.9681 110.774C72.9876 110.774 74.0032 111.165 74.9407 110.599C75.7415 110.11 76.2493 109.075 76.4251 107.531C76.4251 107.492 76.6204 102.706 76.6204 100.772L76.3665 51.8134C76.3665 51.8134 76.3665 51.0905 76.1517 50.1918C76.1321 50.1332 76.1712 50.0942 76.2103 50.0746L81.1517 47.3395C81.1907 47.32 81.2298 47.32 81.2689 47.3395C81.3079 47.359 81.3275 47.3981 81.3275 47.4372V108.879C81.3275 108.919 81.3079 108.958 81.2689 108.977L76.8548 111.126C76.8157 111.126 76.0735 111.556 74.9798 111.556ZM73.7493 111.126C75.39 111.673 76.6985 110.931 76.7181 110.911L81.0735 108.801V47.6326L76.386 50.2309C76.5814 51.1101 76.5814 51.7938 76.5814 51.8134L76.8353 100.772C76.8157 102.706 76.6399 107.492 76.6204 107.551C76.4251 109.172 75.8978 110.267 75.0189 110.794C74.5892 111.068 74.14 111.126 73.7493 111.126Z" fill="black"/>
<path d="M15.7808 2.93362C15.7808 2.93362 15.2339 3.20713 14.7261 3.57833L19.6479 6.2939C19.6479 6.2939 20.2339 5.96178 20.644 5.76641L15.7808 2.93362Z" fill="#00DC35"/>
<path d="M96.2695 38.6652V99.2478C96.2695 100.674 95.4492 101.963 94.1797 102.589L91.7773 103.761V41.2831L96.2695 38.6652Z" fill="#00DC35"/>
<path d="M91.7773 103.858C91.7578 103.858 91.7383 103.858 91.7188 103.839C91.6797 103.819 91.6602 103.78 91.6602 103.741V41.283C91.6602 41.2439 91.6797 41.2049 91.7188 41.1853L96.2109 38.5674C96.25 38.5479 96.2891 38.5479 96.3281 38.5674C96.3672 38.587 96.3867 38.6261 96.3867 38.6651V99.2478C96.3867 100.713 95.5469 102.061 94.2383 102.686L91.8359 103.858C91.8164 103.858 91.7969 103.858 91.7773 103.858ZM91.8945 41.3416V103.565L94.1406 102.471C95.3711 101.866 96.1719 100.596 96.1719 99.2282V38.8605L91.8945 41.3416Z" fill="black"/>
<path d="M42.3036 105.137C48.7409 100.289 49.2887 90.1534 43.5271 82.4989C37.7655 74.8445 27.8764 72.5694 21.439 77.4174C15.0017 82.2655 14.4539 92.4008 20.2155 100.055C25.977 107.71 35.8662 109.985 42.3036 105.137Z" fill="#FFEB69"/>
<path d="M34.4915 107.825C33.3391 107.825 32.1672 107.689 30.9954 107.415C26.7962 106.438 22.9485 103.859 20.136 100.147C14.3352 92.4501 14.9016 82.2325 21.386 77.3484C24.5305 74.9845 28.5735 74.2226 32.7727 75.1799C36.9719 76.1567 40.8196 78.7355 43.6321 82.4474C49.4329 90.1448 48.8665 100.362 42.3821 105.247C40.1165 106.946 37.4016 107.825 34.4915 107.825ZM29.2571 74.9845C26.386 74.9845 23.7102 75.8441 21.5032 77.5047C15.136 82.3107 14.5891 92.3915 20.3118 99.9912C23.0852 103.664 26.8938 106.223 31.0344 107.181C35.1751 108.138 39.1594 107.376 42.2454 105.051C48.6126 100.245 49.1594 90.1644 43.4368 82.5647C40.6633 78.8918 36.8547 76.3325 32.7141 75.3752C31.5422 75.1213 30.3899 74.9845 29.2571 74.9845Z" fill="black"/>
<path d="M44.0951 103.755C50.4463 98.9714 50.9821 88.9656 45.2919 81.406C39.6017 73.8464 29.8402 71.5955 23.489 76.3787C17.1379 81.1618 16.6021 91.1676 22.2923 98.7273C27.9825 106.287 37.744 108.538 44.0951 103.755Z" fill="#FFEB69"/>
<path d="M36.3664 106.378C35.2336 106.378 34.0813 106.241 32.9094 105.968C28.7688 105.011 24.9602 102.471 22.1867 98.7786C19.4133 95.0862 18.0266 90.7295 18.2414 86.4901C18.4758 82.2312 20.3117 78.5974 23.3977 76.2725C26.5031 73.9282 30.4875 73.1858 34.6477 74.1431C38.7883 75.1003 42.5969 77.6401 45.3703 81.3325C48.1438 85.0053 49.5305 89.3815 49.3156 93.6209C49.0812 97.8799 47.2453 101.514 44.1594 103.838C41.9328 105.519 39.257 106.378 36.3664 106.378ZM31.2102 73.9672C28.3781 73.9672 25.7414 74.8073 23.5539 76.4679C20.507 78.7537 18.7102 82.3288 18.4758 86.5292C18.2414 90.7295 19.6281 95.0471 22.3625 98.6809C25.0969 102.315 28.8664 104.835 32.9484 105.773C37.0305 106.71 40.9563 105.968 44.0031 103.682C47.05 101.396 48.8469 97.8213 49.0813 93.6209C49.3156 89.4206 47.9289 85.103 45.1945 81.4692C42.4602 77.8355 38.6906 75.3152 34.6086 74.3775C33.4563 74.104 32.3234 73.9672 31.2102 73.9672Z" fill="black"/>
<path d="M42.2744 101.336C47.5053 97.3964 47.9482 89.1576 43.2636 82.9341C38.5791 76.7105 30.5411 74.8589 25.3102 78.7983C20.0793 82.7377 19.6364 90.9765 24.321 97.2C29.0055 103.424 37.0435 105.275 42.2744 101.336Z" fill="#FFEB69"/>
<path d="M35.9176 103.507C31.7184 103.507 27.2653 101.299 24.2379 97.2548C19.5309 90.9836 19.9801 82.6611 25.2535 78.6952C30.527 74.7293 38.652 76.5852 43.359 82.8565C48.066 89.1277 47.6168 97.4502 42.3434 101.416C40.4684 102.842 38.2223 103.507 35.9176 103.507ZM25.3707 78.8905C20.1949 82.7783 19.7653 90.9641 24.3942 97.1376C29.0426 103.292 37.0114 105.148 42.1871 101.26C47.3629 97.3721 47.7926 89.1863 43.1637 83.0127C38.5348 76.8392 30.5465 75.0028 25.3707 78.8905Z" fill="black"/>
<path d="M46.4839 92.8396C46.4839 92.8396 45.3315 83.0127 35.937 79.1054C26.5425 75.1981 21.4058 84.9664 21.4058 84.9664C21.4058 84.9664 22.5386 77.3276 31.6597 76.7415C31.6597 76.7415 38.0855 76.4485 42.9292 82.5048C42.9292 82.4852 46.9331 87.4475 46.4839 92.8396Z" fill="black"/>
<path d="M64.8628 67.8538V82.8382L71.1323 87.019C71.1323 87.019 75.2339 89.6174 80.5073 87.5075C84.6284 85.8469 93.437 82.0763 97.0308 79.7319C98.6909 78.6574 99.8628 76.528 99.8823 74.5352C99.8823 74.5157 99.8823 74.4766 99.8823 74.4571V60.1368L75.7612 70.8819L64.8628 67.8538Z" fill="#00DC35"/>
<path d="M76.3081 88.4253C73.2026 88.4253 71.0933 87.1164 71.0737 87.0968L64.8042 82.916C64.7651 82.8965 64.7456 82.8574 64.7456 82.8183V67.8339C64.7456 67.7948 64.7651 67.7557 64.7847 67.7362C64.8042 67.7166 64.8433 67.7166 64.8823 67.7166L75.7417 70.7253L99.8237 59.9997C99.8628 59.9802 99.9019 59.9802 99.9214 59.9997C99.9604 60.0193 99.98 60.0583 99.98 60.0974V74.4958C99.9604 76.508 98.769 78.6766 97.0698 79.7706C93.5151 82.0759 84.9995 85.7488 80.5269 87.5462C79.0229 88.2104 77.5776 88.4253 76.3081 88.4253ZM64.98 82.7793L71.1909 86.921C71.23 86.9405 75.312 89.4607 80.4487 87.3899C84.9214 85.5925 93.4175 81.9392 96.9526 79.6339C98.5933 78.5789 99.7261 76.469 99.7456 74.5349V74.4567V60.3123L75.7808 70.9792C75.7612 70.9988 75.7222 70.9988 75.7026 70.9792L64.9409 68.0097V82.7793H64.98Z" fill="black"/>
<path d="M64.8628 67.8535L68.4175 65.6655L73.4565 68.6155C73.4565 68.6155 75.0972 69.8463 77.6948 69.1039C80.0581 68.4201 93.1636 60.8399 95.7026 59.3747C95.9175 59.2575 96.0542 59.0621 96.1323 58.8472C96.2105 58.6323 96.2495 58.3979 96.269 58.1634L96.2886 57.4992V54.0999C96.2886 54.0999 98.2026 56.0144 99.1987 57.382C100.214 58.7886 100.214 60.8399 99.1987 61.8363C96.5229 64.4347 80.7612 72.1906 80.7612 72.1906C80.7612 72.1906 79.0425 73.1284 76.2495 73.0502C74.2573 72.9916 72.3237 72.3665 70.605 71.331L64.8628 67.8535Z" fill="black"/>
<path d="M67.3823 74.0851L68.3003 73.6357C69.3355 73.1278 70.5659 73.1278 71.6011 73.6943C71.855 73.8311 72.1284 74.0069 72.4214 74.2023C74.1792 75.4135 75.9175 78.3635 75.644 81.4308C75.3511 84.498 72.0894 84.6934 72.0894 84.6934L67.3823 74.0851Z" fill="black"/>
<path d="M69.4533 73.9101C68.1642 73.4803 66.7189 74.0859 66.2111 75.3558C65.9376 76.0395 65.84 77.0359 66.0744 78.423C66.8556 82.975 71.0353 85.2021 72.7736 84.577C74.4142 83.9909 74.883 81.6074 73.8673 78.9309C72.9298 76.4303 71.3087 74.5157 69.4533 73.9101Z" fill="white"/>
<path d="M72.1291 84.7914C71.4455 84.7914 70.5862 84.5374 69.7658 84.049C67.7932 82.8963 66.3674 80.7864 65.9573 78.442C65.7424 77.1721 65.7815 76.1172 66.1135 75.3162C66.6213 74.0268 68.1057 73.3625 69.4924 73.8119C71.3283 74.398 73.008 76.3125 73.9846 78.8913C74.6291 80.6106 74.7072 82.2516 74.1799 83.4043C73.8869 84.0294 73.4182 84.4788 72.8322 84.6937C72.6174 84.7523 72.383 84.7914 72.1291 84.7914ZM68.594 73.89C67.5979 73.89 66.6799 74.4566 66.3088 75.3943C66.0158 76.1562 65.9572 77.1721 66.1721 78.4029C66.5627 80.6887 67.9494 82.74 69.8635 83.8536C70.9377 84.4788 72.0315 84.7132 72.7151 84.4788C73.2424 84.2834 73.6721 83.8927 73.926 83.3066C74.4338 82.2125 74.3557 80.6301 73.7307 78.9695C72.7737 76.4493 71.1526 74.5933 69.3947 74.0268C69.1408 73.9291 68.8674 73.89 68.594 73.89Z" fill="black"/>
</g>
<defs>
<clipPath id="clip0_2_1222">
<rect width="100" height="110.791" fill="white" transform="translate(0 0.762817)"/>
</clipPath>
</defs>
</svg>
