<svg width="17" height="16" viewBox="0 0 17 16" fill="none" xmlns="http://www.w3.org/2000/svg">
<g clip-path="url(#clip0_16469_7059)">
<path d="M12.6419 10.2079C12.4558 10.2079 12.2696 10.1366 12.1278 9.9948C11.8433 9.71049 11.8433 9.25081 12.1278 8.96651L13.5968 7.49743C14.2667 6.83414 14.6346 5.94833 14.6346 5.00073C14.6346 3.0524 13.0491 1.46628 11.1001 1.46628C10.1532 1.46628 9.26739 1.83421 8.6057 2.5019L7.13436 3.9731C6.85006 4.25754 6.39037 4.25754 6.10607 3.9731C5.82176 3.68879 5.82176 3.22911 6.10607 2.9448L7.57514 1.47506C8.51035 0.532525 9.76277 0.0117188 11.1001 0.0117188C13.8513 0.0117188 16.0892 2.24955 16.0892 5.00073C16.0892 6.33957 15.5683 7.59118 14.6222 8.52866L13.1554 9.9948C13.0136 10.1366 12.8281 10.2079 12.6419 10.2079Z" fill="#ACAEAE"/>
<path d="M5.07844 16.0117C2.32726 16.0117 0.0894241 13.7739 0.0894241 11.0227C0.0894241 9.68389 0.610231 8.43228 1.55637 7.4948L3.02317 6.02866C3.30761 5.74435 3.76716 5.74435 4.0516 6.02866C4.33591 6.31297 4.33591 6.77265 4.0516 7.05696L2.58253 8.52603C1.91191 9.18932 1.54398 10.0751 1.54398 11.0227C1.54398 12.9711 3.12944 14.5572 5.07844 14.5572C6.02537 14.5572 6.91118 14.1893 7.57287 13.5216L9.04421 12.0504C9.32852 11.7659 9.7882 11.7659 10.0725 12.0504C10.3568 12.3347 10.3568 12.7944 10.0725 13.0787L8.60344 14.5485C7.66822 15.4909 6.41594 16.0117 5.07844 16.0117Z" fill="#ACAEAE"/>
<path d="M9.63106 7.19738C9.4449 7.19738 9.25874 7.12614 9.11692 6.98432C8.83261 6.70001 8.83261 6.24033 9.11692 5.95602L10.4841 4.58882C10.7686 4.30438 11.2281 4.30438 11.5125 4.58882C11.7969 4.87312 11.7969 5.33281 11.5125 5.61712L10.1452 6.98432C10.0034 7.12614 9.81723 7.19738 9.63106 7.19738Z" fill="#ACAEAE"/>
<path d="M5.18031 11.6481C4.99415 11.6481 4.80785 11.5769 4.66616 11.435C4.38173 11.1506 4.38173 10.691 4.66616 10.4066L6.03337 9.0394C6.31767 8.7551 6.77736 8.7551 7.06166 9.0394C7.3461 9.32371 7.3461 9.78339 7.06166 10.0677L5.69446 11.435C5.55264 11.5769 5.36648 11.6481 5.18031 11.6481Z" fill="#ACAEAE"/>
<path d="M15.3618 16.0116C15.1756 16.0116 14.9895 15.9403 14.8477 15.7985L0.302624 1.25335C0.0181845 0.969039 0.0181845 0.509355 0.302624 0.225048C0.586931 -0.0593911 1.04648 -0.0593911 1.33092 0.225048L15.8761 14.7701C16.1604 15.0545 16.1604 15.5141 15.8761 15.7985C15.7343 15.9403 15.548 16.0116 15.3618 16.0116Z" fill="#ACAEAE"/>
</g>
<defs>
<clipPath id="clip0_16469_7059">
<rect width="16" height="16" fill="white" transform="translate(0.0892944)"/>
</clipPath>
</defs>
</svg>
