<svg width="24" height="24" viewBox="0 0 24 24" fill="none" xmlns="http://www.w3.org/2000/svg">
<g clip-path="url(#clip0_2_1428)">
<path d="M20.378 4.61576L19.3775 5.61631C19.1258 5.86798 19.1132 6.25925 19.3262 6.54448C20.4634 8.06722 21.1871 9.95319 21.1871 12C21.1871 14.0467 20.4635 15.9794 19.3264 17.5022C19.1135 17.7874 19.126 18.1785 19.3776 18.4303L20.3773 19.4303C20.6739 19.7283 21.1677 19.6995 21.4293 19.3658C23.08 17.2475 23.9996 14.6703 23.9996 11.9999C23.9996 9.33298 23.0806 6.80201 21.43 4.68096C21.1752 4.3527 20.6821 4.31164 20.378 4.61576Z" fill="#07A22C"/>
<path d="M19.3189 2.5696C17.1979 0.918938 14.6669 0 12 0C5.98564 0 0.752701 4.54374 0.00565355 10.5066C-0.0471746 10.9218 0.276779 11.2969 0.703248 11.2969H2.13242C2.48225 11.2969 2.77737 11.0405 2.82739 10.6944C3.46822 6.26555 7.39583 2.8125 12 2.8125C14.0467 2.8125 15.9327 3.53616 17.4555 4.67335C17.7407 4.88639 18.1319 4.87379 18.3837 4.62211L19.3842 3.62157C19.6829 3.32288 19.6527 2.82858 19.3189 2.5696Z" fill="#07A22C"/>
<path d="M10.5058 23.9945C10.9434 24.0454 11.2969 23.7061 11.2969 23.2969V21.8784C11.2969 21.5231 11.0286 21.2385 10.6769 21.1875C6.69013 20.6087 3.40827 17.3099 2.8295 13.3231C2.77855 12.9714 2.49392 12.7031 2.13865 12.7031H0.703294C0.276216 12.7031 -0.0471284 13.0787 0.00565293 13.4934C0.684075 18.9097 5.08138 23.3134 10.5058 23.9945Z" fill="#07A22C"/>
<path d="M18.383 19.4241C18.1316 19.1727 17.7411 19.1602 17.4561 19.3728C16.2678 20.259 14.8577 20.9651 13.3229 21.1875C12.9714 21.2385 12.7031 21.5228 12.7031 21.878V23.2976C12.7031 23.7077 13.0575 24.046 13.4941 23.9952C15.6157 23.7286 17.6371 22.789 19.3368 21.4648C19.6713 21.2042 19.6846 20.7258 19.3848 20.4261L18.383 19.4241Z" fill="#07A22C"/>
<path d="M12 6.375C8.89336 6.375 6.375 8.89336 6.375 12C6.375 15.1066 8.89336 17.6719 12 17.6719C15.1066 17.6719 17.625 15.1066 17.625 12C17.625 8.89336 15.1066 6.375 12 6.375ZM13.1783 14.5306C13.0261 14.6067 12.8664 14.6666 12.703 14.712V14.9063C12.703 15.2946 12.3882 15.6094 11.9999 15.6094C11.6116 15.6094 11.2968 15.2946 11.2968 14.9063V14.7339C11.0041 14.6603 10.7311 14.5364 10.4999 14.363C10.1893 14.13 10.1263 13.6893 10.3593 13.3786C10.5923 13.068 11.033 13.005 11.3437 13.238C11.6249 13.4489 12.1658 13.4646 12.5494 13.2728C12.7036 13.1956 12.7868 13.1028 12.7868 13.0547C12.7868 12.9706 12.7868 12.9576 12.6932 12.9076C12.5098 12.8097 12.1854 12.7495 11.8717 12.6914C11.4528 12.6136 11.0198 12.5333 10.6445 12.333C10.0965 12.0405 9.80677 11.5606 9.80677 10.9453C9.80677 10.3293 10.1762 9.79125 10.8203 9.46922C10.973 9.39286 11.133 9.33244 11.2968 9.28702V9.09375C11.2968 8.70544 11.6116 8.39063 11.9999 8.39063C12.3882 8.39063 12.703 8.70544 12.703 9.09375V9.26592C12.9958 9.33966 13.2687 9.46364 13.4999 9.63703C13.8106 9.87005 13.8736 10.3108 13.6405 10.6214C13.4075 10.9321 12.9669 10.9951 12.6562 10.762C12.3745 10.5508 11.8331 10.5351 11.4492 10.727C11.2941 10.8045 11.213 10.8955 11.213 10.9453C11.213 11.0295 11.213 11.0424 11.3066 11.0924C11.4901 11.1903 11.8145 11.2505 12.1282 11.3086C12.547 11.3864 12.9801 11.4667 13.3554 11.667C13.9034 11.9595 14.1931 12.4394 14.1931 13.0547C14.1931 13.6702 13.8232 14.2081 13.1783 14.5306Z" fill="#07A22C"/>
</g>
<defs>
<clipPath id="clip0_2_1428">
<rect width="24" height="24" fill="white"/>
</clipPath>
</defs>
</svg>
