<svg width="14" height="14" viewBox="0 0 14 14" fill="none" xmlns="http://www.w3.org/2000/svg">
    <path
        d="M7.00033 1.16666C3.78616 1.16666 1.16699 3.78582 1.16699 6.99999C1.16699 10.2142 3.78616 12.8333 7.00033 12.8333C10.2145 12.8333 12.8337 10.2142 12.8337 6.99999C12.8337 3.78582 10.2145 1.16666 7.00033 1.16666ZM6.56283 4.66666C6.56283 4.42749 6.76116 4.22916 7.00033 4.22916C7.23949 4.22916 7.43783 4.42749 7.43783 4.66666V7.58332C7.43783 7.82249 7.23949 8.02082 7.00033 8.02082C6.76116 8.02082 6.56283 7.82249 6.56283 7.58332V4.66666ZM7.53699 9.55499C7.50783 9.63082 7.46699 9.68916 7.41449 9.74749C7.35616 9.79999 7.29199 9.84082 7.22199 9.86999C7.15199 9.89916 7.07616 9.91666 7.00033 9.91666C6.92449 9.91666 6.84866 9.89916 6.77866 9.86999C6.70866 9.84082 6.64449 9.79999 6.58616 9.74749C6.53366 9.68916 6.49283 9.63082 6.46366 9.55499C6.43449 9.48499 6.41699 9.40916 6.41699 9.33332C6.41699 9.25749 6.43449 9.18166 6.46366 9.11166C6.49283 9.04166 6.53366 8.97749 6.58616 8.91916C6.64449 8.86666 6.70866 8.82582 6.77866 8.79666C6.91866 8.73832 7.08199 8.73832 7.22199 8.79666C7.29199 8.82582 7.35616 8.86666 7.41449 8.91916C7.46699 8.97749 7.50783 9.04166 7.53699 9.11166C7.56616 9.18166 7.58366 9.25749 7.58366 9.33332C7.58366 9.40916 7.56616 9.48499 7.53699 9.55499Z"
        fill="#1AD01A" />
</svg>
    