<svg width="333" height="276" viewBox="0 0 333 276" fill="none" xmlns="http://www.w3.org/2000/svg">
<path fill-rule="evenodd" clip-rule="evenodd" d="M275.511 149.695C275.835 145.84 276 141.939 276 138C276 132.46 275.674 126.996 275.039 121.627H318.102C325.853 121.627 332.136 127.91 332.136 135.661C332.136 143.412 325.853 149.695 318.102 149.695H275.511ZM275.511 149.695C269.575 220.437 210.276 276 138 276C61.7847 276 0 214.215 0 138C0 61.7847 61.7847 0 138 0C208.675 0 266.942 53.1291 275.039 121.627H130.983C123.232 121.627 116.949 127.91 116.949 135.661C116.949 143.412 123.232 149.695 130.983 149.695H275.511Z" fill="#2B6400" fill-opacity="0.08"/>
</svg>
