<svg width="18" height="18" viewBox="0 0 18 18" fill="none" xmlns="http://www.w3.org/2000/svg">
<path fill-rule="evenodd" clip-rule="evenodd" d="M16.1131 16.1129C17.3335 14.8925 17.3335 12.9284 17.3335 8.99998C17.3335 5.07161 17.3335 3.10742 16.1131 1.88703C14.8927 0.666646 12.9285 0.666646 9.00016 0.666646C5.07179 0.666646 3.10761 0.666646 1.88722 1.88703C0.666829 3.10742 0.666829 5.07161 0.666829 8.99998C0.666829 12.9284 0.666829 14.8925 1.88722 16.1129C3.10761 17.3333 5.07179 17.3333 9.00016 17.3333C12.9285 17.3333 14.8927 17.3333 16.1131 16.1129ZM4.35336 10.2665C4.13238 10.5317 4.16821 10.9258 4.43338 11.1468C4.69855 11.3678 5.09266 11.3319 5.31363 11.0668L6.81104 9.26987C7.12004 8.89908 7.30979 8.67373 7.46611 8.53257C7.5386 8.46711 7.58161 8.44102 7.60222 8.43104C7.60641 8.42902 7.60939 8.4278 7.61127 8.4271C7.61127 8.4271 7.61484 8.42849 7.61765 8.42978L7.62033 8.43104C7.64094 8.44102 7.68394 8.46711 7.75644 8.53257C7.91276 8.67373 8.10251 8.89908 8.4115 9.26987L8.65517 9.56227C8.92889 9.89081 9.17565 10.187 9.40614 10.3951C9.65692 10.6216 9.97281 10.8233 10.3891 10.8233C10.8053 10.8233 11.1212 10.6216 11.372 10.3951C11.6025 10.187 11.8492 9.8908 12.1229 9.56227L13.647 7.73343C13.8679 7.46825 13.8321 7.07415 13.5669 6.85317C13.3018 6.6322 12.9077 6.66802 12.6867 6.9332L11.1893 8.73009C10.8803 9.10088 10.6905 9.32623 10.5342 9.46739C10.4617 9.53285 10.4187 9.55894 10.3981 9.56892C10.3959 9.56998 10.394 9.57083 10.3925 9.57149L10.3891 9.57286C10.3872 9.57216 10.3842 9.57094 10.38 9.56892C10.3594 9.55894 10.3164 9.53285 10.2439 9.46739C10.0876 9.32623 9.89781 9.10088 9.58882 8.73009L9.34515 8.43768C9.07144 8.10915 8.82468 7.81298 8.59418 7.60484C8.3434 7.37838 8.02751 7.17669 7.61127 7.17669C7.19503 7.17669 6.87915 7.37838 6.62836 7.60484C6.39787 7.81298 6.15111 8.10915 5.8774 8.43768L4.35336 10.2665Z" fill="#FF8447"/>
</svg>
