<svg width="24" height="24" viewBox="0 0 24 24" fill="none" xmlns="http://www.w3.org/2000/svg">
<path fill-rule="evenodd" clip-rule="evenodd" d="M24 12C24 15.0654 22.8269 18.0146 20.7214 20.2425C18.6158 22.4703 15.7375 23.808 12.677 23.9809C9.61649 24.1538 6.60582 23.149 4.26272 21.1725C1.91961 19.196 0.421741 16.3977 0.0764196 13.3518C-0.268901 10.306 0.564515 7.24339 2.40568 4.79251C4.24684 2.34164 6.95613 0.688284 9.97768 0.171678C12.9992 -0.344928 16.1039 0.314386 18.6548 2.01435C21.1809 3.69782 22.9741 6.27543 23.6751 9.22678H20.9782C20.3425 7.16832 19.0155 5.38315 17.2111 4.18062C15.2136 2.84944 12.7825 2.33316 10.4164 2.73769C8.05034 3.14223 5.92879 4.43691 4.48705 6.3561C3.25875 7.99116 2.60321 9.9739 2.60326 12H5.07966C5.11476 8.17797 8.23497 5.07938 12.0652 5.07938C15.8953 5.07938 19.0156 8.17797 19.0507 12L21.3967 12L23.7118 12L24 12ZM18.7163 14.2036H21.1348C20.7532 15.7851 19.9643 17.2535 18.8294 18.4544C17.1806 20.1989 14.9267 21.2464 12.5301 21.3818C10.1336 21.5172 7.77603 20.7303 5.94123 19.1826C4.40447 17.8863 3.33201 16.1386 2.86527 14.2036H5.41404C6.31937 17.0128 8.95876 19.051 12.0652 19.051C15.1716 19.051 17.811 17.0128 18.7163 14.2036ZM14.0877 15.2335C14.3387 15.0617 14.5381 14.8362 14.6861 14.5578C14.8338 14.2792 14.9079 13.9439 14.9077 13.5518C14.9077 13.2149 14.8527 12.9313 14.7427 12.7007C14.6326 12.4704 14.476 12.2727 14.2733 12.1075C14.0704 11.9425 13.8229 11.805 13.5306 11.6949C13.2382 11.5849 12.9133 11.4818 12.5557 11.3855C12.2806 11.3168 12.0382 11.2513 11.8285 11.1894C11.6186 11.1275 11.445 11.0588 11.3074 10.9832C11.1697 10.9075 11.065 10.8199 10.9928 10.7201C10.9206 10.6205 10.8845 10.4948 10.8845 10.3435C10.8845 10.0822 10.9808 9.87926 11.1734 9.73489C11.3658 9.59036 11.6582 9.51817 12.0502 9.51817C12.2703 9.51817 12.4869 9.54578 12.7002 9.60067C12.9133 9.65588 13.111 9.72283 13.2933 9.80184C13.4754 9.88101 13.6303 9.96176 13.7575 10.0443C13.8847 10.1269 13.9725 10.1923 14.0207 10.2404L14.6499 9.08489C14.3266 8.86484 13.9484 8.67414 13.5151 8.51231C13.2492 8.41331 12.9676 8.34477 12.6706 8.30638V6.99607H11.4521V8.32383C11.3141 8.34779 11.1799 8.37952 11.0496 8.4195C10.7263 8.51929 10.4426 8.66557 10.1985 8.85802C9.95429 9.05062 9.76343 9.2913 9.62603 9.5802C9.48832 9.86895 9.41963 10.1991 9.41963 10.5705C9.41963 10.8526 9.46262 11.095 9.54861 11.2978C9.63444 11.5007 9.76343 11.6795 9.93541 11.8342C10.1072 11.989 10.3224 12.1231 10.5802 12.2365C10.8381 12.3501 11.1424 12.455 11.4932 12.5513C11.782 12.6338 12.0433 12.7095 12.2773 12.7782C12.511 12.847 12.7106 12.9225 12.8756 13.0052C13.0406 13.0877 13.1678 13.184 13.2573 13.2939C13.3464 13.4041 13.3913 13.5381 13.3913 13.6963C13.3913 14.1984 12.9993 14.4494 12.2152 14.4494C11.9332 14.4494 11.6582 14.4151 11.3901 14.3463C11.1218 14.2776 10.8776 14.1934 10.6576 14.0936C10.4374 13.9939 10.2465 13.8941 10.085 13.7943C9.92335 13.6947 9.81166 13.6138 9.74978 13.5519L9.12041 14.7796C9.54671 15.0823 10.0282 15.316 10.5648 15.481C10.8584 15.5714 11.1543 15.6361 11.4521 15.6771V17.1238H12.6706V15.7039C12.8587 15.6842 13.0423 15.6533 13.2211 15.61C13.5478 15.5311 13.8365 15.4055 14.0877 15.2335Z" fill="url(#paint0_linear_0_4106)"/>
<defs>
<linearGradient id="paint0_linear_0_4106" x1="12" y1="0" x2="12" y2="30.352" gradientUnits="userSpaceOnUse">
<stop stop-color="#BFFE80"/>
<stop offset="1" stop-color="#73DF27"/>
</linearGradient>
</defs>
</svg>
