<svg width="25" height="24" viewBox="0 0 25 24" fill="none" xmlns="http://www.w3.org/2000/svg">
<path d="M2.66791 12.2039C2.66791 9.91549 2.66791 8.77128 3.18711 7.82274C3.70631 6.87421 4.65485 6.28551 6.55194 5.10813L8.55194 3.86687C10.5573 2.62229 11.56 2 12.6679 2C13.7758 2 14.7785 2.62229 16.7839 3.86687L18.7839 5.10812C20.681 6.28551 21.6295 6.87421 22.1487 7.82274C22.6679 8.77128 22.6679 9.91549 22.6679 12.2039V13.725C22.6679 17.6258 22.6679 19.5763 21.4963 20.7881C20.3248 22 18.4391 22 14.6679 22H10.6679C6.89667 22 5.01105 22 3.83948 20.7881C2.66791 19.5763 2.66791 17.6258 2.66791 13.725V12.2039Z" stroke="#ACAEAE" stroke-width="1.5"/>
<path d="M15.6679 18H9.66791" stroke="#ACAEAE" stroke-width="1.5" stroke-linecap="round"/>
</svg>
