<svg width="25" height="24" viewBox="0 0 25 24" fill="none" xmlns="http://www.w3.org/2000/svg">
  <path fill-rule="evenodd" clip-rule="evenodd"
    d="M3.09778 7.82274C2.57858 8.77128 2.57858 9.91549 2.57858 12.2039V13.725C2.57858 17.6258 2.57858 19.5763 3.75016 20.7881C4.92173 22 6.80735 22 10.5786 22H14.5786C18.3498 22 20.2354 22 21.407 20.7881C22.5786 19.5763 22.5786 17.6258 22.5786 13.725V12.2039C22.5786 9.91549 22.5786 8.77128 22.0594 7.82274C21.5402 6.87421 20.5916 6.28551 18.6945 5.10812L16.6945 3.86687C14.6892 2.62229 13.6865 2 12.5786 2C11.4706 2 10.468 2.62229 8.46261 3.86687L6.46262 5.10813C4.56553 6.28551 3.61698 6.87421 3.09778 7.82274ZM9.57858 17.25C9.16437 17.25 8.82858 17.5858 8.82858 18C8.82858 18.4142 9.16437 18.75 9.57858 18.75H15.5786C15.9928 18.75 16.3286 18.4142 16.3286 18C16.3286 17.5858 15.9928 17.25 15.5786 17.25H9.57858Z"
    fill="#57803E" />
</svg>