<svg width="148" height="32" viewBox="0 0 148 32" fill="none" xmlns="http://www.w3.org/2000/svg">
    <path
        d="M51.2451 4.5657C52.6669 4.5657 54.0152 4.749 55.29 5.11561C56.5647 5.45777 57.7169 5.97102 58.7465 6.65536C59.7761 7.33969 60.6709 8.18289 61.4309 9.18495C62.0389 9.98676 62.5372 10.8746 62.9255 11.8486C63.0704 12.2119 62.7937 12.5944 62.4025 12.5944H57.62C57.408 12.5944 57.215 12.4766 57.1058 12.2948C56.5349 11.3447 55.7826 10.6258 54.8487 10.1381C53.8191 9.576 52.6179 9.29493 51.2451 9.29493C50.0929 9.29493 49.0388 9.49045 48.0827 9.8815C47.1266 10.2725 46.3054 10.8347 45.619 11.5679C44.9326 12.3011 44.3932 13.181 44.001 14.2075C43.6333 15.234 43.4494 16.3827 43.4494 17.6536C43.4494 18.9489 43.6456 20.1221 44.0378 21.173C44.43 22.1995 44.9693 23.0794 45.6557 23.8126C46.3667 24.5458 47.2124 25.1079 48.193 25.499C49.1736 25.89 50.2645 26.0855 51.4657 26.0855C53.4514 26.0855 55.0571 25.5601 56.2828 24.5091C57.533 23.4582 58.3543 22.0162 58.7465 20.1832H50.4961C50.1786 20.1832 49.9213 19.9258 49.9213 19.6084V16.8353C49.9213 16.5178 50.1786 16.2605 50.4961 16.2605H63.2462C63.5637 16.2605 63.821 16.5178 63.821 16.8353V20.7331C63.5514 22.0284 63.0733 23.2871 62.3869 24.5091C61.7005 25.7067 60.818 26.7699 59.7394 27.6986C58.6607 28.6029 57.4105 29.3361 55.9886 29.8983C54.5668 30.4359 52.9979 30.7048 51.2818 30.7048C49.4187 30.7048 47.6782 30.3871 46.0602 29.7516C44.4668 29.1162 43.0817 28.2241 41.905 27.0754C40.7283 25.9022 39.809 24.5213 39.1471 22.9327C38.4852 21.3196 38.1543 19.5599 38.1543 17.6536C38.1543 15.7472 38.4852 13.9875 39.1471 12.3744C39.809 10.7614 40.7283 9.38047 41.905 8.23177C43.0817 7.08306 44.4668 6.19099 46.0602 5.55554C47.6537 4.89564 49.382 4.5657 51.2451 4.5657Z"
        fill="black" />
    <path
        d="M66.3795 20.2565C66.3795 18.6679 66.6124 17.2381 67.0782 15.9672C67.5685 14.6718 68.2304 13.572 69.0639 12.6677C69.9219 11.7634 70.9147 11.0669 72.0424 10.5781C73.1701 10.0892 74.3835 9.84484 75.6828 9.84484C77.3253 9.84484 78.6981 10.1748 79.8013 10.8347C80.9289 11.4701 81.7992 12.2156 82.412 13.071V10.7496C82.412 10.4321 82.6694 10.1748 82.9868 10.1748H87.0221C87.3395 10.1748 87.5969 10.4321 87.5969 10.7496V29.91C87.5969 30.2275 87.3395 30.4848 87.0221 30.4848H82.9868C82.6694 30.4848 82.412 30.2275 82.412 29.91V27.5153C81.7992 28.3952 80.9167 29.165 79.7645 29.8249C78.6368 30.4848 77.264 30.8148 75.646 30.8148C74.3468 30.8148 73.1333 30.5704 72.0056 30.0816C70.9025 29.5683 69.9219 28.8473 69.0639 27.9186C68.2304 26.9898 67.5685 25.8778 67.0782 24.5824C66.6124 23.2871 66.3795 21.8451 66.3795 20.2565ZM82.412 20.3298C82.412 19.3766 82.265 18.5334 81.9708 17.8002C81.6766 17.0426 81.2721 16.4071 80.7573 15.8939C80.267 15.3806 79.6909 15.0018 79.029 14.7574C78.3917 14.4885 77.7175 14.3541 77.0066 14.3541C76.3202 14.3541 75.646 14.4885 74.9841 14.7574C74.3468 15.0018 73.7829 15.3684 73.2926 15.8572C72.8023 16.346 72.3979 16.9692 72.0792 17.7269C71.785 18.4601 71.6379 19.3033 71.6379 20.2565C71.6379 21.2097 71.785 22.0651 72.0792 22.8227C72.3979 23.5804 72.8023 24.2158 73.2926 24.7291C73.7829 25.2423 74.3468 25.6334 74.9841 25.9022C75.646 26.1711 76.3202 26.3055 77.0066 26.3055C77.7175 26.3055 78.3917 26.1833 79.029 25.9389C79.6909 25.67 80.267 25.279 80.7573 24.7658C81.2721 24.2525 81.6766 23.6293 81.9708 22.8961C82.265 22.1384 82.412 21.283 82.412 20.3298Z"
        fill="black" />
    <path
        d="M92.6984 10.7496C92.6984 10.4321 92.9557 10.1748 93.2732 10.1748H97.2717C97.5891 10.1748 97.8464 10.4321 97.8464 10.7496V29.91C97.8464 30.2275 97.5891 30.4848 97.2717 30.4848H93.2732C92.9557 30.4848 92.6984 30.2275 92.6984 29.91V10.7496ZM95.3092 7.16861C94.3776 7.16861 93.6177 6.88754 93.0293 6.32541C92.441 5.73884 92.1468 5.01784 92.1468 4.16243C92.1468 3.30701 92.441 2.59824 93.0293 2.03611C93.6177 1.44954 94.3776 1.15625 95.3092 1.15625C96.2162 1.15625 96.9639 1.44954 97.5523 2.03611C98.1651 2.59824 98.4716 3.30701 98.4716 4.16243C98.4716 5.01784 98.1651 5.73884 97.5523 6.32541C96.9639 6.88754 96.2162 7.16861 95.3092 7.16861Z"
        fill="black" />
    <path
        d="M101.682 20.2565C101.682 18.6679 101.915 17.2381 102.381 15.9672C102.871 14.6718 103.533 13.572 104.367 12.6677C105.225 11.7634 106.218 11.0669 107.345 10.5781C108.473 10.0892 109.686 9.84484 110.986 9.84484C112.628 9.84484 114.001 10.1748 115.104 10.8347C116.232 11.4701 117.102 12.2156 117.715 13.071V10.7496C117.715 10.4321 117.972 10.1748 118.29 10.1748H122.325C122.642 10.1748 122.9 10.4321 122.9 10.7496V29.91C122.9 30.2275 122.642 30.4848 122.325 30.4848H118.29C117.972 30.4848 117.715 30.2275 117.715 29.91V27.5153C117.102 28.3952 116.22 29.165 115.067 29.8249C113.94 30.4848 112.567 30.8148 110.949 30.8148C109.65 30.8148 108.436 30.5704 107.309 30.0816C106.205 29.5683 105.225 28.8473 104.367 27.9186C103.533 26.9898 102.871 25.8778 102.381 24.5824C101.915 23.2871 101.682 21.8451 101.682 20.2565ZM117.715 20.3298C117.715 19.3766 117.568 18.5334 117.274 17.8002C116.98 17.0426 116.575 16.4071 116.06 15.8939C115.57 15.3806 114.994 15.0018 114.332 14.7574C113.695 14.4885 113.02 14.3541 112.31 14.3541C111.623 14.3541 110.949 14.4885 110.287 14.7574C109.65 15.0018 109.086 15.3684 108.596 15.8572C108.105 16.346 107.701 16.9692 107.382 17.7269C107.088 18.4601 106.941 19.3033 106.941 20.2565C106.941 21.2097 107.088 22.0651 107.382 22.8227C107.701 23.5804 108.105 24.2158 108.596 24.7291C109.086 25.2423 109.65 25.6334 110.287 25.9022C110.949 26.1711 111.623 26.3055 112.31 26.3055C113.02 26.3055 113.695 26.1833 114.332 25.9389C114.994 25.67 115.57 25.279 116.06 24.7658C116.575 24.2525 116.98 23.6293 117.274 22.8961C117.568 22.1384 117.715 21.283 117.715 20.3298Z"
        fill="black" />
    <path
        d="M142.269 19.2666C142.269 17.6291 141.852 16.3827 141.019 15.5273C140.21 14.6718 139.119 14.2441 137.746 14.2441C136.349 14.2441 135.233 14.6718 134.4 15.5273C133.566 16.3827 133.149 17.6291 133.149 19.2666V29.91C133.149 30.2275 132.892 30.4848 132.575 30.4848H128.576C128.259 30.4848 128.001 30.2275 128.001 29.91V10.7496C128.001 10.4321 128.259 10.1748 128.576 10.1748H132.575C132.892 10.1748 133.149 10.4321 133.149 10.7496V12.7044C133.811 11.849 134.669 11.1646 135.723 10.6514C136.778 10.1381 137.966 9.8815 139.29 9.8815C140.467 9.8815 141.558 10.077 142.563 10.4681C143.568 10.8347 144.426 11.3846 145.137 12.1178C145.848 12.851 146.4 13.7675 146.792 14.8674C147.208 15.9427 147.417 17.177 147.417 18.5701V29.91C147.417 30.2275 147.16 30.4848 146.842 30.4848H142.844C142.526 30.4848 142.269 30.2275 142.269 29.91V19.2666Z"
        fill="black" />
    <ellipse cx="16" cy="15.9992" rx="16" ry="15.9992"
        transform="matrix(-4.37114e-08 1 1 4.37114e-08 0 0)" fill="#27BEFF" />
    <path
        d="M27.9942 15.9799C27.9942 22.6074 22.6218 27.98 15.9948 27.98C9.36785 27.98 3.99548 22.6074 3.99548 15.9799C3.99548 9.35238 9.36785 3.97986 15.9948 3.97986C22.6218 3.97986 27.9942 9.35238 27.9942 15.9799Z"
        stroke="white" stroke-width="3.42846" />
    <path
        d="M21.1779 15.9799C21.1779 18.8413 18.8584 21.1609 15.9972 21.1609C13.136 21.1609 10.8165 18.8413 10.8165 15.9799C10.8165 13.1185 13.136 10.7989 15.9972 10.7989C18.8584 10.7989 21.1779 13.1185 21.1779 15.9799Z"
        fill="white" stroke="white" stroke-width="1.06663" />
    <rect x="3.95812" y="14.2364" width="3.50456" height="3.5048" rx="1.75228" fill="white"
        stroke="white" stroke-width="1.06663" />
    <rect x="24.5353" y="14.2364" width="3.50456" height="3.5048" rx="1.75228" fill="white"
        stroke="white" stroke-width="1.06663" />
    <path d="M7.99805 23.9844L23.9972 7.98438" stroke="white" stroke-width="3.42846" />
    <path d="M8.00279 7.98437L24.002 23.9844" stroke="white" stroke-width="3.42846" />
    <path
        d="M18.2802 15.9888C18.2802 17.2512 17.2569 18.2746 15.9946 18.2746C14.7323 18.2746 13.709 17.2512 13.709 15.9888C13.709 14.7265 14.7323 13.7031 15.9946 13.7031C17.2569 13.7031 18.2802 14.7265 18.2802 15.9888Z"
        fill="#27BEFF" />
</svg>
    