<svg width="20" height="20" viewBox="0 0 20 20" fill="none" xmlns="http://www.w3.org/2000/svg">
<g clip-path="url(#clip0_2_3028)">
<path d="M10.0002 0C6.31826 0 3.3335 2.98477 3.3335 6.66667C3.3335 10.3486 6.31826 13.3333 10.0002 13.3333C13.6821 13.3333 16.6668 10.3486 16.6668 6.66667C16.6668 2.98477 13.6821 0 10.0002 0Z" fill="#00BAEE"/>
<path d="M5.00016 13.3339C6.39293 14.3801 8.12415 15 10.0002 15C11.8762 15 13.6074 14.3801 15.0002 13.3339V19.1667C15.0002 19.487 14.8165 19.779 14.5278 19.9178C14.2391 20.0565 13.8964 20.0175 13.6463 19.8174L10.0002 17.5L6.35408 19.8174C6.10393 20.0175 5.76123 20.0565 5.47251 19.9178C5.18378 19.779 5.00016 19.487 5.00016 19.1667V13.3339Z" fill="#00BAEE"/>
</g>
<defs>
<clipPath id="clip0_2_3028">
<rect width="20" height="20" fill="white"/>
</clipPath>
</defs>
</svg>
