<svg width="24" height="24" viewBox="0 0 24 24" fill="none" xmlns="http://www.w3.org/2000/svg">
<g clip-path="url(#clip0_15152_3654)">
<path d="M11.9863 23.9998C18.6197 23.9998 23.972 18.6288 23.972 12.014C24.0005 5.37084 18.6197 -0.000183105 11.9863 -0.000183105C5.38127 -0.000183105 0.000488281 5.37084 0.000488281 11.9857C0.000488281 18.6288 5.38127 23.9998 11.9863 23.9998Z" fill="#0071F3"/>
<path d="M13.8934 4.80548H12.5838H9.67988C9.22437 4.80548 8.79732 5.1447 8.74038 5.62527L8.45568 7.54753V7.5758H7.0322C6.66209 7.5758 6.34892 7.88675 6.34892 8.25424C6.34892 8.65 6.66209 8.93269 7.0322 8.96096H8.22793L8.02864 10.2896V10.4027H6.60515C6.23504 10.4027 5.92188 10.7136 5.92188 11.0811C5.92188 11.4486 6.23504 11.7595 6.60515 11.7595H7.80088L7.14607 15.8868L6.94679 17.2719L6.83291 18.0069C6.7475 18.6005 7.17454 19.1094 7.77241 19.1094H8.68344H9.93611H10.961C11.4165 19.1094 11.8151 18.7701 11.9005 18.2896L12.4984 14.5016H12.84H13.9788C16.655 14.5016 18.8471 12.2966 18.7902 9.61113C18.7617 6.86909 16.5411 4.80548 13.8934 4.80548ZM9.62294 8.90442L13.8934 8.93269C14.2635 8.93269 14.6052 9.24364 14.6052 9.6394C14.6052 10.0352 14.292 10.3461 13.8934 10.3461H9.39519L9.62294 8.90442ZM13.9219 13.0316H13.2101H12.8685H12.1568C11.7012 13.0316 11.3027 13.3709 11.2172 13.8514L10.6194 17.6394H8.2564L9.16743 11.703H13.8934C15.0322 11.703 15.9717 10.7701 15.9717 9.6394C15.9717 8.50866 15.0322 7.5758 13.8934 7.5758L9.8507 7.54753L10.05 6.19064H13.9788C15.9148 6.19064 17.4521 7.77368 17.4237 9.69594C17.3667 11.5617 15.8009 13.0316 13.9219 13.0316Z" fill="white"/>
</g>
<defs>
<clipPath id="clip0_15152_3654">
<path d="M0 12C0 5.37258 5.37258 0 12 0C18.6274 0 24 5.37258 24 12C24 18.6274 18.6274 24 12 24C5.37258 24 0 18.6274 0 12Z" fill="white"/>
</clipPath>
</defs>
</svg>
