<svg width="21" height="21" viewBox="0 0 21 21" fill="none" xmlns="http://www.w3.org/2000/svg">
<path d="M12.0711 1.94509L13.8337 5.49421C14.0713 5.98504 14.7088 6.45071 15.2463 6.55139L18.434 7.07998C20.4717 7.41979 20.9467 8.90488 19.4841 10.39L16.9965 12.8945C16.5839 13.3098 16.3464 14.1279 16.4839 14.7194L17.1965 17.8154C17.759 20.257 16.4589 21.2135 14.3213 19.9298L11.3336 18.1427C10.796 17.8154 9.89597 17.8154 9.35843 18.1427L6.37073 19.9298C4.23308 21.2009 2.93299 20.257 3.49553 17.8154L4.20808 14.7194C4.32059 14.1153 4.08307 13.2972 3.67054 12.8819L1.18287 10.3774C-0.279729 8.90488 0.195304 7.41979 2.23294 7.0674L5.42066 6.53881C5.9582 6.45071 6.59574 5.97246 6.83326 5.48162L8.59588 1.93251C9.55844 0.0195096 11.1085 0.0195099 12.0711 1.94509Z" fill="#9FE870"/>
</svg>
