<svg width="24" height="24" viewBox="0 0 24 24" fill="none" xmlns="http://www.w3.org/2000/svg">
    <path
        d="M18.9043 7.42604C18.6624 7.12835 18.2252 7.08184 17.9275 7.32371C17.6298 7.56558 17.5833 8.00281 17.8251 8.3005C18.8763 9.60289 19.4624 11.1472 19.5182 12.7658C19.6671 16.9335 16.3925 20.4499 12.2156 20.5895C8.03861 20.7383 4.53146 17.4637 4.38262 13.2961C4.23377 9.12845 7.50835 5.612 11.6853 5.47246C12.2156 5.45385 12.7737 5.50037 13.3784 5.6213C13.4156 5.6306 13.4528 5.6213 13.49 5.6213C13.5831 5.66782 13.6947 5.69572 13.797 5.69572C13.9552 5.69572 14.104 5.64921 14.2343 5.53758C14.532 5.2957 14.5785 4.85847 14.3459 4.56078L12.5039 2.263C12.2621 1.96531 11.8248 1.90949 11.5272 2.15136C11.2295 2.39324 11.183 2.83047 11.4155 3.12816L12.1877 4.08634C12.0109 4.07704 11.8248 4.06774 11.6481 4.07704C6.70831 4.24449 2.82906 8.41214 3.00581 13.3519C3.18256 18.2917 7.3409 22.1709 12.2807 21.9942C17.2205 21.8174 21.0997 17.6591 20.923 12.7193C20.8392 10.7936 20.1508 8.961 18.9043 7.42604Z"
        fill="black" />
</svg>
    