<svg width="131" height="122" viewBox="0 0 131 122" fill="none" xmlns="http://www.w3.org/2000/svg">
<g clip-path="url(#clip0_2_1015)">
<path d="M84.6887 54.3775V113.341L32.2277 83.1386L31.7817 24.3165L84.6887 54.3775Z" fill="#00DC35"/>
<path d="M84.6885 113.459C84.665 113.459 84.6415 113.459 84.6181 113.436L32.157 83.2331C32.1101 83.2095 32.0866 83.1622 32.0866 83.1385L31.6406 24.3165C31.6406 24.2692 31.6641 24.2456 31.6876 24.2219C31.7345 24.1983 31.758 24.1983 31.8049 24.2219L84.7119 54.3065C84.7589 54.3302 84.7824 54.3774 84.7824 54.4011V113.365C84.7824 113.412 84.7589 113.436 84.7119 113.459C84.7354 113.459 84.7119 113.459 84.6885 113.459ZM32.3448 83.0677L84.5711 113.129V54.4483L31.8988 24.5292L32.3448 83.0677Z" fill="black"/>
<path d="M79.3839 57.2843V104.408L37.3916 80.0427L37.0864 33.2497L79.3839 57.2843Z" fill="black"/>
<path d="M79.3841 104.526C79.3606 104.526 79.3371 104.526 79.3137 104.503L37.3448 80.1372C37.2979 80.1136 37.2744 80.0663 37.2744 80.0427L36.9458 33.2497C36.9458 33.2024 36.9693 33.1788 36.9927 33.1552C37.0397 33.1315 37.0632 33.1315 37.1101 33.1552L79.4075 57.1897C79.4545 57.2134 79.478 57.2606 79.478 57.2843V104.408C79.478 104.455 79.4545 104.479 79.4075 104.503C79.431 104.526 79.4076 104.526 79.3841 104.526ZM37.5091 79.9718L79.2432 104.195V57.3552L37.204 33.4388L37.5091 79.9718Z" fill="black"/>
<path d="M55.043 78.4354L43.0955 71.9127L39.9736 80.0424L58.3057 90.7244L55.043 78.4354Z" fill="#FFD731"/>
<path d="M58.3058 90.8427C58.2823 90.8427 58.2588 90.8427 58.2353 90.8191L39.9033 80.1134C39.8564 80.0898 39.8329 80.0189 39.8564 79.9716L42.9782 71.842C43.0017 71.8183 43.0252 71.7947 43.0486 71.7711C43.0721 71.7474 43.1191 71.7711 43.1425 71.7711L55.0666 78.2937C55.09 78.3173 55.1135 78.341 55.1135 78.3646L58.3762 90.6773C58.3996 90.7246 58.3762 90.7718 58.3292 90.7955C58.3527 90.8427 58.3292 90.8427 58.3058 90.8427ZM40.1146 79.9953L58.118 90.4882L54.9257 78.5064L43.166 72.0783L40.1146 79.9953Z" fill="black"/>
<path d="M55.0432 78.4354L90.7683 57.8276L77.2247 50.5251L43.0957 71.9128L55.0432 78.4354Z" fill="#FFD731"/>
<path d="M55.0433 78.5537C55.0199 78.5537 54.9964 78.5537 54.9964 78.53L43.0724 72.0074C43.0254 71.9838 43.002 71.9365 43.002 71.9129C43.002 71.8656 43.0254 71.842 43.0489 71.8183L77.1779 50.4306C77.2249 50.407 77.2483 50.407 77.2953 50.4306L90.8389 57.7568C90.8858 57.7804 90.9093 57.8277 90.9093 57.8513C90.9093 57.8986 90.8858 57.9459 90.8389 57.9459L55.1138 78.53C55.0668 78.53 55.0668 78.5537 55.0433 78.5537ZM43.3306 71.8892L55.0199 78.2701L90.5103 57.8277L77.2249 50.6433L43.3306 71.8892Z" fill="black"/>
<path d="M58.3056 90.7244L94.1012 69.644L90.7681 57.8276L55.043 78.4354L58.3056 90.7244Z" fill="black"/>
<path d="M58.3058 90.8427C58.2823 90.8427 58.2823 90.8427 58.2588 90.8427C58.2353 90.8191 58.1884 90.7954 58.1884 90.7718L54.9257 78.4591C54.9022 78.4118 54.9257 78.3409 54.9727 78.3173L90.6978 57.7331C90.7213 57.7095 90.7682 57.7095 90.7917 57.7331C90.8152 57.7568 90.8621 57.7804 90.8621 57.804L94.2187 69.5968C94.2421 69.6441 94.2187 69.715 94.1717 69.7386L58.3762 90.8427C58.3527 90.8427 58.3292 90.8427 58.3058 90.8427ZM55.1839 78.4827L58.3996 90.5591L93.9839 69.5968L90.6978 58.0403L55.1839 78.4827Z" fill="black"/>
<path d="M73.3984 89.1411L61.4744 82.6185L58.3525 90.7482L76.6846 101.454L73.3984 89.1411Z" fill="#FFD731"/>
<path d="M76.6847 101.572C76.6612 101.572 76.6377 101.572 76.6142 101.548L58.2822 90.8427C58.2353 90.8191 58.2118 90.7482 58.2353 90.7009L61.3571 82.5713C61.3806 82.5476 61.4041 82.524 61.4275 82.5004C61.451 82.5004 61.498 82.5004 61.5214 82.5004L73.4455 89.023C73.4689 89.0467 73.4924 89.0703 73.4924 89.0939L76.7551 101.407C76.7786 101.454 76.7551 101.501 76.7081 101.525C76.7316 101.548 76.7081 101.572 76.6847 101.572ZM58.4935 90.7009L76.4969 101.194L73.3046 89.2121L61.5449 82.784L58.4935 90.7009Z" fill="black"/>
<path d="M73.3986 89.1413L109.124 68.5571L95.6036 61.2309L61.4746 82.6186L73.3986 89.1413Z" fill="#FFD731"/>
<path d="M73.3988 89.2594C73.3753 89.2594 73.3519 89.2594 73.3519 89.2357L61.4278 82.7131C61.3809 82.6895 61.3574 82.6422 61.3574 82.6186C61.3574 82.5713 61.3809 82.5477 61.4044 82.524L95.5334 61.1127C95.5803 61.0891 95.6038 61.0891 95.6507 61.1127L109.194 68.4389C109.241 68.4625 109.265 68.5098 109.265 68.5334C109.265 68.5807 109.241 68.6279 109.194 68.6279L73.4692 89.2357C73.4458 89.2594 73.4223 89.2594 73.3988 89.2594ZM61.7095 82.6186L73.3988 88.9994L108.889 68.557L95.6038 61.3727L61.7095 82.6186Z" fill="black"/>
<path d="M76.6846 101.454L112.48 80.3501L109.124 68.5573L73.3984 89.1415L76.6846 101.454Z" fill="black"/>
<path d="M76.6847 101.572C76.6612 101.572 76.6612 101.572 76.6377 101.572C76.6142 101.549 76.5673 101.525 76.5673 101.501L73.3046 89.1887C73.2811 89.1414 73.3046 89.0705 73.3516 89.0469L109.077 68.4627C109.1 68.4391 109.147 68.4391 109.171 68.4627C109.194 68.4864 109.241 68.51 109.241 68.5336L112.598 80.3264C112.621 80.3737 112.598 80.4446 112.551 80.4682L76.7551 101.549C76.7316 101.549 76.7081 101.572 76.6847 101.572ZM73.5393 89.1887L76.7551 101.265L112.339 80.3028L109.053 68.7463L73.5393 89.1887Z" fill="black"/>
<path d="M64.2442 73.7327L52.2966 67.21L49.1748 75.3397L67.5068 86.0217L64.2442 73.7327Z" fill="#FFD731"/>
<path d="M67.5069 86.1398C67.4835 86.1398 67.46 86.1398 67.4365 86.1162L49.1045 75.4105C49.0575 75.3869 49.0341 75.316 49.0575 75.2687L52.1794 67.139C52.2029 67.1154 52.2263 67.0917 52.2498 67.0681C52.2733 67.0681 52.3202 67.0681 52.3437 67.0681L64.2677 73.5908C64.2912 73.6144 64.3147 73.638 64.3147 73.6617L67.5773 85.9744C67.6008 86.0216 67.5774 86.0689 67.5304 86.0925C67.5774 86.1398 67.5304 86.1398 67.5069 86.1398ZM49.3157 75.2687L67.3192 85.7617L64.1269 73.7798L52.3672 67.3517L49.3157 75.2687Z" fill="black"/>
<path d="M64.2444 73.7325L99.9695 53.1247L86.4259 45.7985L52.2969 67.2098L64.2444 73.7325Z" fill="#FFD731"/>
<path d="M64.2445 73.8507C64.221 73.8507 64.1976 73.8507 64.1976 73.8271L52.2735 67.3045C52.2266 67.2808 52.2031 67.2336 52.2031 67.2099C52.2031 67.1627 52.2266 67.139 52.2501 67.1154L86.3791 45.7041C86.426 45.6804 86.4495 45.6804 86.4964 45.7041L100.04 53.0302C100.087 53.0539 100.11 53.1011 100.11 53.1248C100.11 53.172 100.087 53.2193 100.04 53.2193L64.3149 73.8035C64.2915 73.8271 64.268 73.8507 64.2445 73.8507ZM52.5552 67.1863L64.2445 73.5671L99.7349 53.1248L86.4495 45.9404L52.5552 67.1863Z" fill="black"/>
<path d="M67.5068 86.0216L103.326 64.9411L99.9693 53.1247L64.2441 73.7325L67.5068 86.0216Z" fill="black"/>
<path d="M67.5069 86.1398C67.4835 86.1398 67.4834 86.1398 67.46 86.1398C67.4365 86.1162 67.3896 86.0925 67.3896 86.0689L64.1269 73.7562C64.1034 73.709 64.1269 73.6381 64.1738 73.6144L99.899 53.0302C99.9224 53.0066 99.9694 53.0066 99.9929 53.0302C100.016 53.0539 100.063 53.0775 100.063 53.1011L103.42 64.8939C103.443 64.9412 103.42 65.0121 103.373 65.0357L67.5773 86.1398C67.5539 86.1398 67.5304 86.1398 67.5069 86.1398ZM64.3851 73.7799L67.6008 85.8562L103.185 64.8703L99.899 53.3138L64.3851 73.7799Z" fill="black"/>
<path d="M84.689 54.3774V113.341L126.893 89.8503L126.986 30.8864L84.689 54.3774Z" fill="#00DC35"/>
<path d="M84.6887 113.459C84.6652 113.459 84.6417 113.459 84.6182 113.436C84.5713 113.412 84.5713 113.365 84.5713 113.341V54.3774C84.5713 54.3302 84.5948 54.2829 84.6417 54.2829L126.939 30.7919C126.986 30.7683 127.01 30.7683 127.057 30.7919C127.103 30.8155 127.103 30.8628 127.103 30.8864L126.986 89.8503C126.986 89.8976 126.963 89.9448 126.916 89.9448L84.7356 113.436C84.7356 113.459 84.7121 113.459 84.6887 113.459ZM84.806 54.4483V113.129L126.751 89.7794L126.869 31.0755L84.806 54.4483Z" fill="black"/>
<path d="M84.6887 54.3773L31.7817 24.3163L74.6425 0.470825L126.986 30.8863L84.6887 54.3773Z" fill="#9FE870"/>
<path d="M84.6885 54.4956C84.665 54.4956 84.6415 54.4956 84.6415 54.4719L31.711 24.411C31.6641 24.3874 31.6406 24.3401 31.6406 24.3165C31.6406 24.2692 31.6641 24.2219 31.711 24.2219L74.5953 0.376428C74.6422 0.352795 74.6657 0.352795 74.7127 0.376428L127.056 30.7919C127.103 30.8155 127.127 30.8628 127.127 30.8864C127.127 30.9337 127.103 30.9809 127.056 30.9809L84.7354 54.4956C84.7354 54.4956 84.7119 54.4956 84.6885 54.4956ZM32.0162 24.3165L84.6885 54.2592L126.751 30.8864L74.6422 0.612756L32.0162 24.3165Z" fill="black"/>
<path d="M79.384 57.2842L37.0865 33.2497L31.7817 24.3165L84.6887 54.3774V113.341L79.384 104.408V57.2842Z" fill="#00DC35"/>
<path d="M84.6887 113.459C84.6418 113.459 84.6183 113.436 84.5948 113.412L79.29 104.479C79.29 104.455 79.2666 104.432 79.2666 104.408V57.3552L37.0161 33.3442C36.9926 33.3442 36.9926 33.3206 36.9691 33.297L31.6643 24.3638C31.6409 24.3165 31.6409 24.2692 31.6878 24.222C31.7348 24.1747 31.7817 24.1747 31.8287 24.1983L84.7357 54.2829C84.7826 54.3065 84.8061 54.3538 84.8061 54.3774V113.341C84.8061 113.389 84.7591 113.436 84.7122 113.459H84.6887ZM79.5013 104.384L84.5714 112.916V54.4483L32.1103 24.6473L37.1804 33.1552L79.4544 57.1897C79.5013 57.2134 79.5248 57.2606 79.5248 57.2843V104.384H79.5013Z" fill="black"/>
<path d="M99.5232 111.545C99.5232 111.545 100.157 116.532 114.827 116.461C115.672 116.461 116.541 116.414 117.386 116.296C120.531 115.918 127.925 114.712 129.099 111.356L129.028 107.93C129.028 107.93 127.315 113.554 113.888 113.649C113.888 113.649 100.744 113.791 99.3589 108.284L99.5232 111.545Z" fill="#FFD731"/>
<path d="M114.569 116.603C100.204 116.603 99.4295 111.782 99.406 111.569L99.2417 108.331C99.2417 108.26 99.2886 108.213 99.3356 108.213C99.406 108.213 99.453 108.237 99.4764 108.308C100.814 113.649 113.748 113.578 113.889 113.578C120.766 113.53 124.498 111.994 126.399 110.718C128.465 109.347 128.911 107.953 128.911 107.929C128.934 107.882 128.981 107.835 129.052 107.835C129.099 107.835 129.146 107.882 129.146 107.953L129.216 111.38C129.216 111.404 129.216 111.404 129.216 111.427C128.019 114.83 120.555 116.059 117.409 116.437C116.564 116.532 115.696 116.579 114.827 116.603C114.757 116.603 114.663 116.603 114.569 116.603ZM99.6407 111.545C99.6642 111.711 100.65 116.437 114.827 116.366C115.672 116.366 116.541 116.319 117.386 116.201C120.484 115.823 127.808 114.618 128.981 111.356L128.934 108.473C128.16 109.867 125.061 113.72 113.912 113.79C113.889 113.79 110.579 113.814 107.152 113.176C103.021 112.396 100.486 111.025 99.5468 109.111L99.6407 111.545Z" fill="black"/>
<path d="M114.26 113.693C122.439 113.591 129.039 111.022 129.001 107.955C128.963 104.888 122.302 102.484 114.123 102.587C105.944 102.689 99.3441 105.258 99.3819 108.325C99.4196 111.392 106.081 113.795 114.26 113.693Z" fill="#FFD731"/>
<path d="M113.771 113.814C105.767 113.814 99.2889 111.38 99.2654 108.331C99.2419 106.795 100.791 105.33 103.631 104.243C106.425 103.156 110.157 102.518 114.123 102.47C118.09 102.423 121.846 102.943 124.663 103.983C127.526 105.023 129.122 106.441 129.122 107.977C129.169 111.096 122.48 113.743 114.264 113.838C114.1 113.814 113.936 113.814 113.771 113.814ZM114.123 102.707C110.18 102.754 106.471 103.368 103.702 104.456C100.955 105.519 99.4767 106.89 99.4767 108.331C99.5236 111.333 106.143 113.672 114.241 113.578C122.339 113.483 128.911 110.955 128.864 107.953C128.841 106.535 127.315 105.188 124.545 104.196C121.776 103.179 118.067 102.659 114.123 102.707Z" fill="black"/>
<path d="M114.245 112.559C120.752 112.477 126.003 110.433 125.973 107.993C125.943 105.552 120.644 103.64 114.137 103.721C107.629 103.802 102.379 105.846 102.409 108.287C102.439 110.727 107.738 112.64 114.245 112.559Z" fill="#FFD731"/>
<path d="M113.842 112.68C110.837 112.68 108.02 112.254 105.861 111.474C103.584 110.647 102.317 109.513 102.293 108.284C102.27 105.779 107.574 103.676 114.147 103.605C120.719 103.534 126.071 105.495 126.094 108C126.118 110.506 120.813 112.609 114.241 112.68C114.123 112.68 113.982 112.68 113.842 112.68ZM114.546 103.841C114.405 103.841 114.287 103.841 114.147 103.841C107.715 103.912 102.504 105.921 102.528 108.284C102.551 109.418 103.748 110.458 105.931 111.238C108.161 112.042 111.095 112.467 114.241 112.42C120.672 112.349 125.883 110.34 125.859 107.977C125.836 105.684 120.789 103.841 114.546 103.841Z" fill="black"/>
<path d="M125.977 108C125.977 108 122.808 104.361 112.926 104.81C112.926 104.81 104.053 105.33 102.481 108.733C102.481 108.733 102.105 107.622 103.302 106.582C103.302 106.582 108.513 102.092 120.249 104.29C120.249 104.29 125.578 105.094 125.977 108Z" fill="black"/>
<path d="M98.9832 107.291C98.9832 107.291 99.6169 112.278 114.287 112.207C115.132 112.207 116.001 112.16 116.846 112.041C119.991 111.663 127.385 110.458 128.559 107.102L128.488 103.675C128.488 103.675 126.775 109.3 113.348 109.395C113.348 109.395 100.204 109.536 98.8188 104.03L98.9832 107.291Z" fill="#FFD731"/>
<path d="M114.006 112.325C99.6406 112.325 98.866 107.504 98.8425 107.291L98.6782 104.054C98.6782 103.983 98.7252 103.935 98.7721 103.935C98.8425 103.935 98.8895 103.959 98.9129 104.03C100.251 109.371 113.184 109.3 113.325 109.3C120.203 109.253 123.935 107.717 125.836 106.441C127.901 105.07 128.347 103.676 128.347 103.652C128.371 103.605 128.418 103.557 128.488 103.557C128.535 103.557 128.582 103.605 128.582 103.676L128.653 107.102C128.653 107.126 128.653 107.126 128.653 107.15C127.456 110.553 119.991 111.782 116.846 112.16C116.001 112.254 115.132 112.302 114.264 112.325C114.194 112.325 114.1 112.325 114.006 112.325ZM99.1007 107.291C99.1242 107.457 100.11 112.183 114.287 112.112C115.132 112.112 116.001 112.065 116.846 111.947C119.944 111.569 127.268 110.364 128.441 107.102L128.394 104.219C127.62 105.613 124.521 109.466 113.372 109.536C113.349 109.536 110.039 109.56 106.612 108.922C102.481 108.142 99.9457 106.771 99.0068 104.857L99.1007 107.291Z" fill="black"/>
<path d="M113.697 109.44C121.876 109.339 128.476 106.771 128.438 103.704C128.4 100.637 121.738 98.2329 113.559 98.3342C105.38 98.4355 98.7804 101.004 98.8184 104.071C98.8565 107.138 105.518 109.542 113.697 109.44Z" fill="#FFD731"/>
<path d="M113.207 109.56C109.428 109.56 105.884 109.04 103.185 108.048C100.321 107.008 98.7249 105.59 98.7249 104.054C98.6779 100.934 105.368 98.2873 113.583 98.1928C121.822 98.0982 128.558 100.556 128.582 103.676C128.605 105.212 127.056 106.677 124.216 107.764C121.423 108.851 117.691 109.489 113.724 109.537C113.536 109.56 113.372 109.56 113.207 109.56ZM113.559 98.4527C105.461 98.5473 98.8892 101.076 98.9361 104.077C98.9596 105.495 100.485 106.842 103.255 107.835C106.048 108.851 109.757 109.371 113.724 109.324C117.667 109.277 121.376 108.662 124.146 107.575C126.892 106.512 128.371 105.141 128.371 103.699C128.3 100.698 121.681 98.3582 113.559 98.4527Z" fill="black"/>
<path d="M113.682 108.305C120.189 108.224 125.44 106.179 125.41 103.739C125.38 101.298 120.081 99.3859 113.574 99.4671C107.066 99.5484 101.816 101.593 101.846 104.033C101.876 106.474 107.175 108.386 113.682 108.305Z" fill="#FFD731"/>
<path d="M113.302 108.426C106.917 108.426 101.777 106.488 101.73 104.03C101.706 101.525 107.011 99.4217 113.583 99.3508C116.752 99.3036 119.733 99.729 121.963 100.556C124.24 101.383 125.507 102.518 125.531 103.747C125.554 106.252 120.249 108.355 113.677 108.426C113.56 108.426 113.419 108.426 113.302 108.426ZM113.982 99.5872C113.841 99.5872 113.724 99.5872 113.583 99.5872C107.152 99.6581 101.941 101.667 101.964 104.03C101.988 106.393 107.246 108.26 113.677 108.19C120.109 108.119 125.319 106.11 125.296 103.747C125.272 102.612 124.075 101.572 121.892 100.792C119.756 100.013 116.963 99.5872 113.982 99.5872Z" fill="black"/>
<path d="M125.413 103.746C125.413 103.746 122.244 100.107 112.362 100.556C112.362 100.556 103.49 101.076 101.917 104.479C101.917 104.479 101.542 103.368 102.739 102.329C102.739 102.329 107.95 97.8383 119.686 100.036C119.686 100.036 125.014 100.816 125.413 103.746Z" fill="black"/>
<path d="M99.5232 103.038C99.5232 103.038 100.157 108.024 114.827 107.953C115.672 107.953 116.541 107.906 117.386 107.788C120.531 107.41 127.925 106.204 129.099 102.849L129.028 99.4218C129.028 99.4218 127.315 105.046 113.888 105.141C113.888 105.141 100.744 105.283 99.3589 99.7763L99.5232 103.038Z" fill="#FFD731"/>
<path d="M114.569 108.071C100.204 108.071 99.4295 103.25 99.406 103.038L99.2417 99.7999C99.2417 99.729 99.2886 99.6818 99.3356 99.6818C99.406 99.6818 99.453 99.7054 99.4764 99.7763C100.814 105.117 113.748 105.046 113.889 105.046C120.766 104.999 124.498 103.463 126.399 102.187C128.465 100.816 128.911 99.4218 128.911 99.3982C128.934 99.3509 128.981 99.3036 129.052 99.3036C129.099 99.3036 129.146 99.3509 129.146 99.4218L129.216 102.849C129.216 102.872 129.216 102.872 129.216 102.896C128.019 106.299 120.555 107.528 117.409 107.906C116.564 108.001 115.696 108.048 114.827 108.071C114.757 108.071 114.663 108.071 114.569 108.071ZM99.6407 103.014C99.6642 103.179 100.65 107.882 114.827 107.835C115.672 107.835 116.541 107.788 117.386 107.67C120.484 107.292 127.808 106.086 128.981 102.825L128.934 99.9417C128.16 101.336 125.061 105.188 113.912 105.259C113.889 105.259 110.579 105.283 107.152 104.645C103.021 103.865 100.486 102.494 99.5468 100.58L99.6407 103.014Z" fill="black"/>
<path d="M114.259 105.162C122.439 105.06 129.038 102.491 129.001 99.4238C128.963 96.3569 122.302 93.9534 114.123 94.0555C105.944 94.1576 99.3436 96.7266 99.3814 99.7935C99.4191 102.86 106.08 105.264 114.259 105.162Z" fill="#FFD731"/>
<path d="M113.748 105.306C109.969 105.306 106.425 104.787 103.725 103.794C100.862 102.754 99.2654 101.336 99.2654 99.8C99.2419 98.2639 100.791 96.7987 103.631 95.7116C106.425 94.6245 110.157 93.9864 114.123 93.9391C118.09 93.8918 121.846 94.4118 124.663 95.4516C127.526 96.4915 129.122 97.9094 129.122 99.4456C129.146 100.982 127.597 102.447 124.757 103.534C121.963 104.621 118.231 105.259 114.264 105.306C114.1 105.306 113.912 105.306 113.748 105.306ZM114.123 94.1991C110.18 94.2463 106.471 94.8608 103.702 95.9479C100.955 97.0114 99.4767 98.3821 99.4767 99.8237C99.5001 101.242 101.026 102.589 103.796 103.581C106.589 104.598 110.297 105.117 114.264 105.07C118.208 105.023 121.916 104.408 124.686 103.321C127.432 102.258 128.911 100.887 128.911 99.4456C128.888 98.0276 127.362 96.6805 124.592 95.6879C121.776 94.6717 118.067 94.1518 114.123 94.1991Z" fill="black"/>
<path d="M114.245 104.027C120.752 103.946 126.003 101.902 125.973 99.4614C125.943 97.021 120.644 95.1084 114.137 95.1896C107.629 95.2708 102.379 97.3151 102.409 99.7556C102.439 102.196 107.738 104.109 114.245 104.027Z" fill="#FFD731"/>
<path d="M113.842 104.148C110.837 104.148 108.02 103.723 105.861 102.943C103.584 102.116 102.317 100.982 102.293 99.7526C102.27 97.2476 107.574 95.1442 114.147 95.0733C120.719 95.0024 126.071 96.964 126.094 99.469C126.118 101.974 120.813 104.077 114.241 104.148C114.123 104.148 113.982 104.148 113.842 104.148ZM114.546 95.3333C114.405 95.3333 114.287 95.3333 114.147 95.3333C107.715 95.4042 102.504 97.413 102.528 99.7763C102.551 100.911 103.748 101.95 105.931 102.73C108.161 103.534 111.095 103.959 114.241 103.912C120.672 103.841 125.883 101.832 125.859 99.469C125.836 97.153 120.789 95.3333 114.546 95.3333Z" fill="black"/>
<path d="M125.977 99.4691C125.977 99.4691 122.808 95.8296 112.926 96.2787C112.926 96.2787 104.053 96.7986 102.481 100.202C102.481 100.202 102.105 99.091 103.302 98.0511C103.302 98.0511 108.513 93.5609 120.249 95.7587C120.249 95.7587 125.578 96.5622 125.977 99.4691Z" fill="black"/>
<path d="M97.9973 98.7835C97.9973 98.7835 98.6311 103.77 113.301 103.699C114.146 103.699 115.015 103.652 115.86 103.534C119.005 103.156 126.399 101.95 127.573 98.5945L127.502 95.1677C127.502 95.1677 125.789 100.792 112.362 100.887C112.362 100.887 99.2179 101.029 97.833 95.5222L97.9973 98.7835Z" fill="#FFD731"/>
<path d="M113.043 103.817C98.6782 103.817 97.9036 98.9962 97.8801 98.7835L97.7158 95.5458C97.7158 95.4749 97.7628 95.4277 97.8097 95.4277C97.8801 95.4277 97.9271 95.4513 97.9505 95.5222C99.2885 100.863 112.222 100.792 112.363 100.792C119.24 100.745 122.972 99.2089 124.874 97.9328C126.939 96.5621 127.385 95.1677 127.385 95.1441C127.409 95.0968 127.455 95.0496 127.526 95.0496C127.573 95.0496 127.62 95.0968 127.62 95.1677L127.69 98.5945C127.69 98.6181 127.69 98.6181 127.69 98.6417C126.493 102.045 119.029 103.274 115.884 103.652C115.039 103.746 114.17 103.794 113.302 103.817C113.231 103.817 113.137 103.817 113.043 103.817ZM98.1149 98.7599C98.1383 98.9253 99.1007 103.628 113.302 103.581C114.147 103.581 115.015 103.534 115.86 103.416C118.958 103.037 126.282 101.832 127.455 98.5708L127.409 95.6876C126.634 97.082 123.536 100.934 112.386 101.005C112.363 101.005 109.053 101.029 105.626 100.391C101.495 99.6107 98.9599 98.24 98.021 96.3257L98.1149 98.7599Z" fill="black"/>
<path d="M112.734 100.908C120.913 100.806 127.513 98.2365 127.475 95.1696C127.437 92.1027 120.776 89.6992 112.597 89.8013C104.418 89.9034 97.8177 92.4724 97.8555 95.5393C97.8933 98.6062 104.554 101.01 112.734 100.908Z" fill="#FFD731"/>
<path d="M112.246 101.029C104.241 101.029 97.763 98.5943 97.7395 95.5457C97.6926 92.4262 104.382 89.7793 112.598 89.6848C116.564 89.6375 120.32 90.1574 123.137 91.1973C126 92.2371 127.597 93.6551 127.597 95.1912C127.643 98.3108 120.954 100.958 112.738 101.052C112.574 101.029 112.41 101.029 112.246 101.029ZM113.114 89.9211C112.95 89.9211 112.785 89.9211 112.598 89.9211C104.5 90.0156 97.9273 92.5443 97.9742 95.5457C98.0212 98.5471 104.64 100.887 112.738 100.792C120.836 100.698 127.409 98.169 127.362 95.1676C127.338 93.7496 125.813 92.4026 123.043 91.41C120.367 90.4647 116.87 89.9211 113.114 89.9211Z" fill="black"/>
<path d="M112.719 99.7734C119.226 99.6922 124.477 97.648 124.447 95.2075C124.417 92.767 119.118 90.8544 112.611 90.9356C106.104 91.0169 100.853 93.0611 100.883 95.5016C100.913 97.9421 106.212 99.8547 112.719 99.7734Z" fill="#FFD731"/>
<path d="M112.316 99.8943C109.311 99.8943 106.494 99.4689 104.335 98.689C102.058 97.8619 100.791 96.7275 100.767 95.4986C100.744 92.9935 106.048 90.8902 112.621 90.8193C115.79 90.772 118.771 91.1974 121 92.0246C123.277 92.8517 124.545 93.9861 124.568 95.215C124.592 97.7201 119.287 99.8234 112.715 99.8943C112.574 99.8943 112.456 99.8943 112.316 99.8943ZM113.02 91.0556C112.879 91.0556 112.762 91.0556 112.621 91.0556C106.189 91.1265 100.978 93.1353 101.002 95.4986C101.025 96.633 102.222 97.6728 104.405 98.4527C106.635 99.2562 109.569 99.6816 112.715 99.6343C119.146 99.5634 124.357 97.5546 124.334 95.1914C124.31 94.057 123.113 93.0171 120.93 92.2373C118.794 91.481 116.001 91.0556 113.02 91.0556Z" fill="black"/>
<path d="M124.451 95.2149C124.451 95.2149 121.282 91.5755 111.4 92.0245C111.4 92.0245 102.527 92.5444 100.955 95.9476C100.955 95.9476 100.579 94.8368 101.776 93.797C101.776 93.797 106.987 89.3067 118.723 91.5046C118.723 91.5046 124.052 92.3081 124.451 95.2149Z" fill="black"/>
<path d="M99.5232 94.506C99.5232 94.506 100.157 99.4925 114.827 99.4216C115.672 99.4216 116.541 99.3743 117.386 99.2562C120.531 98.878 127.925 97.6728 129.099 94.3169L129.028 90.8901C129.028 90.8901 127.315 96.5147 113.888 96.6093C113.888 96.6093 100.744 96.7511 99.3589 91.2446L99.5232 94.506Z" fill="#FFD731"/>
<path d="M114.569 99.5635C100.204 99.5635 99.4295 94.7424 99.406 94.5297L99.2417 91.292C99.2417 91.2211 99.2886 91.1738 99.3356 91.1738C99.406 91.1738 99.453 91.1975 99.4764 91.2684C100.814 96.6094 113.748 96.5385 113.889 96.5385C120.766 96.4912 124.498 94.9551 126.399 93.6789C128.465 92.3082 128.911 90.9139 128.911 90.8902C128.934 90.843 128.981 90.7957 129.052 90.7957C129.099 90.7957 129.146 90.843 129.146 90.9139L129.216 94.3406C129.216 94.3643 129.216 94.3643 129.216 94.3879C128.019 97.791 120.555 99.0199 117.409 99.3981C116.564 99.4926 115.696 99.5398 114.827 99.5635C114.757 99.5635 114.663 99.5635 114.569 99.5635ZM99.6407 94.5061C99.6642 94.6715 100.65 99.3744 114.827 99.3272C115.672 99.3272 116.541 99.2799 117.386 99.1617C120.484 98.7836 127.808 97.5783 128.981 94.317L128.934 91.4338C128.16 92.8281 125.061 96.6803 113.912 96.7512C113.889 96.7512 110.579 96.7748 107.152 96.1367C103.021 95.3568 100.486 93.9861 99.5468 92.0719L99.6407 94.5061Z" fill="black"/>
<path d="M114.259 96.6541C122.439 96.552 129.038 93.983 129.001 90.9161C128.963 87.8492 122.302 85.4457 114.123 85.5478C105.944 85.6499 99.3436 88.2189 99.3814 91.2858C99.4191 94.3527 106.08 96.7562 114.259 96.6541Z" fill="#FFD731"/>
<path d="M113.748 96.775C109.969 96.775 106.424 96.2551 103.725 95.2625C100.862 94.2226 99.2654 92.8047 99.2654 91.2685C99.2184 88.149 105.908 85.5021 114.123 85.4076C122.362 85.3131 129.099 87.7709 129.122 90.8904C129.146 92.4266 127.597 93.8918 124.757 94.9789C121.963 96.066 118.231 96.7041 114.264 96.7514C114.1 96.775 113.912 96.775 113.748 96.775ZM114.123 85.6676C106.025 85.7621 99.4532 88.2908 99.5001 91.2922C99.5236 92.7101 101.049 94.0572 103.819 95.0498C106.612 96.066 110.321 96.5859 114.288 96.5387C118.231 96.4914 121.94 95.8769 124.71 94.7898C127.456 93.7264 128.935 92.3557 128.935 90.9141C128.864 87.9363 122.221 85.573 114.123 85.6676Z" fill="black"/>
<path d="M114.245 95.5196C120.752 95.4384 126.003 93.3942 125.973 90.9537C125.943 88.5132 120.644 86.6006 114.137 86.6819C107.629 86.7631 102.379 88.8073 102.409 91.2478C102.439 93.6883 107.738 95.6009 114.245 95.5196Z" fill="#FFD731"/>
<path d="M113.842 95.6404C110.837 95.6404 108.02 95.215 105.861 94.4351C103.584 93.608 102.317 92.4736 102.293 91.2447C102.27 88.7396 107.574 86.6363 114.147 86.5654C120.719 86.4945 126.071 88.456 126.094 90.9611C126.118 93.4662 120.813 95.5695 114.241 95.6404C114.123 95.6404 113.982 95.6404 113.842 95.6404ZM114.546 86.8017C114.405 86.8017 114.287 86.8017 114.147 86.8017C107.715 86.8726 102.504 88.8814 102.528 91.2447C102.551 92.3791 103.748 93.4189 105.931 94.2224C108.161 95.026 111.095 95.4513 114.241 95.4041C120.672 95.3332 125.883 93.3244 125.859 90.9611C125.836 88.6451 120.789 86.8017 114.546 86.8017Z" fill="black"/>
<path d="M125.977 90.9611C125.977 90.9611 122.808 87.3217 112.926 87.7707C112.926 87.7707 104.053 88.2906 102.481 91.6938C102.481 91.6938 102.105 90.583 103.302 89.5432C103.302 89.5432 108.513 85.053 120.249 87.2508C120.249 87.2508 125.578 88.0543 125.977 90.9611Z" fill="black"/>
<path d="M99.5232 90.2282C99.5232 90.2282 100.157 95.2148 114.827 95.1439C115.672 95.1439 116.541 95.0966 117.386 94.9784C120.531 94.6003 127.925 93.395 129.099 90.0392L129.028 86.6124C129.028 86.6124 127.315 92.237 113.888 92.3316C113.888 92.3316 100.744 92.4734 99.3589 86.9669L99.5232 90.2282Z" fill="#FFD731"/>
<path d="M114.569 95.2859C100.204 95.2859 99.4295 90.4648 99.406 90.2521L99.2417 87.0144C99.2417 86.9435 99.2886 86.8963 99.3356 86.8963C99.406 86.8963 99.453 86.9199 99.4764 86.9908C100.814 92.3318 113.748 92.2609 113.889 92.2609C120.766 92.2136 124.498 90.6775 126.399 89.4013C128.465 88.0306 128.911 86.6363 128.911 86.6127C128.934 86.5654 128.981 86.5181 129.052 86.5181C129.099 86.5181 129.146 86.5654 129.146 86.6363L129.216 90.063C129.216 90.0867 129.216 90.0867 129.216 90.1103C128.019 93.5134 120.555 94.7423 117.409 95.1205C116.564 95.215 115.696 95.2623 114.827 95.2859C114.757 95.2859 114.663 95.2859 114.569 95.2859ZM99.6407 90.2285C99.6642 90.3939 100.65 95.0968 114.827 95.0496C115.672 95.0496 116.541 95.0023 117.386 94.8841C120.484 94.506 127.808 93.3007 128.981 90.0394L128.934 87.1562C128.16 88.5505 125.061 92.4027 113.912 92.4736C113.889 92.4736 110.579 92.4972 107.152 91.8591C103.021 91.0793 100.486 89.7086 99.5468 87.7943L99.6407 90.2285Z" fill="black"/>
<path d="M114.26 92.3765C122.439 92.2744 129.039 89.7054 129.001 86.6385C128.963 83.5715 122.302 81.1681 114.123 81.2702C105.944 81.3723 99.3441 83.9412 99.3819 87.0082C99.4196 90.0751 106.081 92.4786 114.26 92.3765Z" fill="#FFD731"/>
<path d="M113.771 92.4972C105.767 92.4972 99.2889 90.063 99.2654 87.0144C99.2184 83.8949 105.908 81.248 114.123 81.1535C118.09 81.1062 121.846 81.6261 124.663 82.666C127.526 83.7058 129.122 85.1238 129.122 86.6599C129.169 89.7795 122.48 92.4263 114.264 92.5209C114.1 92.4972 113.936 92.4972 113.771 92.4972ZM114.64 81.3898C114.476 81.3898 114.311 81.3898 114.123 81.3898C106.025 81.4843 99.4532 84.013 99.5001 87.0144C99.5471 90.0158 106.166 92.3554 114.264 92.2609C122.362 92.1664 128.935 89.6377 128.888 86.6363C128.864 85.2183 127.338 83.8712 124.569 82.8787C121.893 81.9097 118.395 81.3898 114.64 81.3898Z" fill="black"/>
<path d="M114.245 91.2423C120.752 91.1611 126.003 89.1168 125.973 86.6763C125.943 84.2358 120.644 82.3233 114.137 82.4045C107.629 82.4857 102.379 84.53 102.409 86.9705C102.439 89.411 107.738 91.3235 114.245 91.2423Z" fill="#FFD731"/>
<path d="M113.842 91.3629C110.837 91.3629 108.02 90.9375 105.861 90.1577C103.584 89.3305 102.317 88.1961 102.293 86.9672C102.27 84.4622 107.574 82.3588 114.147 82.2879C120.719 82.217 126.071 84.1786 126.094 86.6836C126.118 89.1887 120.813 91.292 114.241 91.3629C114.123 91.3629 113.982 91.3629 113.842 91.3629ZM114.147 82.5243C107.715 82.5952 102.504 84.6039 102.528 86.9672C102.551 88.1016 103.748 89.1414 105.931 89.9213C108.161 90.7248 111.095 91.1502 114.241 91.103C120.672 91.0321 125.883 89.0233 125.859 86.66C125.812 84.3204 120.578 82.4534 114.147 82.5243Z" fill="black"/>
<path d="M125.977 86.6836C125.977 86.6836 122.808 83.0441 112.926 83.4931C112.926 83.4931 104.053 84.0131 102.481 87.4162C102.481 87.4162 102.105 86.3054 103.302 85.2656C103.302 85.2656 108.513 80.7754 120.249 82.9732C120.249 82.9732 125.578 83.7767 125.977 86.6836Z" fill="black"/>
<path d="M98.9599 89.9684C98.9599 89.9684 100.814 94.6241 115.015 90.8192C115.837 90.6065 116.658 90.3229 117.456 90.0157C120.39 88.8577 127.244 85.7854 127.526 82.2641L126.611 78.9555C126.611 78.9555 126.376 84.8401 113.419 88.3614C113.419 88.3614 100.744 91.859 98.021 86.8961L98.9599 89.9684Z" fill="#FFD731"/>
<path d="M105.462 92.45C99.8991 92.45 98.8897 90.1576 98.8193 90.0158L97.8569 86.9435C97.8335 86.8962 97.857 86.8253 97.9274 86.8017C97.9743 86.7781 98.0447 86.8017 98.0682 86.849C100.721 91.6701 113.208 88.2906 113.325 88.2669C119.968 86.4708 123.184 84.0367 124.709 82.3115C126.353 80.4445 126.446 79.0029 126.446 78.9792C126.446 78.932 126.493 78.8611 126.54 78.8611C126.611 78.8611 126.658 78.8847 126.658 78.9556L127.573 82.2642C127.573 82.2878 127.573 82.2878 127.573 82.3115C127.268 85.9037 120.367 88.9996 117.41 90.1812C116.611 90.4884 115.79 90.772 114.968 90.9847C110.884 92.0482 107.786 92.45 105.462 92.45ZM99.054 89.9212C99.1245 90.063 101.237 94.3878 114.945 90.7011C115.766 90.4884 116.588 90.2048 117.363 89.8976C120.273 88.7632 127.057 85.7146 127.362 82.2642L126.587 79.4992C126.188 81.0589 124.146 85.5492 113.396 88.4796C113.372 88.4796 110.18 89.3541 106.706 89.614C102.528 89.9212 99.7113 89.2359 98.3264 87.6052L99.054 89.9212Z" fill="black"/>
<path d="M113.725 88.2842C121.612 86.0984 127.349 81.9293 126.541 78.9721C125.732 76.015 118.684 75.3897 110.797 77.5755C102.911 79.7613 97.1735 83.9305 97.982 86.8876C98.7905 89.8447 105.839 90.47 113.725 88.2842Z" fill="#FFD731"/>
<path d="M104.993 89.7086C101.12 89.7086 98.3498 88.7396 97.8569 86.9435C97.0353 83.9185 102.833 79.6882 110.767 77.4904C114.593 76.4269 118.348 75.9779 121.353 76.2615C124.381 76.5215 126.282 77.4904 126.681 78.9793C127.503 82.0043 121.705 86.2345 113.771 88.4324C110.602 89.2832 107.574 89.7086 104.993 89.7086ZM110.837 77.7031C103.021 79.8773 97.2935 83.9894 98.0916 86.8726C98.8897 89.7558 105.884 90.3467 113.701 88.1724C121.517 85.9982 127.244 81.8861 126.446 79.0029C126.071 77.6322 124.263 76.7342 121.329 76.4742C118.372 76.2142 114.64 76.6396 110.837 77.7031Z" fill="black"/>
<path d="M113.426 87.1906C119.7 85.4517 124.265 82.1344 123.622 79.7813C122.978 77.4282 117.371 76.9303 111.097 78.6693C104.822 80.4082 100.258 83.7254 100.901 86.0785C101.545 88.4317 107.152 88.9295 113.426 87.1906Z" fill="#FFD731"/>
<path d="M106.471 88.3379C105.979 88.3379 105.509 88.3143 105.063 88.267C102.645 88.0543 101.143 87.2744 100.815 86.0928C100.486 84.9111 101.401 83.4695 103.373 82.0279C105.321 80.61 108.044 79.381 111.096 78.5303C117.433 76.7814 123.113 77.3014 123.771 79.7119C124.428 82.1225 119.827 85.5019 113.49 87.2744C111.002 87.9834 108.56 88.3379 106.471 88.3379ZM118.114 77.7504C116.095 77.7504 113.677 78.0812 111.142 78.7902C108.115 79.6174 105.415 80.8463 103.49 82.2406C101.613 83.6113 100.744 84.9584 101.026 86.0455C101.331 87.1326 102.763 87.8416 105.063 88.0543C107.41 88.267 110.368 87.9125 113.396 87.0853C119.593 85.3602 124.123 82.1225 123.512 79.8301C123.137 78.4594 121.048 77.7504 118.114 77.7504Z" fill="black"/>
<path d="M123.629 79.7827C123.629 79.7827 119.639 77.065 110.203 80.0427C110.203 80.0427 101.753 82.8077 101.096 86.4945C101.096 86.4945 100.462 85.5255 101.354 84.2021C101.354 84.2021 105.274 78.5066 117.174 77.6794C117.151 77.6558 122.526 77.065 123.629 79.7827Z" fill="black"/>
<path d="M110.612 118.685C117.172 114.477 119.638 106.56 116.121 101.001C112.603 95.4418 104.434 94.3463 97.8736 98.554C91.3136 102.762 88.8471 110.679 92.3646 116.238C95.882 121.797 104.051 122.893 110.612 118.685Z" fill="#FFD731"/>
<path d="M102.175 121.353C98.1147 121.353 94.3825 119.604 92.27 116.295C88.7257 110.694 91.2137 102.683 97.833 98.4527C104.452 94.2224 112.691 95.3332 116.235 100.934C117.949 103.652 118.324 107.008 117.268 110.387C116.212 113.743 113.888 116.744 110.672 118.777C107.973 120.526 104.992 121.353 102.175 121.353ZM106.33 96.113C103.56 96.113 100.603 96.9402 97.9503 98.6417C91.4485 102.801 88.9839 110.671 92.4578 116.154C95.9317 121.636 104.053 122.724 110.532 118.564C113.677 116.555 115.977 113.601 117.01 110.293C118.043 106.984 117.691 103.699 116.001 101.052C113.982 97.8146 110.32 96.113 106.33 96.113Z" fill="black"/>
<path d="M109.416 117.053C115.9 112.894 118.344 105.079 114.875 99.5971C111.407 94.1151 103.339 93.0422 96.8552 97.2009C90.3716 101.359 87.9277 109.175 91.3964 114.657C94.8651 120.139 102.933 121.212 109.416 117.053Z" fill="#FFD731"/>
<path d="M101.096 119.722C100.485 119.722 99.8751 119.675 99.2883 119.604C95.8613 119.155 93.0212 117.406 91.3311 114.736C87.8337 109.206 90.2983 101.289 96.8237 97.1056C99.9925 95.0732 103.607 94.2224 107.034 94.6714C110.461 95.1204 113.301 96.8693 114.991 99.5398C118.489 105.07 116.024 112.987 109.499 117.17C106.893 118.824 103.959 119.722 101.096 119.722ZM105.18 94.7896C102.363 94.7896 99.4761 95.664 96.9176 97.2946C90.5096 101.407 88.0685 109.158 91.4954 114.594C93.162 117.217 95.9317 118.919 99.2883 119.368C102.668 119.817 106.236 118.966 109.335 116.981C115.743 112.869 118.184 105.117 114.757 99.6815C113.09 97.0583 110.32 95.3567 106.964 94.9077C106.377 94.8368 105.79 94.7896 105.18 94.7896Z" fill="black"/>
<path d="M108.307 115.299C113.642 111.877 115.652 105.444 112.797 100.93C109.941 96.417 103.3 95.5326 97.965 98.9548C92.6295 102.377 90.6193 108.81 93.475 113.324C96.3308 117.837 102.971 118.721 108.307 115.299Z" fill="#FFD731"/>
<path d="M101.448 117.501C100.955 117.501 100.438 117.477 99.9454 117.406C97.1052 117.028 94.7814 115.61 93.3731 113.389C91.9647 111.167 91.683 108.449 92.5281 105.684C93.3731 102.943 95.2978 100.509 97.8798 98.8544C103.255 95.404 109.992 96.3021 112.879 100.863C115.766 105.424 113.747 111.947 108.349 115.397C106.236 116.792 103.818 117.501 101.448 117.501ZM104.828 97.011C102.574 97.011 100.18 97.6728 98.0206 99.0671C95.4621 100.698 93.5843 103.085 92.7628 105.779C91.9178 108.449 92.2229 111.12 93.5843 113.27C94.9457 115.421 97.2226 116.815 99.9923 117.193C102.762 117.572 105.696 116.863 108.255 115.232C113.512 111.852 115.508 105.472 112.691 101.029C111.048 98.3817 108.067 97.011 104.828 97.011Z" fill="black"/>
<path d="M92.6924 105.613C92.6924 105.613 96.3776 98.429 104.616 98.1218C112.855 97.8146 114.005 106.771 114.005 106.771C114.005 106.771 115.32 100.603 108.56 97.531C108.56 97.531 103.771 95.4749 98.3493 98.7126C98.3493 98.7126 93.8895 101.383 92.6924 105.613Z" fill="black"/>
<path d="M31.7814 24.411L8.98957 61.3491L3.21533 59.7657L26.3592 23.064L31.7814 24.411Z" fill="#9FE870"/>
<path d="M8.98988 61.4672H8.96641L3.19218 59.8838C3.14523 59.8838 3.12176 59.8366 3.12176 59.8129C3.09829 59.7657 3.12176 59.742 3.12176 59.6948L26.2656 22.993C26.2891 22.9457 26.3361 22.9221 26.383 22.9457L31.8052 24.2928C31.8521 24.2928 31.8756 24.3401 31.8756 24.3637C31.8756 24.3873 31.8756 24.4346 31.8756 24.4819L9.08378 61.4199C9.0603 61.4436 9.01336 61.4672 8.98988 61.4672ZM3.40343 59.6948L8.94294 61.2073L31.5939 24.4819L26.4065 23.2057L3.40343 59.6948Z" fill="black"/>
<path d="M8.98957 120.809V61.3491L3.21533 59.7657V118.942L8.98957 120.809Z" fill="black"/>
<path d="M8.98978 120.927C8.9663 120.927 8.9663 120.927 8.94283 120.927L3.1686 119.06C3.12165 119.037 3.07471 118.99 3.07471 118.942V59.7657C3.07471 59.7184 3.09818 59.6948 3.12165 59.6712C3.14512 59.6475 3.19207 59.6475 3.21554 59.6475L8.98978 61.2309C9.03672 61.2546 9.08367 61.3018 9.08367 61.3491V120.809C9.08367 120.857 9.06019 120.88 9.03672 120.904C9.03672 120.927 9.01325 120.927 8.98978 120.927ZM3.3329 118.848L8.87241 120.644V61.4436L3.3329 59.9311V118.848Z" fill="black"/>
<path d="M8.99023 120.809L32.228 83.1386L31.782 24.4111L8.99023 61.3492V120.809Z" fill="#00DC35"/>
<path d="M8.98992 120.927H8.96645C8.9195 120.904 8.87256 120.857 8.87256 120.809V61.3491C8.87256 61.3255 8.87256 61.3018 8.89603 61.2782L31.6878 24.3401C31.7113 24.2928 31.7817 24.2692 31.8287 24.2928C31.8756 24.3165 31.9226 24.3637 31.9226 24.411L32.3685 83.1149C32.3685 83.1385 32.3685 83.1622 32.3451 83.1858L9.08381 120.88C9.06034 120.904 9.01339 120.927 8.98992 120.927ZM9.10728 61.3964V120.407L32.1103 83.1149L31.6644 24.86L9.10728 61.3964Z" fill="black"/>
<path d="M3.21556 79.9718L0.117188 79.3573V99.2089L3.21556 99.9887V79.9718Z" fill="black"/>
<path d="M3.2157 100.107H3.19222L0.117327 99.327C0.0703825 99.3034 0.0234375 99.2561 0.0234375 99.2088V79.3809C0.0234375 79.3337 0.04691 79.31 0.0703825 79.2864C0.093855 79.2628 0.1408 79.2628 0.164272 79.2628L3.23917 79.8536C3.28611 79.8536 3.33306 79.9245 3.33306 79.9717V99.9887C3.33306 100.036 3.30959 100.06 3.28611 100.083C3.26264 100.083 3.23917 100.107 3.2157 100.107ZM0.23469 99.1143L3.07486 99.8233V80.0663L0.23469 79.5227V99.1143Z" fill="black"/>
<path d="M0.117188 79.3572L3.21556 74.2762V79.9717L0.117188 79.3572Z" fill="#9FE870"/>
<path d="M3.21572 80.0899C3.19225 80.0899 3.19225 80.0899 3.21572 80.0899L0.117354 79.4991C0.0704087 79.4991 0.0469362 79.4754 0.0234638 79.4282C-8.74931e-06 79.3809 -8.74931e-06 79.3573 0.0234638 79.31L3.09836 74.229C3.12183 74.1817 3.19225 74.1581 3.2392 74.1817C3.28614 74.2053 3.33309 74.2526 3.33309 74.2999V79.9717C3.33309 80.019 3.30961 80.0426 3.28614 80.0663C3.26267 80.0663 3.2392 80.0899 3.21572 80.0899ZM0.305134 79.2864L3.07489 79.8299V74.7253L0.305134 79.2864Z" fill="black"/>
<path d="M31.852 40.1032L28.918 45.6806V53.1249L31.852 47.5239V40.1032Z" fill="black"/>
<path d="M28.9181 53.2667H28.8947C28.8477 53.243 28.8008 53.1958 28.8008 53.1485V45.7042C28.8008 45.6805 28.8008 45.6569 28.8243 45.6569L31.7583 40.0796C31.7818 40.0323 31.8287 40.0087 31.8992 40.0087C31.9461 40.0323 31.993 40.0796 31.993 40.1268V47.5475C31.993 47.5712 31.993 47.5948 31.9696 47.5948L29.0355 53.2194C29.012 53.2194 28.9651 53.2667 28.9181 53.2667ZM29.0355 45.7042V52.6286L31.7348 47.4766V40.5759L29.0355 45.7042Z" fill="black"/>
<path d="M32.0395 62.7198L29.1289 68.2971V75.7415L32.0395 70.1169V62.7198Z" fill="black"/>
<path d="M29.1291 75.8596H29.1056C29.0587 75.836 29.0117 75.7887 29.0117 75.7415V68.2971C29.0117 68.2735 29.0117 68.2499 29.0352 68.2499L31.9693 62.6725C31.9927 62.6253 32.0397 62.6016 32.1101 62.6016C32.157 62.6253 32.204 62.6725 32.204 62.7198V70.1405C32.204 70.1641 32.204 70.1878 32.1805 70.1878L29.2464 75.8124C29.1995 75.836 29.176 75.8596 29.1291 75.8596ZM29.2464 68.3208V75.2688L31.9458 70.1169V63.2161L29.2464 68.3208Z" fill="black"/>
<path d="M130.883 57.0478C122.362 58.0167 121.728 58.773 120.93 69.195C120.156 58.7966 119.499 58.0167 110.978 57.0478C119.499 56.0788 120.132 55.3226 120.93 44.9005C121.728 55.3226 122.362 56.0788 130.883 57.0478Z" fill="white"/>
<path d="M120.93 69.3132C120.86 69.3132 120.813 69.2659 120.813 69.195C120.038 58.7966 119.475 58.1113 110.978 57.1659C110.907 57.1659 110.86 57.1187 110.86 57.0478C110.86 56.9769 110.907 56.9296 110.978 56.9296C119.475 55.9843 120.038 55.299 120.813 44.9005C120.813 44.8296 120.86 44.7823 120.93 44.7823C121 44.7823 121.047 44.8296 121.047 44.9005C121.822 55.299 122.385 55.9843 130.882 56.9296C130.953 56.9296 131 56.9769 131 57.0478C131 57.1187 130.953 57.1659 130.882 57.1659C122.385 58.1113 121.822 58.7966 121.047 69.195C121.047 69.2659 121 69.3132 120.93 69.3132ZM112.034 57.0478C119.264 57.9222 120.226 59.0093 120.93 67.6825C121.658 59.0093 122.597 57.9458 129.826 57.0478C122.597 56.1734 121.634 55.0863 120.93 46.413C120.202 55.0863 119.264 56.1734 112.034 57.0478Z" fill="black"/>
<path d="M58.3762 49.2018C51.9917 49.9108 51.5222 50.5016 50.9354 58.2768C50.3486 50.4779 49.8791 49.9108 43.4946 49.2018C49.8791 48.4928 50.3486 47.902 50.9354 40.1268C51.5222 47.902 51.9917 48.4692 58.3762 49.2018Z" fill="white"/>
<path d="M50.9351 58.395C50.8647 58.395 50.8177 58.3478 50.8177 58.2769C50.2309 50.5253 49.8319 50.0054 43.4943 49.2964C43.4239 49.2964 43.377 49.2491 43.377 49.1782C43.377 49.1073 43.4239 49.0601 43.4943 49.0601C49.8319 48.3511 50.2544 47.8548 50.8177 40.0796C50.8177 40.0087 50.8647 39.9614 50.9351 39.9614C51.0055 39.9614 51.0525 40.0087 51.0525 40.0796C51.6393 47.8312 52.0383 48.3511 58.3759 49.0601C58.4463 49.0601 58.4932 49.1073 58.4932 49.1782C58.4932 49.2491 58.4463 49.2964 58.3759 49.2964C52.0383 50.0054 51.6158 50.5017 51.0525 58.2769C51.0525 58.3478 51.0055 58.395 50.9351 58.395ZM44.5036 49.2019C49.6206 49.8399 50.3952 50.7144 50.9351 56.8116C51.475 50.7144 52.2261 49.8636 57.3666 49.2019C52.2496 48.5638 51.475 47.6894 50.9351 41.5921C50.3952 47.6894 49.6206 48.5401 44.5036 49.2019Z" fill="black"/>
</g>
<defs>
<clipPath id="clip0_2_1015">
<rect width="131" height="121" fill="white" transform="translate(0 0.352844)"/>
</clipPath>
</defs>
</svg>
