<svg width="17" height="16" viewBox="0 0 17 16" fill="none" xmlns="http://www.w3.org/2000/svg">
<path d="M1.83337 6.00003V4.33336C1.83337 2.67336 3.17337 1.33336 4.83337 1.33336H6.50004" stroke="#161B12" stroke-width="1.5" stroke-linecap="round" stroke-linejoin="round"/>
<path d="M10.5 1.33336H12.1667C13.8267 1.33336 15.1667 2.67336 15.1667 4.33336V6.00003" stroke="#161B12" stroke-width="1.5" stroke-linecap="round" stroke-linejoin="round"/>
<path d="M15.1666 10.6667V11.6667C15.1666 13.3267 13.8266 14.6667 12.1666 14.6667H11.1666" stroke="#161B12" stroke-width="1.5" stroke-linecap="round" stroke-linejoin="round"/>
<path d="M6.50004 14.6667H4.83337C3.17337 14.6667 1.83337 13.3267 1.83337 11.6667V10" stroke="#161B12" stroke-width="1.5" stroke-linecap="round" stroke-linejoin="round"/>
<path d="M7.49996 4.6667V6.00004C7.49996 6.6667 7.16663 7.00004 6.49996 7.00004H5.16663C4.49996 7.00004 4.16663 6.6667 4.16663 6.00004V4.6667C4.16663 4.00004 4.49996 3.6667 5.16663 3.6667H6.49996C7.16663 3.6667 7.49996 4.00004 7.49996 4.6667Z" stroke="#161B12" stroke-width="1.5" stroke-linecap="round" stroke-linejoin="round"/>
<path d="M12.8333 4.6667V6.00004C12.8333 6.6667 12.5 7.00004 11.8333 7.00004H10.5C9.83333 7.00004 9.5 6.6667 9.5 6.00004V4.6667C9.5 4.00004 9.83333 3.6667 10.5 3.6667H11.8333C12.5 3.6667 12.8333 4.00004 12.8333 4.6667Z" stroke="#161B12" stroke-width="1.5" stroke-linecap="round" stroke-linejoin="round"/>
<path d="M7.49996 10V11.3334C7.49996 12 7.16663 12.3334 6.49996 12.3334H5.16663C4.49996 12.3334 4.16663 12 4.16663 11.3334V10C4.16663 9.33336 4.49996 9.00003 5.16663 9.00003H6.49996C7.16663 9.00003 7.49996 9.33336 7.49996 10Z" stroke="#161B12" stroke-width="1.5" stroke-linecap="round" stroke-linejoin="round"/>
<path d="M12.8333 10V11.3334C12.8333 12 12.5 12.3334 11.8333 12.3334H10.5C9.83333 12.3334 9.5 12 9.5 11.3334V10C9.5 9.33336 9.83333 9.00003 10.5 9.00003H11.8333C12.5 9.00003 12.8333 9.33336 12.8333 10Z" stroke="#161B12" stroke-width="1.5" stroke-linecap="round" stroke-linejoin="round"/>
</svg>
