<svg width="25" height="24" viewBox="0 0 25 24" fill="none" xmlns="http://www.w3.org/2000/svg">
<path d="M10.4999 22C6.72864 22 4.84302 22 3.67145 20.8284C2.49988 19.6569 2.49988 18.7712 2.49988 15" stroke="#1B1B1B" stroke-width="1.5" stroke-linecap="round"/>
<path d="M22.4999 15C22.4999 18.7712 22.4999 19.6569 21.3283 20.8284C20.1567 22 18.2711 22 14.4999 22" stroke="#1B1B1B" stroke-width="1.5" stroke-linecap="round"/>
<path d="M14.4999 2C18.2711 2 20.1567 2 21.3283 3.17157C22.4999 4.34315 22.4999 5.22876 22.4999 9" stroke="#1B1B1B" stroke-width="1.5" stroke-linecap="round"/>
<path d="M10.4999 2C6.72864 2 4.84302 2 3.67145 3.17157C2.49988 4.34315 2.49988 5.22876 2.49988 9" stroke="#1B1B1B" stroke-width="1.5" stroke-linecap="round"/>
<path d="M2.49988 12L22.4999 12" stroke="#1B1B1B" stroke-width="1.5" stroke-linecap="round"/>
</svg>
