<svg width="24" height="25" viewBox="0 0 24 25" fill="none" xmlns="http://www.w3.org/2000/svg">
<path d="M9 22.2407H15C20 22.2407 22 20.2407 22 15.2407V9.24072C22 4.24072 20 2.24072 15 2.24072H9C4 2.24072 2 4.24072 2 9.24072V15.2407C2 20.2407 4 22.2407 9 22.2407Z" stroke="white" stroke-width="1.5" stroke-linecap="round" stroke-linejoin="round"/>
<path d="M15.5701 18.7407V14.8407" stroke="white" stroke-width="1.5" stroke-miterlimit="10" stroke-linecap="round" stroke-linejoin="round"/>
<path d="M15.5701 7.69072V5.74072" stroke="white" stroke-width="1.5" stroke-miterlimit="10" stroke-linecap="round" stroke-linejoin="round"/>
<path d="M15.57 12.8907C17.0059 12.8907 18.17 11.7266 18.17 10.2907C18.17 8.85473 17.0059 7.69067 15.57 7.69067C14.134 7.69067 12.97 8.85473 12.97 10.2907C12.97 11.7266 14.134 12.8907 15.57 12.8907Z" stroke="white" stroke-width="1.5" stroke-miterlimit="10" stroke-linecap="round" stroke-linejoin="round"/>
<path d="M8.42993 18.7408V16.7908" stroke="white" stroke-width="1.5" stroke-miterlimit="10" stroke-linecap="round" stroke-linejoin="round"/>
<path d="M8.42993 9.64072V5.74072" stroke="white" stroke-width="1.5" stroke-miterlimit="10" stroke-linecap="round" stroke-linejoin="round"/>
<path d="M8.43008 16.7907C9.86602 16.7907 11.0301 15.6266 11.0301 14.1907C11.0301 12.7548 9.86602 11.5907 8.43008 11.5907C6.99414 11.5907 5.83008 12.7548 5.83008 14.1907C5.83008 15.6266 6.99414 16.7907 8.43008 16.7907Z" stroke="white" stroke-width="1.5" stroke-miterlimit="10" stroke-linecap="round" stroke-linejoin="round"/>
</svg>
