<svg width="20" height="20" viewBox="0 0 20 20" fill="none" xmlns="http://www.w3.org/2000/svg">
<path fill-rule="evenodd" clip-rule="evenodd" d="M16.6665 2.91669H4.58315C4.32481 2.91669 4.07482 3.04169 3.91649 3.25002L2.66649 4.91669C2.25816 5.46669 2.64981 6.25002 3.33315 6.25002H15.4165C15.6748 6.25002 15.9248 6.12502 16.0831 5.91669L17.3331 4.25002C17.7415 3.70002 17.3498 2.91669 16.6665 2.91669ZM3.33315 8.33335H15.4165C15.6748 8.33335 15.9248 8.45835 16.0831 8.66668L17.3331 10.3334C17.7415 10.8834 17.3498 11.6667 16.6665 11.6667H4.58315C4.32481 11.6667 4.07482 11.5417 3.91649 11.3334L2.66649 9.66669C2.25816 9.11668 2.64981 8.33335 3.33315 8.33335ZM4.58315 13.75H16.6665C17.3498 13.75 17.7415 14.5334 17.3331 15.0834L16.0831 16.75C15.9248 16.9584 15.6748 17.0834 15.4165 17.0834H3.33315C2.64981 17.0834 2.25816 16.3 2.66649 15.75L3.91649 14.0834C4.07482 13.875 4.32481 13.75 4.58315 13.75Z" fill="url(#paint0_linear_4_383)"/>
<defs>
<linearGradient id="paint0_linear_4_383" x1="2.50049" y1="17.0834" x2="18.8778" y2="4.01058" gradientUnits="userSpaceOnUse">
<stop stop-color="#9945FF"/>
<stop offset="0.445935" stop-color="#5A8DD9"/>
<stop offset="0.811368" stop-color="#19FA9A"/>
</linearGradient>
</defs>
</svg>
