<svg width="58" height="64" viewBox="0 0 58 64" fill="none" xmlns="http://www.w3.org/2000/svg">
<path d="M29.7164 31.0116C27.7467 31.0116 26.1513 29.4165 26.1513 27.4465C26.1513 25.4767 27.7464 23.8813 29.7164 23.8813C30.6683 23.8813 31.5635 24.2522 32.237 24.9258C33.6305 26.3193 33.6309 28.5733 32.237 29.9672C31.5635 30.6406 30.6683 31.0116 29.7164 31.0116Z" fill="#57803E"/>
<path d="M40.0528 52.6865L35.0774 50.787C31.6248 49.4688 27.8076 49.4688 24.355 50.787L19.3796 52.6865L10.4563 61.6568C9.64008 62.4773 10.2213 63.8753 11.3788 63.8753H48.0538C49.2113 63.8753 49.7924 62.4773 48.9762 61.6567L40.0528 52.6865Z" fill="#83B068"/>
<path d="M29.7164 0.125C19.6841 0.125 10.914 5.532 6.16402 13.5919L3.14827 21.0519C2.65514 23.1036 2.39502 25.2437 2.39502 27.4464C2.39502 42.5779 14.668 54.7677 29.7164 54.7677C44.7408 54.7677 57.0378 42.6 57.0378 27.4464C57.0378 12.3573 44.8055 0.125 29.7164 0.125ZM31.556 29.2861C30.54 30.3021 28.894 30.3035 27.8768 29.2861C26.8608 28.2701 26.8594 26.6241 27.8768 25.6069C28.8928 24.5909 30.5388 24.5895 31.556 25.6069C32.572 26.6227 32.5733 28.2687 31.556 29.2861Z" fill="#57803E"/>
<path d="M45.1475 11.6016C49.2718 15.6191 51.8335 21.2343 51.8335 27.4467C41.5855 30.0872 42.2693 29.9111 42.2399 29.9187L32.3183 27.4467C32.3183 26.7286 32.0269 26.0781 31.5559 25.6071L36.8961 16.7729L45.0396 11.7136L45.1475 11.6016Z" fill="#D3F4BD"/>
<path d="M45.3506 43.0809L45.3559 43.0861C41.3526 47.0881 35.8233 49.5639 29.7163 49.5639C26.7585 37.0065 27.3146 39.3676 27.2443 39.0689L29.7163 30.0485C30.4344 30.0485 31.0849 29.7571 31.5559 29.2861L41.1819 35.2693L45.3506 43.0809Z" fill="#D3F4BD"/>
<path d="M31.798 15.4771L29.7164 24.8445C28.9983 24.8445 28.3478 25.1359 27.8768 25.6069L18.9345 19.1366C18.8698 19.0389 19.5888 20.1239 14.0782 11.8082C18.0802 7.80498 23.6082 5.3291 29.7164 5.3291C31.9402 16.1704 31.7915 15.4459 31.798 15.4771Z" fill="#D3F4BD"/>
<path d="M27.8765 29.286L23.575 35.7992C23.4475 35.8971 24.8578 34.8151 14.0766 43.0858C10.0746 39.0826 7.59885 33.5532 7.59885 27.4462C17.0561 24.9952 16.0588 25.2536 16.1327 25.2345L27.1142 27.4462C27.1141 28.1645 27.4056 28.815 27.8765 29.286Z" fill="#D3F4BD"/>
<path d="M45.1479 11.6012C29.7865 27.4302 31.8167 25.3381 31.5561 25.6067C31.0851 25.1357 30.4346 24.8444 29.7165 24.8444C29.7165 22.4012 29.7165 7.77173 29.7165 5.3291C35.718 5.3291 41.1629 7.72035 45.1479 11.6012Z" fill="#9FE870"/>
<path d="M51.8336 27.4463C51.8336 33.5533 49.3577 39.0827 45.3558 43.0859C43.6273 41.3574 33.2823 31.0124 31.5559 29.286C32.0269 28.815 32.3183 28.1645 32.3183 27.4464C34.7614 27.4463 49.3909 27.4463 51.8336 27.4463Z" fill="#9FE870"/>
<path d="M29.7163 49.5638C23.6093 49.5638 18.0799 47.0879 14.0767 43.086L27.8765 29.2861C28.3475 29.7571 28.998 30.0485 29.7162 30.0485C29.7163 32.4916 29.7163 47.1211 29.7163 49.5638Z" fill="#9FE870"/>
<path d="M27.8765 25.6064C27.4055 26.0774 27.1142 26.7279 27.1142 27.446C24.671 27.446 10.0415 27.446 7.59891 27.446C7.59891 25.1809 7.93978 22.9952 8.57203 20.9382L9.98753 17.4397C11.0504 15.349 12.4348 13.4495 14.0779 11.8076C15.8074 13.5372 26.1542 23.884 27.8765 25.6064Z" fill="#9FE870"/>
<path d="M4.02641 12.7263L1.01066 20.1894C0.835786 20.6223 1.16004 21.0929 1.62679 21.0832C4.27291 21.028 8.84566 20.9328 11.8453 20.87C12.4172 20.858 12.6959 20.167 12.2928 19.7613L5.09116 12.5115C4.76191 12.1803 4.20129 12.2934 4.02641 12.7263Z" fill="#FFD731"/>
</svg>
