<svg width="132" height="141" viewBox="0 0 132 141" fill="none" xmlns="http://www.w3.org/2000/svg">
<path d="M8.71709e-06 82.7293L1.14942e-05 98.6127C45.3364 91.319 65.964 89.0728 65.964 46.1123C65.964 87.8464 84.5775 91.4829 131.55 98.6127L131.55 82.7292C87.619 82.7292 72.1933 49.6391 69.8948 32.8733L60.6948 32.8733C60.6948 49.0983 44.4908 82.7292 8.71709e-06 82.7293Z" fill="#9FE870" fill-opacity="0.1"/>
<path d="M8.71709e-06 49.856L1.14942e-05 65.7394C42.6971 58.6096 60.6948 42.9604 60.6948 -1.06122e-05C60.6948 16.225 48.3967 49.856 8.71709e-06 49.856Z" fill="#9FE870" fill-opacity="0.1"/>
<path d="M131.549 49.8562L131.549 65.7397C88.8518 58.6098 70.8541 42.9607 70.854 0.000254753C70.8541 16.2252 83.1522 49.8562 131.549 49.8562Z" fill="#9FE870" fill-opacity="0.1"/>
<path d="M65.7786 82.4166V82.4166C67.5875 97.662 79.6075 109.682 94.853 111.491V111.491V111.491C79.6075 113.3 67.5875 125.32 65.7786 140.565V140.565V140.565C63.9697 125.32 51.9496 113.3 36.7041 111.491V111.491V111.491C51.9496 109.682 63.9697 97.662 65.7786 82.4166V82.4166Z" fill="#9FE870" fill-opacity="0.1"/>
</svg>
