<svg width="20" height="20" viewBox="0 0 20 20" fill="none" xmlns="http://www.w3.org/2000/svg">
<path d="M17.0711 2.92892C15.1823 1.04019 12.6711 0 10 0C7.32895 0 4.81766 1.04019 2.92892 2.92892C1.04019 4.81766 0 7.32895 0 10C0 12.6711 1.04019 15.1823 2.92892 17.0711C4.81766 18.9598 7.32895 20 10 20C12.6711 20 15.1823 18.9598 17.0711 17.0711C18.9598 15.1823 20 12.6711 20 10C20 7.32895 18.9598 4.81766 17.0711 2.92892ZM10 17.8906C5.64911 17.8906 2.10938 14.3509 2.10938 10C2.10938 5.64911 5.64911 2.10938 10 2.10938C14.3509 2.10938 17.8906 5.64911 17.8906 10C17.8906 14.3509 14.3509 17.8906 10 17.8906Z" fill="#00BAEE"/>
<path d="M10 3.28125C6.29532 3.28125 3.28125 6.29532 3.28125 10C3.28125 13.7047 6.29532 16.7188 10 16.7188C13.7047 16.7188 16.7188 13.7047 16.7188 10C16.7188 6.29532 13.7047 3.28125 10 3.28125ZM12.5208 12.3973C12.3784 12.6651 12.1866 12.8819 11.9452 13.0472C11.7036 13.2126 11.4259 13.3334 11.1118 13.4093C10.9398 13.4509 10.7632 13.4807 10.5823 13.4996V14.8653H9.4104V13.4738C9.12399 13.4344 8.83942 13.3722 8.55698 13.2852C8.04092 13.1265 7.57782 12.9018 7.16782 12.6106L7.77313 11.4299C7.83264 11.4894 7.94006 11.5672 8.09555 11.6631C8.25089 11.759 8.43445 11.855 8.64624 11.9508C8.85788 12.0468 9.09271 12.1278 9.35074 12.1939C9.60861 12.2601 9.87305 12.2931 10.1443 12.2931C10.8984 12.2931 11.2755 12.0517 11.2755 11.5688C11.2755 11.4166 11.2323 11.2877 11.1465 11.1818C11.0605 11.076 10.9381 10.9834 10.7794 10.9041C10.6207 10.8246 10.4288 10.752 10.204 10.6857C9.97894 10.6197 9.72763 10.5469 9.44992 10.4675C9.11255 10.3749 8.81989 10.274 8.57178 10.1648C8.32382 10.0557 8.11691 9.92676 7.95166 9.77783C7.78625 9.62906 7.6622 9.45709 7.57965 9.26193C7.49695 9.06693 7.4556 8.83377 7.4556 8.56247C7.4556 8.20526 7.52167 7.88773 7.65411 7.61002C7.78625 7.33215 7.96982 7.10068 8.20465 6.91544C8.43948 6.73035 8.71231 6.58966 9.02328 6.49368C9.14856 6.45523 9.27765 6.42471 9.4104 6.40167V5.12466H10.5823V6.38489C10.8679 6.42181 11.1388 6.48773 11.3945 6.58295C11.8112 6.73859 12.175 6.922 12.486 7.13364L11.8808 8.24493C11.8344 8.1987 11.75 8.13583 11.6277 8.05634C11.5053 7.97699 11.3564 7.89932 11.1812 7.82318C11.0059 7.74719 10.8157 7.6828 10.6108 7.6297C10.4056 7.5769 10.1973 7.55035 9.98566 7.55035C9.60861 7.55035 9.32739 7.61978 9.1423 7.75879C8.95706 7.89764 8.86444 8.0928 8.86444 8.34412C8.86444 8.48969 8.89923 8.61053 8.96866 8.70636C9.03809 8.80234 9.13879 8.88657 9.27124 8.95935C9.40353 9.03214 9.57047 9.09821 9.77234 9.15771C9.97406 9.21722 10.2072 9.28024 10.4718 9.34631C10.8157 9.43893 11.1282 9.53812 11.4095 9.64386C11.6905 9.74976 11.9286 9.88205 12.1237 10.0407C12.3187 10.1996 12.4693 10.3897 12.5752 10.6113C12.681 10.833 12.7339 11.1058 12.7339 11.4297C12.7341 11.8069 12.6628 12.1294 12.5208 12.3973Z" fill="#00BAEE"/>
</svg>
