<svg width="290" height="262" viewBox="0 0 290 262" fill="none" xmlns="http://www.w3.org/2000/svg">
<path d="M174.443 131.593C171.646 129.522 168.28 127.8 164.34 126.42C160.399 125.041 156.033 123.749 151.238 122.539C147.553 121.678 144.303 120.859 141.488 120.083C138.67 119.305 136.328 118.446 134.46 117.495C132.588 116.549 131.144 115.449 130.119 114.198C129.097 112.949 128.536 111.376 128.434 109.478C128.258 106.202 129.392 103.659 131.842 101.847C134.289 100.037 138.107 99.1318 143.292 99.1318C146.202 99.1318 149.087 99.4759 151.944 100.166C154.799 100.856 157.461 101.698 159.923 102.688C162.385 103.68 164.488 104.693 166.228 105.727C167.964 106.761 169.169 107.583 169.839 108.183L177.38 93.7001C172.956 90.9414 167.827 88.5488 161.987 86.5221C158.404 85.279 154.633 84.4218 150.68 83.9405L149.795 67.514L133.68 67.514L134.577 84.1572C132.768 84.4576 131.012 84.8554 129.317 85.3586C125.108 86.6096 121.455 88.4414 118.358 90.8539C115.257 93.2685 112.895 96.2857 111.274 99.9075C109.647 103.529 108.962 107.668 109.213 112.322C109.403 115.859 110.136 118.898 111.41 121.442C112.684 123.985 114.509 126.227 116.888 128.166C119.266 130.105 122.2 131.788 125.686 133.21C129.175 134.632 133.27 135.947 137.974 137.154C141.848 138.188 145.357 139.139 148.496 140C151.634 140.861 154.324 141.81 156.562 142.844C158.8 143.878 160.548 145.088 161.805 146.466C163.061 147.846 163.743 149.527 163.85 151.51C164.189 157.803 159.174 160.949 148.805 160.949C145.076 160.949 141.415 160.52 137.822 159.657C134.228 158.797 130.942 157.739 127.964 156.488C124.985 155.239 122.393 153.988 120.19 152.737C117.985 151.488 116.453 150.476 115.593 149.698L108.098 165.088C113.943 168.883 120.469 171.813 127.674 173.883C131.619 175.015 135.576 175.828 139.544 176.34L140.521 194.477L156.635 194.477L155.676 176.676C158.149 176.431 160.556 176.041 162.893 175.5C167.158 174.51 170.894 172.935 174.099 170.779C177.303 168.625 179.786 165.8 181.555 162.308C183.323 158.817 184.074 154.613 183.809 149.698C183.582 145.476 182.662 141.919 181.052 139.03C179.438 136.142 177.236 133.661 174.443 131.593Z" fill="#2B6400" fill-opacity="0.08"/>
<path d="M237.475 38.8911C210.177 14.2723 174.915 0.713807 138.186 0.713807C101.457 0.713807 67.6558 14.2723 43.0109 38.8911C18.3659 63.5099 5.8262 96.2436 7.70204 131.06C9.57788 165.876 25.6449 198.609 52.9427 223.228C80.2405 247.847 115.503 261.405 152.232 261.405C188.96 261.405 222.762 247.847 247.407 223.228C272.052 198.609 284.592 165.876 282.716 131.06C280.84 96.2436 264.773 63.5099 237.475 38.8911ZM151.409 246.13C84.4723 246.13 27.2347 194.51 23.8161 131.06C20.3975 67.6091 72.0726 15.9887 139.009 15.9887C205.945 15.9887 263.183 67.6091 266.602 131.06C270.02 194.51 218.345 246.13 151.409 246.13Z" fill="#2B6400" fill-opacity="0.08"/>
<path d="M139.868 31.9415C82.2118 31.9415 37.7004 76.4057 40.645 131.059C43.5897 185.713 92.8924 230.177 150.549 230.177C208.205 230.177 252.716 185.713 249.771 131.059C246.827 76.4057 197.524 31.9415 139.868 31.9415ZM149.726 214.902C100.955 214.902 59.2499 177.29 56.7591 131.059C54.2683 84.8288 91.9206 47.2164 140.691 47.2164C189.461 47.2164 231.166 84.8288 233.657 131.059C236.148 177.29 198.496 214.902 149.726 214.902Z" fill="#2B6400" fill-opacity="0.08"/>
</svg>
