<svg width="40" height="40" viewBox="0 0 40 40" fill="none" xmlns="http://www.w3.org/2000/svg">
    <rect x="1" y="1" width="38" height="38" rx="11" fill="#0B82B5" />
    <rect x="1" y="1" width="38" height="38" rx="11" stroke="#0B82B5" stroke-width="2" />
    <path
        d="M20.4897 15.8109L16.8368 12.7668C16.7679 12.7094 16.6793 12.6602 16.5808 12.6274C16.5709 12.6274 16.5611 12.6274 16.5513 12.6192C16.4725 12.5945 16.3937 12.5781 16.3051 12.5781C16.1082 12.5781 15.9211 12.6438 15.7833 12.7586L12.1106 15.8109C11.8251 16.0489 11.8251 16.4427 12.1106 16.6807C12.3962 16.9186 12.8688 16.9186 13.1543 16.6807L15.5666 14.6704V27.9627C15.5666 28.2992 15.9014 28.5781 16.3051 28.5781C16.7088 28.5781 17.0436 28.2992 17.0436 27.9627V14.6786L19.446 16.6807C19.5937 16.8038 19.7808 16.8612 19.9679 16.8612C20.1549 16.8612 20.342 16.8038 20.4897 16.6807C20.7753 16.4427 20.7753 16.0571 20.4897 15.8109Z"
        fill="white" />
    <path
        d="M29.3745 24.4756C29.0889 24.2376 28.6163 24.2376 28.3308 24.4756L25.9185 26.4858V13.1935C25.9185 12.8571 25.5837 12.5781 25.18 12.5781C24.7763 12.5781 24.4416 12.8571 24.4416 13.1935V26.4776L22.0391 24.4756C21.7536 24.2376 21.2809 24.2376 20.9954 24.4756C20.7099 24.7135 20.7099 25.1074 20.9954 25.3453L24.6483 28.3894C24.7172 28.4468 24.8059 28.4961 24.9043 28.5289C24.9142 28.5289 24.924 28.5289 24.9339 28.5371C25.0126 28.5617 25.1013 28.5781 25.1899 28.5781C25.3868 28.5781 25.5739 28.5125 25.7117 28.3976L29.3745 25.3453C29.66 25.0992 29.66 24.7135 29.3745 24.4756Z"
        fill="white" />
</svg>
    