<svg width="25" height="24" viewBox="0 0 25 24" fill="none" xmlns="http://www.w3.org/2000/svg">
    <path
        d="M23.9641 12.2784C23.9641 18.7219 18.7403 23.9455 12.2965 23.9455C5.85266 23.9455 0.628903 18.7219 0.628903 12.2784C0.628903 5.83485 5.85266 0.611325 12.2965 0.611325C18.7403 0.611325 23.9641 5.83485 23.9641 12.2784Z"
        fill="#0B1A20" stroke="black" stroke-width="0.113274" />
    <path
        d="M23.9641 11.7237C23.9641 18.1673 18.7403 23.3908 12.2965 23.3908C5.85266 23.3908 0.628903 18.1673 0.628903 11.7237C0.628903 5.28017 5.85266 0.056637 12.2965 0.056637C18.7403 0.056637 23.9641 5.28017 23.9641 11.7237Z"
        fill="#55CCFF" stroke="black" stroke-width="0.113274" />
    <g filter="url(#filter0_i_35_17240)">
        <ellipse cx="12.2672" cy="11.6926" rx="10.5915" ry="10.591" fill="#CCF0FF" />
    </g>
    <path
        d="M22.8021 11.6926C22.8021 17.5105 18.0855 22.2269 12.2672 22.2269C6.44901 22.2269 1.73242 17.5105 1.73242 11.6926C1.73242 5.87459 6.44901 1.1582 12.2672 1.1582C18.0855 1.1582 22.8021 5.87459 22.8021 11.6926Z"
        stroke="black" stroke-width="0.113274" />
    <g filter="url(#filter1_d_35_17240)">
        <mask id="path-5-outside-1_35_17240" maskUnits="userSpaceOnUse" x="6.46094" y="5.07812"
            width="11" height="13" fill="black">
            <rect fill="white" x="6.46094" y="5.07812" width="11" height="13" />
            <path fill-rule="evenodd" clip-rule="evenodd"
                d="M11.0805 17.0206C11.0805 17.2833 11.2935 17.4963 11.5563 17.4963H13.0115C13.2742 17.4963 13.4872 17.2833 13.4872 17.0206V15.7877C13.4872 15.5906 13.3275 15.4308 13.1304 15.4308H11.4373C11.2402 15.4308 11.0805 15.5906 11.0805 15.7877V17.0206ZM11.4373 14.0469C11.2402 14.0469 11.0805 13.8871 11.0805 13.6901V12.7676C11.0805 12.7025 11.0627 12.6386 11.029 12.5829L7.53038 6.80017C7.33855 6.48309 7.56685 6.07812 7.93744 6.07812H9.52925C9.69718 6.07812 9.85267 6.16666 9.93838 6.31107L12.0277 9.83145C12.1664 10.0652 12.505 10.0642 12.6424 9.82972L14.7027 6.31338C14.7881 6.16766 14.9443 6.07812 15.1132 6.07812H16.6319C17.0022 6.07812 17.2305 6.48241 17.0394 6.7995L13.5385 12.6076C13.505 12.6632 13.4872 12.7268 13.4872 12.7918V13.6901C13.4872 13.8871 13.3275 14.0469 13.1304 14.0469H11.4373Z" />
        </mask>
        <path fill-rule="evenodd" clip-rule="evenodd"
            d="M11.0805 17.0206C11.0805 17.2833 11.2935 17.4963 11.5563 17.4963H13.0115C13.2742 17.4963 13.4872 17.2833 13.4872 17.0206V15.7877C13.4872 15.5906 13.3275 15.4308 13.1304 15.4308H11.4373C11.2402 15.4308 11.0805 15.5906 11.0805 15.7877V17.0206ZM11.4373 14.0469C11.2402 14.0469 11.0805 13.8871 11.0805 13.6901V12.7676C11.0805 12.7025 11.0627 12.6386 11.029 12.5829L7.53038 6.80017C7.33855 6.48309 7.56685 6.07812 7.93744 6.07812H9.52925C9.69718 6.07812 9.85267 6.16666 9.93838 6.31107L12.0277 9.83145C12.1664 10.0652 12.505 10.0642 12.6424 9.82972L14.7027 6.31338C14.7881 6.16766 14.9443 6.07812 15.1132 6.07812H16.6319C17.0022 6.07812 17.2305 6.48241 17.0394 6.7995L13.5385 12.6076C13.505 12.6632 13.4872 12.7268 13.4872 12.7918V13.6901C13.4872 13.8871 13.3275 14.0469 13.1304 14.0469H11.4373Z"
            fill="#55CCFF" />
        <path
            d="M7.53038 6.80017L7.73391 6.67703L7.53038 6.80017ZM9.93838 6.31107L10.1429 6.18966V6.18966L9.93838 6.31107ZM14.7027 6.31338L14.908 6.43363V6.43363L14.7027 6.31338ZM17.0394 6.7995L16.8356 6.67669L17.0394 6.7995ZM12.6424 9.82972L12.4372 9.70946L12.6424 9.82972ZM11.029 12.5829L11.2325 12.4598L11.029 12.5829ZM13.5385 12.6076L13.3347 12.4848L13.5385 12.6076ZM11.5563 17.2585C11.4249 17.2585 11.3184 17.152 11.3184 17.0206H10.8426C10.8426 17.4147 11.1621 17.7342 11.5563 17.7342V17.2585ZM13.0115 17.2585H11.5563V17.7342H13.0115V17.2585ZM13.2494 17.0206C13.2494 17.152 13.1429 17.2585 13.0115 17.2585V17.7342C13.4056 17.7342 13.7251 17.4147 13.7251 17.0206H13.2494ZM13.2494 15.7877V17.0206H13.7251V15.7877H13.2494ZM13.1304 15.1929H11.4373V15.6687H13.1304V15.1929ZM11.3184 17.0206V15.7877H10.8426V17.0206H11.3184ZM11.3184 13.6901V12.7676H10.8426V13.6901H11.3184ZM11.2325 12.4598L7.73391 6.67703L7.32685 6.9233L10.8254 12.706L11.2325 12.4598ZM7.73391 6.67703C7.63799 6.51849 7.75215 6.31601 7.93744 6.31601V5.84024C7.38156 5.84024 7.0391 6.44769 7.32685 6.9233L7.73391 6.67703ZM7.93744 6.31601H9.52925V5.84024H7.93744V6.31601ZM9.52925 6.31601C9.61321 6.31601 9.69096 6.36027 9.73381 6.43248L10.1429 6.18966C10.0144 5.97304 9.78114 5.84024 9.52925 5.84024V6.31601ZM9.73381 6.43248L11.8231 9.95286L12.2323 9.71004L10.1429 6.18966L9.73381 6.43248ZM12.8477 9.94998L14.908 6.43363L14.4975 6.19312L12.4372 9.70946L12.8477 9.94998ZM14.908 6.43363C14.9506 6.36077 15.0288 6.31601 15.1132 6.31601V5.84024C14.8599 5.84024 14.6255 5.97454 14.4975 6.19312L14.908 6.43363ZM15.1132 6.31601H16.6319V5.84024H15.1132V6.31601ZM16.6319 6.31601C16.817 6.31601 16.9312 6.51815 16.8356 6.67669L17.2431 6.9223C17.5298 6.44667 17.1873 5.84024 16.6319 5.84024V6.31601ZM16.8356 6.67669L13.3347 12.4848L13.7422 12.7304L17.2431 6.9223L16.8356 6.67669ZM13.2494 12.7918V13.6901H13.7251V12.7918H13.2494ZM11.4373 14.2848H13.1304V13.809H11.4373V14.2848ZM11.8231 9.95286C12.0543 10.3424 12.6187 10.3408 12.8477 9.94998L12.4372 9.70946C12.3914 9.78762 12.2785 9.78794 12.2323 9.71004L11.8231 9.95286ZM13.2494 13.6901C13.2494 13.7557 13.1961 13.809 13.1304 13.809V14.2848C13.4589 14.2848 13.7251 14.0185 13.7251 13.6901H13.2494ZM11.3184 12.7676C11.3184 12.6591 11.2887 12.5526 11.2325 12.4598L10.8254 12.706C10.8367 12.7246 10.8426 12.7459 10.8426 12.7676H11.3184ZM13.3347 12.4848C13.2789 12.5774 13.2494 12.6836 13.2494 12.7918H13.7251C13.7251 12.7701 13.731 12.7489 13.7422 12.7304L13.3347 12.4848ZM10.8426 13.6901C10.8426 14.0185 11.1089 14.2848 11.4373 14.2848V13.809C11.3716 13.809 11.3184 13.7557 11.3184 13.6901H10.8426ZM11.4373 15.1929C11.1089 15.1929 10.8426 15.4592 10.8426 15.7877H11.3184C11.3184 15.722 11.3716 15.6687 11.4373 15.6687V15.1929ZM13.7251 15.7877C13.7251 15.4592 13.4589 15.1929 13.1304 15.1929V15.6687C13.1961 15.6687 13.2494 15.722 13.2494 15.7877H13.7251Z"
            fill="black" mask="url(#path-5-outside-1_35_17240)" />
    </g>
    <defs>
        <filter id="filter0_i_35_17240" x="1.67578" y="1.10156" width="21.1826" height="21.182"
            filterUnits="userSpaceOnUse" color-interpolation-filters="sRGB">
            <feFlood flood-opacity="0" result="BackgroundImageFix" />
            <feBlend mode="normal" in="SourceGraphic" in2="BackgroundImageFix" result="shape" />
            <feColorMatrix in="SourceAlpha" type="matrix"
                values="0 0 0 0 0 0 0 0 0 0 0 0 0 0 0 0 0 0 127 0" result="hardAlpha" />
            <feOffset dy="0.551265" />
            <feComposite in2="hardAlpha" operator="arithmetic" k2="-1" k3="1" />
            <feColorMatrix type="matrix"
                values="0 0 0 0 0.0554687 0 0 0 0 0.147891 0 0 0 0 0.1875 0 0 0 1 0" />
            <feBlend mode="normal" in2="shape" result="effect1_innerShadow_35_17240" />
        </filter>
        <filter id="filter1_d_35_17240" x="7.22266" y="5.84021" width="10.124" height="12.3698"
            filterUnits="userSpaceOnUse" color-interpolation-filters="sRGB">
            <feFlood flood-opacity="0" result="BackgroundImageFix" />
            <feColorMatrix in="SourceAlpha" type="matrix"
                values="0 0 0 0 0 0 0 0 0 0 0 0 0 0 0 0 0 0 127 0" result="hardAlpha" />
            <feOffset dy="0.475765" />
            <feComposite in2="hardAlpha" operator="out" />
            <feColorMatrix type="matrix" values="0 0 0 0 0 0 0 0 0 0 0 0 0 0 0 0 0 0 1 0" />
            <feBlend mode="normal" in2="BackgroundImageFix" result="effect1_dropShadow_35_17240" />
            <feBlend mode="normal" in="SourceGraphic" in2="effect1_dropShadow_35_17240"
                result="shape" />
        </filter>
    </defs>
</svg>
    