<svg width="24" height="24" viewBox="0 0 24 24" fill="none" xmlns="http://www.w3.org/2000/svg">
<path d="M12 24C18.6274 24 24 18.6274 24 12C24 5.37258 18.6274 0 12 0C5.37258 0 0 5.37258 0 12C0 18.6274 5.37258 24 12 24Z" fill="url(#paint0_radial_8_592)"/>
<path d="M7.41032 15.1549H5.70264C5.84201 17.821 8.07249 20.1386 12.028 20.1386C15.9662 20.1386 18.4755 17.9778 18.4755 15.1898C18.4755 9.89247 10.4772 10.1887 10.4772 7.12182C10.4772 6.26798 11.1219 5.25727 12.6205 5.25727C14.2934 5.25727 16.2624 6.56422 16.4019 8.23703H18.0921C17.9179 5.53608 15.2866 3.65414 11.9409 3.65414C8.47328 3.65414 5.85945 5.6755 5.85945 8.53327C5.85945 13.9874 13.8577 13.273 13.8577 16.6361C13.8577 17.6816 13.213 18.5529 11.5924 18.5529C9.57106 18.5529 7.53227 17.1414 7.41032 15.1549ZM8.83921 7.52261C8.83921 11.6698 16.7678 10.8509 16.7678 15.2769C16.7678 16.6013 15.8965 17.7688 14.851 18.065C15.2169 17.7165 15.4957 16.9498 15.4957 16.2179C15.4957 12.1229 7.5497 12.6805 7.5497 8.48101C7.5497 7.06952 8.45585 5.93687 9.58849 5.58838C9.15283 6.11112 8.83921 6.79071 8.83921 7.52261Z" fill="white"/>
<defs>
<radialGradient id="paint0_radial_8_592" cx="0" cy="0" r="1" gradientUnits="userSpaceOnUse" gradientTransform="translate(12 27.8176) rotate(-90) scale(38.4542)">
<stop stop-color="#FFD232"/>
<stop offset="1" stop-color="#FF6D6D"/>
</radialGradient>
</defs>
</svg>
