<svg width="25" height="24" viewBox="0 0 25 24" fill="none" xmlns="http://www.w3.org/2000/svg">
<g clip-path="url(#clip0_15402_4240)">
<path d="M0.438232 10.5449V16.7561C0.438232 18.5448 1.88818 19.9947 3.67682 19.9947H21.1996C22.9883 19.9947 24.4382 18.5448 24.4382 16.7561V10.5449C24.4382 10.2339 24.186 9.98169 23.875 9.98169H1.00147C0.69042 9.98169 0.438232 10.2339 0.438232 10.5449ZM6.43042 14.4875H4.92846C4.3841 14.4875 3.94281 14.0463 3.94281 13.5019C3.94281 12.9575 4.3841 12.5162 4.92846 12.5162H6.43042C6.97478 12.5162 7.41608 12.9575 7.41608 13.5019C7.41608 14.0463 6.97478 14.4875 6.43042 14.4875Z" fill="#9FE870"/>
<path d="M24.4382 7.44709V7.24371C24.4382 5.45508 22.9883 4.00513 21.1996 4.00513H3.67682C1.88818 4.00513 0.438232 5.45508 0.438232 7.24371V7.44709C0.438232 7.75813 0.69042 8.01032 1.00147 8.01032H23.875C24.186 8.01032 24.4382 7.75813 24.4382 7.44709Z" fill="#9FE870"/>
</g>
<defs>
<clipPath id="clip0_15402_4240">
<rect width="24" height="24" fill="white" transform="translate(0.438232)"/>
</clipPath>
</defs>
</svg>
